<?xml version="1.0" encoding="iso-8859-1"?>
<!-- Uploaded to: SVG Repo, www.svgrepo.com, Generator: SVG Repo Mixer Tools -->
<svg version="1.1" id="Layer_1" xmlns="http://www.w3.org/2000/svg" xmlns:xlink="http://www.w3.org/1999/xlink" 
	 viewBox="0 0 392.515 392.515" xml:space="preserve">
<path style="fill:#194F82;" d="M370.737,22.245c-28.121-28.509-76.024-29.673-105.503,0l-59.798,59.798l-24.889-24.889
	c-4.267-4.267-11.119-4.267-15.451,0l-38.788,38.788c-4.267,4.267-4.267,11.119,0,15.451l36.784,36.784l-119.79,119.79
	c-26.117,26.117-41.438,60.897-43.248,97.875c-0.97,13.382,11.184,27.345,26.182,26.182c21.786-0.776,63.806-7.37,99.814-43.378
	l118.82-118.756l36.784,36.784c5.56,5.107,10.667,4.719,15.451,0l38.788-38.788c4.267-4.267,4.267-11.119,0-15.451l-24.889-24.889
	l59.798-59.798C399.763,98.657,399.763,51.4,370.737,22.245z M110.664,333.194c-30.772,30.772-66.586,36.396-85.204,37.042
	c-2.004,0.129-3.814-1.487-3.62-3.297c1.552-31.547,14.61-61.091,36.913-83.459l13.576-13.576h101.689L110.664,333.194z
	 M195.804,248.055H94.18l84.364-84.364l50.877,50.877L195.804,248.055z M312.62,220.128l-23.402,23.402l-139.701-139.83
	l23.402-23.402L312.62,220.128z M295.553,172.16l-74.667-74.667l17.778-17.778l11.766,11.766c4.396,4.784,11.442,3.943,15.451,0
	c4.267-4.267,4.267-11.119,0-15.451l-11.766-11.766l15.451-15.451l27.152,27.152c4.461,4.331,11.572,3.943,15.451,0
	c4.267-4.267,4.267-11.119,0-15.451l-26.893-26.893c21.075-15.838,48.226-15.838,70.077,4.008c20.558,20.558,20.558,54.109,0,74.667
	L295.553,172.16z"/>
<rect x="132.252" y="145.331" transform="matrix(-0.7071 -0.7071 0.7071 -0.7071 280.0373 439.7563)" style="fill:#FFFFFF;" width="197.687" height="33.099"/>
<path style="fill:#56ACE0;" d="M355.287,37.695c-21.85-19.846-49.002-19.846-70.077-4.008l26.893,26.893
	c4.267,4.267,4.267,11.119,0,15.45c-3.879,3.943-10.925,4.331-15.451,0l-27.152-27.152L254.05,64.394l11.766,11.766
	c4.267,4.267,4.267,11.119,0,15.451c-4.008,3.943-10.99,4.784-15.451,0L238.6,79.845l-17.778,17.778l74.667,74.667l59.798-59.733
	C375.844,91.804,375.844,58.253,355.287,37.695z"/>
<path style="fill:#FFC10D;" d="M174.018,269.841H72.329l-13.576,13.576c-22.303,22.303-35.491,51.911-36.913,83.459
	c-0.129,1.939,1.616,3.491,3.62,3.297c18.618-0.646,54.432-6.271,85.139-37.042L174.018,269.841z"/>
<polygon style="fill:#FFFFFF;" points="178.543,163.562 94.18,248.055 195.804,248.055 229.42,214.439 "/>
</svg>