<?xml version="1.0" encoding="iso-8859-1"?>
<!-- Uploaded to: SVG Repo, www.svgrepo.com, Generator: SVG Repo Mixer Tools -->
<svg height="800px" width="800px" version="1.1" id="Layer_1" xmlns="http://www.w3.org/2000/svg" xmlns:xlink="http://www.w3.org/1999/xlink" 
	 viewBox="0 0 512 512" xml:space="preserve">
<polygon style="fill:#CFF09E;" points="198.89,362.27 110.21,357.24 105.18,268.56 281.104,92.637 374.815,186.348 "/>
<path style="fill:#507C5C;" d="M440.499,144.348l2.64-2.64c15.679-15.679,24.313-36.525,24.313-58.698s-8.634-43.019-24.313-58.698
	C427.46,8.633,406.613,0,384.441,0c-22.173,0-43.019,8.634-58.698,24.313l-2.64,2.64L310.24,14.09c-6.024-6.02-15.785-6.02-21.81,0
	l-42.936,42.936c-6.022,6.022-6.022,15.787,0,21.81l13.8,13.8L94.276,257.655c-3.107,3.107-4.741,7.391-4.492,11.779l4.788,84.428
	c-14.791,17.813-50.024,63.235-50.024,91.624c0,36.675,29.839,66.513,66.515,66.513c36.675,0,66.513-29.839,66.513-66.513
	c0-8.516-6.906-15.421-15.421-15.421c-8.516,0-15.421,6.906-15.421,15.421c0,19.67-16.003,35.671-35.671,35.671
	c-19.67,0-35.672-16.001-35.672-35.671c0-11.476,16.88-38.849,35.62-62.869c4.642,5.953,10.133,13.295,15.432,21.09
	c4.787,7.044,14.382,8.873,21.423,4.085c7.043-4.787,8.873-14.379,4.085-21.423c-2.79-4.105-5.609-8.065-8.34-11.79l54.405,3.086
	c0.291,0.017,0.583,0.025,0.874,0.025c4.077,0,8.002-1.618,10.903-4.517l165.023-165.017l13.801,13.801
	c3.012,3.01,6.958,4.517,10.904,4.517c3.946,0,7.893-1.507,10.904-4.517l42.936-42.936c6.022-6.022,6.022-15.787,0-21.81
	L440.499,144.348z M192.87,346.484l-68.042-3.86l-3.86-68.042l160.136-160.136l71.902,71.902L192.87,346.484z M399.521,189.242
	L278.21,67.931l21.126-21.126l62.018,62.018c6.024,6.02,15.785,6.02,21.81,0c6.022-6.022,6.022-15.787,0-21.81l-38.251-38.249
	l2.64-2.64c9.854-9.854,22.953-15.279,36.888-15.279c13.935,0,27.034,5.427,36.888,15.279c9.854,9.853,15.279,22.953,15.279,36.888
	s-5.427,27.033-15.279,36.888l-13.544,13.544c-3.012,3.012-4.517,6.958-4.517,10.904c0,3.946,1.505,7.894,4.517,10.904
	l12.864,12.864L399.521,189.242z"/>
</svg>