<?xml version="1.0" encoding="iso-8859-1"?>
<!-- Uploaded to: SVG Repo, www.svgrepo.com, Generator: SVG Repo Mixer Tools -->
<svg version="1.1" id="Layer_1" xmlns="http://www.w3.org/2000/svg" xmlns:xlink="http://www.w3.org/1999/xlink" 
	 viewBox="0 0 512 512" xml:space="preserve">
<rect x="169.639" y="42.336" transform="matrix(0.7071 0.7071 -0.7071 0.7071 253.4057 -112.3134)" style="fill:#E8655A;" width="185.277" height="414.79"/>
<polygon style="fill:#E6E6E6;" points="102.363,482.943 29.057,409.637 50.118,330.869 181.131,461.882 "/>
<g>
	<polygon style="fill:#FFBA57;" points="408.735,10.2 362.397,56.538 396.27,90.411 272.51,214.171 297.83,239.491 421.59,115.731 
		455.462,149.603 501.801,103.266 	"/>
	<path style="fill:#FFBA57;" d="M22.108,489.891L22.108,489.891c-12.112-12.111-15.357-30.504-8.122-46.03l15.672-33.626
		l72.105,72.105l-33.626,15.672C52.613,505.248,34.22,502.003,22.108,489.891z"/>
</g>
<g>
	<path style="fill:#603813;" d="M509.013,96.053L415.948,2.987c-3.984-3.982-10.44-3.982-14.426,0l-39.124,39.125l-11.761-11.761
		c-3.984-3.982-10.44-3.982-14.426,0L42.906,323.655v0.001c-1.246,1.246-2.171,2.815-2.643,4.578l-21.059,78.769
		c-0.195,0.728-0.286,1.466-0.317,2.201L4.742,439.552c-9.014,19.339-4.933,42.467,10.154,57.551h-0.001
		c9.744,9.744,22.84,14.896,36.104,14.896c7.273,0,14.598-1.55,21.446-4.741l30.345-14.143c0.737-0.031,1.477-0.123,2.206-0.318
		l78.769-21.058c1.763-0.471,3.331-1.396,4.579-2.643l293.305-293.305c3.983-3.983,3.983-10.442,0-14.426l-11.761-11.761
		l39.124-39.124C512.996,106.495,512.996,100.036,509.013,96.053z M63.828,488.768c-11.595,5.404-25.462,2.956-34.508-6.09
		c0,0,0,0-0.001,0c-9.045-9.045-11.492-22.913-6.087-34.508l9.515-20.418l51.5,51.5L63.828,488.768z M105.416,471.567
		l-64.984-64.983l14.973-56.004L161.42,456.595L105.416,471.567z M460.012,168.577l-278.88,278.88L64.543,330.868l278.88-278.879
		l38.421,38.422L265.296,206.957c-3.983,3.983-3.983,10.442,0,14.426l25.32,25.321c1.912,1.912,4.507,2.988,7.212,2.988
		s5.299-1.075,7.212-2.988l116.548-116.548L460.012,168.577z M455.462,135.179l-26.66-26.66c-3.984-3.982-10.44-3.982-14.426,0
		L297.83,225.066l-10.896-10.896L403.482,97.623c1.912-1.913,2.988-4.507,2.988-7.212s-1.075-5.3-2.988-7.212l-26.66-26.659
		l31.913-31.913l78.64,78.64L455.462,135.179z"/>
	<path style="fill:#603813;" d="M274.172,305.542L173.16,406.554c-3.983,3.983-3.983,10.441,0,14.426
		c1.992,1.991,4.602,2.988,7.212,2.988c2.61,0,5.22-0.997,7.212-2.988l101.012-101.011c3.983-3.983,3.983-10.441,0-14.426
		C284.614,301.562,278.157,301.56,274.172,305.542z"/>
	<path style="fill:#603813;" d="M304.371,275.343l-7.289,7.289c-3.983,3.983-3.983,10.441,0,14.426
		c1.992,1.991,4.602,2.987,7.212,2.987c2.61,0,5.22-0.996,7.212-2.987l7.289-7.289c3.983-3.983,3.983-10.441,0-14.426
		C314.811,271.361,308.355,271.361,304.371,275.343z"/>
</g>
</svg>