<?xml version="1.0" encoding="iso-8859-1"?>
<!-- Uploaded to: SVG Repo, www.svgrepo.com, Generator: SVG Repo Mixer Tools -->
<svg height="800px" width="800px" version="1.1" id="Layer_1" xmlns="http://www.w3.org/2000/svg" xmlns:xlink="http://www.w3.org/1999/xlink" 
	 viewBox="0 0 512 512" xml:space="preserve">
<polygon style="fill:#CFF09E;" points="92.352,14.157 92.352,394.529 128.382,344.516 157.563,394.529 161.401,394.529 
	190.582,344.516 226.612,394.529 226.612,14.157 "/>
<g>
	<path style="fill:#507C5C;" d="M239.556,400.239c0.251-0.568,0.462-1.154,0.637-1.755c0.025-0.089,0.052-0.177,0.076-0.266
		c0.159-0.587,0.279-1.186,0.361-1.798c0.014-0.099,0.025-0.198,0.035-0.297c0.059-0.527,0.101-1.056,0.101-1.594V14.157
		C240.767,6.339,234.429,0,226.61,0H92.352c-7.819,0-14.157,6.339-14.157,14.157v380.371c0,0.538,0.041,1.067,0.101,1.594
		c0.011,0.099,0.023,0.198,0.035,0.297c0.082,0.612,0.202,1.21,0.361,1.798c0.024,0.089,0.051,0.177,0.076,0.266
		c0.176,0.602,0.386,1.188,0.637,1.755c0.035,0.079,0.072,0.156,0.109,0.234c0.27,0.582,0.575,1.145,0.92,1.683
		c0.017,0.027,0.028,0.058,0.047,0.085l67.131,103.313c2.712,4.173,7.251,6.445,11.884,6.445c2.644,0,5.317-0.739,7.7-2.286
		c6.556-4.261,8.418-13.028,4.158-19.584l-61.85-95.189l13.243-18.382l4.387-6.09l20.121,34.484
		c2.537,4.348,7.193,7.022,12.227,7.022s9.69-2.674,12.227-7.022l20.121-34.484l17.631,24.472l-19.022,29.277H171.02
		c-7.819,0-14.157,6.339-14.157,14.157c0,7.817,6.338,14.157,14.157,14.157h27.103c4.792,0,9.26-2.425,11.87-6.444l28.489-43.846
		c0.018-0.028,0.03-0.058,0.047-0.085c0.344-0.538,0.65-1.101,0.92-1.683C239.484,400.395,239.522,400.317,239.556,400.239z
		 M212.455,28.313v322.344l-10.387-14.418c-2.802-3.886-7.356-6.096-12.166-5.865c-4.786,0.229-9.132,2.865-11.548,7.005
		l-18.874,32.345l-18.872-32.344c-2.415-4.139-6.76-6.775-11.548-7.005c-0.228-0.011-0.454-0.017-0.681-0.017
		c-0.177,0-0.35,0.025-0.525,0.031c-0.309,0.011-0.614,0.024-0.92,0.055c-0.241,0.025-0.478,0.062-0.718,0.101
		c-0.334,0.051-0.667,0.105-0.995,0.18c-0.211,0.048-0.416,0.112-0.624,0.168c-0.34,0.095-0.68,0.19-1.011,0.309
		c-0.198,0.071-0.388,0.159-0.582,0.238c-0.326,0.134-0.651,0.266-0.965,0.425c-0.201,0.1-0.392,0.219-0.589,0.33
		c-0.293,0.164-0.588,0.324-0.868,0.51c-0.218,0.144-0.422,0.31-0.633,0.467c-0.242,0.18-0.49,0.35-0.719,0.545
		c-0.253,0.215-0.487,0.456-0.726,0.689c-0.168,0.166-0.348,0.317-0.508,0.49c-0.391,0.422-0.76,0.869-1.101,1.343l-10.387,14.42
		V110.894h62.939c7.819,0,14.157-6.339,14.157-14.157s-6.338-14.157-14.157-14.157h-62.939V28.313H212.455z"/>
	<path style="fill:#507C5C;" d="M419.648,0H291.296c-7.817,0-14.157,6.339-14.157,14.157v92.25v0.001v0.001
		c0,7.817,6.339,14.157,14.157,14.157h64.176c7.817,0,14.157-6.339,14.157-14.157s-6.339-14.157-14.157-14.157h-50.019v-63.94
		h100.039v455.372H305.452v-65.357h50.02c7.817,0,14.157-6.339,14.157-14.157s-6.339-14.157-14.157-14.157h-50.019v-70.94h50.019
		c7.817,0,14.157-6.339,14.157-14.157c0-7.817-6.339-14.157-14.157-14.157h-50.019v-70.94h50.019
		c7.817,0,14.157-6.339,14.157-14.157s-6.339-14.157-14.157-14.157H291.46c-0.055,0-0.109-0.008-0.164-0.008
		c-7.817,0-14.157,6.339-14.157,14.157v292.186c0,7.817,6.339,14.157,14.157,14.157h128.352c7.817,0,14.157-6.339,14.157-14.157
		V14.157C433.805,6.339,427.467,0,419.648,0z"/>
</g>
</svg>