<?xml version="1.0" encoding="iso-8859-1"?>
<!-- Uploaded to: SVG Repo, www.svgrepo.com, Generator: SVG Repo Mixer Tools -->
<svg version="1.1" id="Layer_1" xmlns="http://www.w3.org/2000/svg" xmlns:xlink="http://www.w3.org/1999/xlink" 
	 viewBox="0 0 512.001 512.001" xml:space="preserve">
<rect x="215.997" y="193.176" style="fill:#CEE8FA;" width="80.017" height="305.552"/>
<g>
	<path style="fill:#2D527C;" d="M296.01,159.625c7.326,0,13.268-5.941,13.268-13.268V98.086c0-7.326-5.941-13.268-13.268-13.268
		h-80.018c-7.326,0-13.268,5.941-13.268,13.268v95.093v305.555c0,7.326,5.941,13.268,13.268,13.268h80.018
		c7.326,0,13.268-5.941,13.268-13.268V193.179c0-7.326-5.941-13.268-13.268-13.268h-66.751v-68.558h53.483v35.004
		C282.742,153.684,288.682,159.625,296.01,159.625z M282.742,485.465h-53.483V206.446h53.483V485.465z"/>
	<path style="fill:#2D527C;" d="M256.001,50.385c-7.326,0-13.268-5.941-13.268-13.268v-23.85C242.734,5.941,248.675,0,256.001,0
		c7.326,0,13.268,5.941,13.268,13.268v23.85C269.269,44.444,263.328,50.385,256.001,50.385z"/>
	<path style="fill:#2D527C;" d="M393.135,163.669h-23.849c-7.326,0-13.268-5.941-13.268-13.268c0-7.326,5.941-13.268,13.268-13.268
		h23.849c7.326,0,13.268,5.941,13.268,13.268C406.403,157.728,400.461,163.669,393.135,163.669z"/>
	<path style="fill:#2D527C;" d="M142.715,163.669h-23.848c-7.326,0-13.268-5.941-13.268-13.268c0-7.326,5.941-13.268,13.268-13.268
		h23.848c7.326,0,13.268,5.941,13.268,13.268C155.982,157.728,150.041,163.669,142.715,163.669z"/>
	<path style="fill:#2D527C;" d="M336.107,83.565c-3.397,0-6.79-1.296-9.38-3.886c-5.182-5.181-5.182-13.581-0.001-18.763
		l16.863-16.864c5.18-5.182,13.582-5.181,18.763-0.001c5.182,5.181,5.182,13.581,0.001,18.763l-16.864,16.866
		C342.899,82.27,339.502,83.565,336.107,83.565z"/>
	<path style="fill:#2D527C;" d="M159.033,260.638c-3.396,0-6.79-1.296-9.382-3.886c-5.181-5.181-5.181-13.582,0-18.764
		l16.863-16.863c5.182-5.18,13.581-5.18,18.764,0c5.181,5.181,5.181,13.582,0,18.764l-16.863,16.863
		C165.823,259.343,162.428,260.638,159.033,260.638z"/>
	<path style="fill:#2D527C;" d="M352.97,260.638c-3.396,0-6.79-1.296-9.382-3.886l-16.863-16.863
		c-5.181-5.181-5.181-13.582,0-18.764c5.182-5.18,13.581-5.18,18.764,0l16.863,16.863c5.181,5.181,5.181,13.582,0,18.764
		C359.76,259.343,356.365,260.638,352.97,260.638z"/>
	<path style="fill:#2D527C;" d="M175.896,83.565c-3.396,0-6.79-1.296-9.382-3.887l-16.863-16.864
		c-5.181-5.181-5.181-13.581,0.001-18.763c5.182-5.18,13.582-5.18,18.763,0.001l16.863,16.864
		c5.181,5.181,5.181,13.581-0.001,18.763C182.686,82.27,179.289,83.565,175.896,83.565z"/>
</g>
</svg>