<?xml version="1.0" encoding="utf-8"?><!-- Uploaded to: SVG Repo, www.svgrepo.com, Generator: SVG Repo Mixer Tools -->
<svg width="800px" height="800px" viewBox="0 0 128 128" xmlns="http://www.w3.org/2000/svg" xmlns:xlink="http://www.w3.org/1999/xlink" aria-hidden="true" role="img" class="iconify iconify--noto" preserveAspectRatio="xMidYMid meet"><path d="M67.76 93.24c-17.11 0-30.86-6.73-30.86-22.95s13.65-22.55 30.86-22.55h26.29V16.97H67.76c-30.02 0-55.17 15.08-61.54 40.54H4.65v12.97c0 33.24 28.29 53.51 63.11 53.51h26.29V93.24H67.76z" fill="#c62828"></path><path fill="#82aec0" d="M94.05 93.24h29.3V124h-29.3z"></path><path fill="#82aec0" d="M94.05 16.97h29.3v30.76h-29.3z"></path><path d="M67.76 80.26c-17.11 0-30.86-6.73-30.86-22.95s13.65-22.55 30.86-22.55h26.29V4H67.76C32.94 4 4.65 24.28 4.65 57.51c0 33.24 28.29 53.51 63.11 53.51h26.29V80.26H67.76z" fill="#f44336"></path><path fill="#e0e0e0" d="M94.05 80.26h29.3v30.76h-29.3z"></path><path fill="#e0e0e0" d="M94.05 4h29.3v30.76h-29.3z"></path></svg>