<?xml version="1.0" encoding="iso-8859-1"?>
<!-- Uploaded to: SVG Repo, www.svgrepo.com, Generator: SVG Repo Mixer Tools -->
<svg height="800px" width="800px" version="1.1" id="Layer_1" xmlns="http://www.w3.org/2000/svg" xmlns:xlink="http://www.w3.org/1999/xlink" 
	 viewBox="0 0 511.787 511.787" xml:space="preserve">
<g transform="translate(1 1)">
	<path style="fill:#FFE100;" d="M426.04,324.76c75.947-76.8,83.627-192.853,16.213-260.267S258.786,4.76,181.986,80.707l0,0
		L26.68,233.453l55.467,55.467l153.6-144.213c46.933-36.693,102.4-40.107,134.827-8.533c31.573,33.28,38.4,98.987,1.707,135.68
		l-162.133,153.6l55.467,55.467L426.04,324.76L426.04,324.76z"/>
	<path style="fill:#FFFFFF;" d="M182.84,80.707C258.786,4.76,374.84-2.92,442.253,63.64c-76.8-75.093-199.68-75.093-275.627,0l0,0
		L9.613,216.387l17.067,17.067L182.84,80.707L182.84,80.707z"/>
	<path style="fill:#FFE100;" d="M370.573,137.027L370.573,137.027l-0.853-0.853C369.72,136.173,369.72,137.027,370.573,137.027"/>
	<path style="fill:#FFA800;" d="M443.106,64.493L443.106,64.493c66.56,66.56,59.733,183.467-16.213,260.267l0,0l-161.28,156.16
		l17.067,17.067l160.427-156.16l0,0C519.053,265.027,519.053,141.293,443.106,64.493"/>
	<path style="fill:#FFE100;" d="M447.373,84.12L447.373,84.12c66.56,66.56,59.733,183.467-16.213,260.267l0,0l-161.28,156.16
		l5.12,5.12c6.827,6.827,17.067,6.827,23.893,0l149.333-144.213l0,0C523.32,284.653,523.32,160.92,447.373,84.12"/>
	<polygon style="fill:#63D3FD;" points="122.253,249.667 158.946,213.827 86.413,141.293 49.72,177.133 	"/>
	<polygon style="fill:#3DB9F9;" points="363.746,418.627 291.213,346.947 254.52,381.933 327.053,454.467 	"/>
	<polygon style="fill:#63D3FD;" points="346.68,406.68 286.946,348.653 252.813,382.787 309.986,442.52 	"/>
	<path d="M282.68,506.52c-2.56,0-4.267-0.853-5.973-2.56l-72.533-72.533c-1.707-1.707-2.56-3.413-2.56-5.973
		c0-2.56,0.853-4.267,2.56-5.973L364.6,263.32c33.28-33.28,33.28-87.04,0-120.32s-87.04-33.28-120.32,0L88.12,294.893
		c-3.413,3.413-8.533,3.413-11.947,0L3.64,222.36c-1.707-1.707-2.56-3.413-2.56-5.973c0-2.56,0.853-4.267,2.56-5.973L159.8,58.52
		c80.213-79.36,209.92-79.36,289.28,0s79.36,209.067,0.853,289.28l0,0l-161.28,156.16C286.946,505.667,284.386,506.52,282.68,506.52
		z M222.093,425.453l60.587,60.587l154.453-150.187l0,0c72.533-73.387,72.533-192-0.853-265.387
		c-72.533-72.533-191.147-72.533-264.533,0L21.56,216.387l60.587,60.587l149.333-145.92c40.107-40.107,104.96-40.107,145.067,0
		s40.107,104.96,0,145.067L222.093,425.453z M443.106,341.827L443.106,341.827L443.106,341.827z"/>
	<path d="M122.253,258.2c-2.56,0-4.267-0.853-5.973-2.56l-72.533-72.533c-1.707-1.707-2.56-3.413-2.56-5.973s0.853-4.267,2.56-5.973
		l36.693-35.84c3.413-3.413,8.533-3.413,11.947,0l72.533,72.533c1.707,1.707,2.56,3.413,2.56,5.973c0,2.56-0.853,4.267-2.56,5.973
		l-36.693,35.84C126.52,257.347,123.96,258.2,122.253,258.2z M61.666,177.133l60.587,60.587L147,213.827L86.413,153.24
		L61.666,177.133z"/>
	<path d="M327.053,463c-2.56,0-4.267-0.853-5.973-2.56l-72.533-72.533c-1.707-1.707-2.56-3.413-2.56-5.973
		c0-2.56,0.853-4.267,2.56-5.973l36.693-35.84c3.413-3.413,8.533-3.413,11.947,0l72.533,72.533c1.707,1.707,2.56,3.413,2.56,5.973
		c0,2.56-0.853,4.267-2.56,5.973l-36.693,35.84C331.32,462.147,328.76,463,327.053,463z M266.466,382.787l60.587,60.587
		L351.8,419.48l-60.587-60.587L266.466,382.787z"/>
</g>
</svg>