<?xml version="1.0" encoding="iso-8859-1"?>
<!-- Uploaded to: SVG Repo, www.svgrepo.com, Generator: SVG Repo Mixer Tools -->
<svg height="800px" width="800px" version="1.1" id="Layer_1" xmlns="http://www.w3.org/2000/svg" xmlns:xlink="http://www.w3.org/1999/xlink" 
	 viewBox="0 0 512 512" xml:space="preserve">
<path style="fill:#CEE8FA;" d="M262.083,136.266v107.885c0,19.44-15.76,35.2-35.2,35.2h-1.394
	c-17.613,0-32.205-12.936-34.792-29.826v43.576c0,19.44-15.76,35.2-35.2,35.2h-1.394c-19.44,0-35.2-15.76-35.2-35.2v-43.576
	c-2.587,16.89-17.179,29.826-34.792,29.826h-1.394c-19.44,0-35.2-15.76-35.2-35.2V136.266H47.2v329.067h417.6V136.266H262.083z"/>
<path style="fill:#2D527C;" d="M496,30.666h-80.8c-8.837,0-16,7.165-16,16s7.163,16,16,16H480v57.6H32v-57.6h271.2
	c8.837,0,16-7.165,16-16s-7.163-16-16-16H16c-8.837,0-16,7.165-16,16v84.293v5.307v5.922c0,44.301,11.315,86.003,31.2,122.384
	v200.762c0,8.835,7.163,16,16,16h417.6c8.837,0,16-7.165,16-16V264.57c19.885-36.379,31.2-78.083,31.2-122.384v-5.922v-5.307V46.666
	C512,37.83,504.837,30.666,496,30.666z M278.083,244.151v-91.885H448.8v103.83C409.749,321.943,337.949,366.188,256,366.188
	c-34.661,0-67.507-7.915-96.83-22.03c26.523-1.891,47.528-24.059,47.528-51.054v-1.382c5.859,2.346,12.211,3.632,18.792,3.632h1.394
	C255.115,295.351,278.083,272.383,278.083,244.151z M104.968,307.463c-4.459-4.078-8.746-8.339-12.864-12.762
	c3.733-0.6,7.354-1.602,10.8-2.981v1.382C102.902,298.089,103.632,302.903,104.968,307.463z M63.517,152.266h182.566v91.885
	c0,10.587-8.613,19.2-19.2,19.2h-1.394c-9.4,0-17.558-6.986-18.976-16.248c-1.267-8.267-8.686-14.171-17.03-13.53
	c-8.341,0.634-14.786,7.587-14.786,15.954v43.576c0,10.587-8.613,19.2-19.2,19.2h-1.394c-10.587,0-19.2-8.613-19.2-19.2v-43.576
	c0-8.366-6.443-15.318-14.786-15.954c-0.413-0.034-0.821-0.046-1.229-0.046c-0.048,0-0.093,0.006-0.141,0.006
	c-0.27,0.002-0.538,0.021-0.805,0.037c-0.222,0.013-0.446,0.022-0.666,0.045c-0.278,0.029-0.552,0.07-0.826,0.114
	c-0.206,0.032-0.414,0.062-0.619,0.101c-0.272,0.053-0.539,0.118-0.806,0.186c-0.203,0.051-0.406,0.101-0.606,0.16
	c-0.258,0.075-0.512,0.162-0.765,0.25c-0.205,0.07-0.408,0.142-0.608,0.222c-0.238,0.094-0.474,0.197-0.707,0.301
	c-0.208,0.094-0.413,0.19-0.616,0.293c-0.218,0.109-0.43,0.224-0.643,0.342c-0.21,0.118-0.416,0.24-0.621,0.368
	c-0.195,0.122-0.387,0.246-0.578,0.376c-0.21,0.142-0.414,0.293-0.618,0.446c-0.174,0.131-0.347,0.264-0.515,0.402
	c-0.205,0.168-0.403,0.346-0.6,0.523c-0.154,0.141-0.309,0.28-0.458,0.427c-0.197,0.194-0.386,0.395-0.573,0.598
	c-0.134,0.147-0.272,0.293-0.402,0.445c-0.186,0.218-0.36,0.445-0.534,0.672c-0.117,0.154-0.237,0.304-0.349,0.462
	c-0.171,0.242-0.328,0.491-0.486,0.742c-0.099,0.158-0.203,0.312-0.296,0.475c-0.152,0.264-0.29,0.536-0.427,0.81
	c-0.082,0.163-0.17,0.322-0.246,0.486c-0.133,0.288-0.248,0.584-0.363,0.882c-0.064,0.163-0.134,0.32-0.194,0.486
	c-0.115,0.328-0.211,0.666-0.306,1.003c-0.04,0.142-0.091,0.282-0.126,0.427c-0.122,0.486-0.224,0.982-0.302,1.488
	c-1.419,9.262-9.578,16.248-18.976,16.248h-1.394c-10.587,0-19.2-8.613-19.2-19.2v-91.885H63.517z M448.8,449.332H63.2V310.415
	c46.963,53.755,115.981,87.773,192.8,87.773s145.837-34.018,192.8-87.773V449.332z"/>
</svg>