<?xml version="1.0" encoding="iso-8859-1"?>
<!-- Uploaded to: SVG Repo, www.svgrepo.com, Generator: SVG Repo Mixer Tools -->
<svg version="1.1" id="Layer_1" xmlns="http://www.w3.org/2000/svg" xmlns:xlink="http://www.w3.org/1999/xlink" 
	 viewBox="0 0 512.026 512.026" xml:space="preserve">
<rect x="33.297" y="89.208" transform="matrix(0.9638 -0.2666 0.2666 0.9638 -16.5745 72.327)" width="449.597" height="16"/>
<g>
	
		<rect x="7.002" y="128.068" transform="matrix(0.9638 -0.2666 0.2666 0.9638 -40.8627 15.6656)" style="fill:#507C5C;" width="60.528" height="60.528"/>
	
		<rect x="444.497" y="6.973" transform="matrix(0.9638 -0.2666 0.2666 0.9638 7.2557 127.9197)" style="fill:#507C5C;" width="60.528" height="60.528"/>
</g>
<g>
	<path style="fill:#CFF09E;" d="M255.695,106.226V445.25h-51.688c0,0,3.76-63.856-65.768-128.624L255.695,106.226z"/>
	<path style="fill:#CFF09E;" d="M255.695,106.226V445.25h51.672c0,0-3.76-63.856,65.768-128.624L255.695,106.226z"/>
</g>
<polygon style="fill:#507C5C;" points="337.079,512.026 174.311,512.026 180.759,445.25 330.639,445.25 "/>
<g>
	<ellipse style="fill:#FFFFFF;" cx="255.695" cy="330.106" rx="22.112" ry="21.912"/>
	<polygon style="fill:#FFFFFF;" points="259.703,349.65 251.703,349.65 251.703,254.57 271.391,235.05 271.391,127.226 
		279.391,127.226 279.391,238.378 259.703,257.898 	"/>
</g>
</svg>