<?xml version="1.0" encoding="iso-8859-1"?>
<!-- Uploaded to: SVG Repo, www.svgrepo.com, Generator: SVG Repo Mixer Tools -->
<svg version="1.1" id="Layer_1" xmlns="http://www.w3.org/2000/svg" xmlns:xlink="http://www.w3.org/1999/xlink" 
	 viewBox="0 0 512 512" xml:space="preserve">
<rect x="164.145" y="80.588" style="fill:#CFF09E;" width="138.448" height="319.951"/>
<path style="fill:#507C5C;" d="M347.849,115.859h-31.369V80.581c0-7.662-6.212-13.875-13.875-13.875h-101.14V27.751h63.827v5.601
	c0,7.662,6.212,13.875,13.875,13.875c7.663,0,13.875-6.213,13.875-13.875V13.875C293.041,6.213,286.829,0,279.166,0h-91.577
	c-7.663,0-13.875,6.213-13.875,13.875v52.83h-9.564c-7.663,0-13.875,6.213-13.875,13.875v319.953c0,0.039,0.006,0.076,0.006,0.115
	c0.001,0.112,0.014,0.223,0.017,0.336c0.017,0.499,0.058,0.992,0.126,1.476c0.021,0.146,0.042,0.289,0.067,0.434
	c0.205,1.196,0.562,2.338,1.052,3.408c0.053,0.115,0.108,0.229,0.165,0.343c0.247,0.502,0.518,0.991,0.821,1.456
	c0.028,0.043,0.05,0.087,0.079,0.13c0.333,0.498,0.705,0.967,1.098,1.417c0.046,0.053,0.079,0.111,0.125,0.162l34.615,38.504
	c5.123,5.697,13.896,6.168,19.595,1.042c5.699-5.123,6.165-13.896,1.042-19.595l-13.8-15.352l76.192,0.001l-48.412,53.853
	c-0.067,0.074-0.122,0.154-0.186,0.23c-0.157,0.182-0.308,0.37-0.455,0.561c-0.136,0.175-0.271,0.35-0.397,0.53
	c-0.132,0.187-0.254,0.379-0.376,0.573c-0.122,0.194-0.244,0.387-0.355,0.586c-0.108,0.191-0.207,0.389-0.305,0.586
	c-0.104,0.208-0.21,0.415-0.302,0.627c-0.089,0.2-0.165,0.405-0.244,0.609c-0.083,0.216-0.166,0.433-0.239,0.651
	c-0.068,0.21-0.126,0.422-0.185,0.635c-0.061,0.223-0.123,0.447-0.173,0.673c-0.047,0.211-0.083,0.426-0.121,0.64
	c-0.042,0.237-0.08,0.473-0.108,0.712c-0.025,0.208-0.042,0.418-0.057,0.629c-0.018,0.251-0.033,0.502-0.037,0.753
	c-0.001,0.094-0.014,0.187-0.014,0.282v20.584c0,7.662,6.212,13.875,13.875,13.875c7.663,0,13.875-6.213,13.875-13.875v-15.263
	l65.671-73.049c0.047-0.053,0.082-0.114,0.129-0.166c0.391-0.448,0.76-0.914,1.093-1.41c0.031-0.047,0.055-0.096,0.086-0.143
	c0.301-0.462,0.569-0.945,0.813-1.442c0.057-0.117,0.115-0.232,0.169-0.351c0.49-1.068,0.845-2.208,1.05-3.402
	c0.025-0.146,0.046-0.29,0.067-0.437c0.068-0.486,0.111-0.977,0.126-1.475c0.004-0.112,0.017-0.223,0.017-0.336
	c0-0.039,0.006-0.078,0.006-0.117V143.61h17.494v126.266c0,7.662,6.212,13.875,13.875,13.875s13.875-6.213,13.875-13.875V129.734
	C361.724,122.072,355.512,115.859,347.849,115.859z M288.728,386.659H178.024V94.456h110.704v21.403h-55.352
	c-7.663,0-13.875,6.213-13.875,13.875s6.212,13.875,13.875,13.875h55.352V386.659z"/>
</svg>