<?xml version="1.0" encoding="iso-8859-1"?>
<!-- Uploaded to: SVG Repo, www.svgrepo.com, Generator: SVG Repo Mixer Tools -->
<svg height="800px" width="800px" version="1.1" id="Layer_1" xmlns="http://www.w3.org/2000/svg" xmlns:xlink="http://www.w3.org/1999/xlink" 
	 viewBox="0 0 512.003 512.003" xml:space="preserve">
<path style="fill:#EB87BF;" d="M413.255,282.86c26.115,6.962,45.357,30.767,45.357,59.075h4.452c7.1,0,13.71,2.074,19.276,5.637
	l0.463-11.839c0.123-3.135,0.262-6.689,0.262-10.23c0-125.205-101.86-227.066-227.066-227.066S28.933,200.297,28.933,325.501
	c0,3.509,0.134,6.925,0.264,10.23l0.463,11.84c5.566-3.562,12.177-5.636,19.275-5.636h4.452c0-28.309,19.242-52.115,45.359-59.075
	c18.791-69.223,82.167-120.285,157.255-120.285S394.466,213.637,413.255,282.86z"/>
<path d="M308.487,299.161c-0.866,0-1.719-0.092-2.571-0.262c-0.84-0.171-1.666-0.42-2.453-0.748s-1.548-0.735-2.268-1.207
	c-0.708-0.472-1.379-1.023-1.995-1.627c-0.603-0.603-1.154-1.286-1.627-1.994c-0.471-0.722-0.879-1.482-1.207-2.27
	c-0.328-0.787-0.576-1.614-0.746-2.453c-0.172-0.853-0.262-1.705-0.262-2.558c0-0.866,0.091-1.719,0.262-2.571
	c0.171-0.84,0.418-1.666,0.746-2.453c0.328-0.787,0.736-1.548,1.207-2.27c0.472-0.708,1.023-1.391,1.627-1.994
	c0.617-0.603,1.286-1.154,1.995-1.627c0.722-0.472,1.482-0.879,2.268-1.207c0.788-0.328,1.614-0.577,2.453-0.748
	c1.692-0.341,3.437-0.341,5.129,0c0.84,0.171,1.666,0.42,2.453,0.748c0.787,0.328,1.548,0.735,2.268,1.207
	c0.708,0.472,1.377,1.023,1.995,1.627c0.603,0.603,1.154,1.286,1.625,1.994c0.472,0.722,0.88,1.482,1.208,2.27
	c0.328,0.787,0.576,1.614,0.746,2.453c0.171,0.853,0.262,1.705,0.262,2.571c0,3.45-1.404,6.822-3.844,9.275
	c-0.618,0.603-1.286,1.154-1.995,1.627c-0.722,0.472-1.482,0.879-2.268,1.207c-0.788,0.328-1.614,0.577-2.453,0.748
	C310.192,299.07,309.341,299.161,308.487,299.161z"/>
<g>
	<path style="fill:#00D7DF;" d="M180.126,341.935h-4.452c0-33.768-27.374-61.143-61.143-61.143s-61.143,27.374-61.143,61.143h-4.452
		c-19.78,0-35.816,16.035-35.816,35.816l0,0c0,19.781,16.036,35.816,35.816,35.816h131.189c19.781,0,35.816-16.036,35.816-35.816
		l0,0C215.942,357.97,199.906,341.935,180.126,341.935z"/>
	<path style="fill:#00D7DF;" d="M463.065,341.935h-4.452c0-33.768-27.374-61.143-61.143-61.143s-61.143,27.374-61.143,61.143h-4.452
		c-19.781,0-35.816,16.036-35.816,35.816l0,0c0,19.781,16.036,35.816,35.816,35.816h131.189c19.781,0,35.816-16.036,35.816-35.816
		l0,0C498.881,357.97,482.845,341.935,463.065,341.935z"/>
</g>
<path style="fill:#FFF476;" d="M362.78,291.591c9.857-6.806,21.804-10.801,34.689-10.801c8.694,0,16.958,1.826,24.446,5.098
	c-18.804-74.075-86.056-129.041-165.914-129.041c-79.832,0-147.066,54.955-165.872,129.02c7.476-3.259,15.725-5.077,24.401-5.077
	c12.898,0,24.857,4.004,34.721,10.823c15.165-44.406,57.273-76.443,106.751-76.443C305.488,215.172,347.604,247.197,362.78,291.591z
	"/>
<path d="M495.715,341.332l0.205-5.205c0.125-3.222,0.266-6.873,0.266-10.626c0-132.438-107.747-240.185-240.185-240.185
	S15.816,193.063,15.816,325.501c0,3.779,0.138,7.32,0.273,10.744l0.199,5.086C6.296,350.297,0,363.303,0,377.751
	c0,26.982,21.953,48.935,48.936,48.935h131.189c26.982,0,48.936-21.953,48.936-48.935c0-19.691-11.693-36.697-28.497-44.454
	c-0.054-1-0.087-2.019-0.087-3.058c0-30.62,24.907-55.532,55.523-55.532c5.531,0,10.989,0.813,16.226,2.418
	c6.925,2.121,14.264-1.774,16.385-8.7c2.121-6.928-1.774-14.264-8.702-16.386c-7.728-2.368-15.772-3.568-23.911-3.568
	c-36.004,0-66.624,23.405-77.506,55.793c-3.685-6.234-8.246-11.891-13.527-16.785c15.909-35.739,51.43-59.188,91.035-59.188
	c39.61,0,75.14,23.44,91.059,59.165c-11.75,10.881-19.987,25.501-22.793,41.952c-23.383,3.665-41.326,23.949-41.326,48.346
	c0,26.982,21.953,48.935,48.936,48.935h131.189c26.982,0,48.936-21.953,48.936-48.935C512,363.303,505.704,350.298,495.715,341.332z
	 M42.053,325.501c0-117.971,95.977-213.948,213.948-213.948s213.948,95.977,213.948,213.948c0,0.084,0,0.168,0,0.252
	c-0.001-0.007-0.004-0.014-0.005-0.021c-0.314-1.402-0.676-2.786-1.067-4.157c-0.054-0.19-0.109-0.38-0.164-0.569
	c-0.819-2.781-1.792-5.495-2.918-8.132c-0.085-0.202-0.176-0.401-0.264-0.602c-0.491-1.12-1.006-2.225-1.548-3.316
	c-0.11-0.222-0.216-0.446-0.328-0.668c-0.613-1.2-1.254-2.384-1.928-3.545c-0.182-0.314-0.376-0.619-0.563-0.93
	c-0.487-0.809-0.985-1.608-1.501-2.397c-0.303-0.464-0.607-0.926-0.921-1.384c-0.447-0.652-0.91-1.292-1.377-1.928
	c-0.651-0.888-1.322-1.759-2.011-2.618c-0.328-0.408-0.652-0.82-0.989-1.221c-0.533-0.638-1.08-1.262-1.635-1.881
	c-0.234-0.261-0.472-0.518-0.711-0.775c-1.956-2.124-4.037-4.132-6.234-6.021c-0.129-0.11-0.257-0.22-0.386-0.329
	c-2.258-1.913-4.635-3.694-7.122-5.334c-0.198-0.13-0.395-0.262-0.594-0.391c-0.773-0.499-1.553-0.987-2.346-1.457
	c-0.283-0.169-0.573-0.328-0.858-0.492c-0.487-0.281-0.968-0.569-1.461-0.838c-22.736-78.622-94.656-133.013-177.014-133.013
	c-82.328,0-154.227,54.379-176.968,132.985c-0.514,0.281-1.014,0.581-1.52,0.872c-0.281,0.163-0.565,0.319-0.845,0.484
	c-0.794,0.472-1.576,0.96-2.35,1.46c-0.198,0.129-0.395,0.26-0.592,0.391c-2.489,1.64-4.864,3.42-7.122,5.334
	c-0.13,0.11-0.26,0.22-0.388,0.332c-2.196,1.888-4.275,3.896-6.231,6.019c-0.239,0.258-0.478,0.516-0.712,0.778
	c-0.554,0.619-1.101,1.242-1.633,1.88c-0.337,0.403-0.662,0.815-0.992,1.224c-0.687,0.857-1.358,1.725-2.007,2.612
	c-0.468,0.639-0.931,1.279-1.38,1.932c-0.312,0.457-0.617,0.917-0.92,1.381c-0.516,0.788-1.014,1.587-1.499,2.395
	c-0.188,0.312-0.383,0.619-0.565,0.934c-0.674,1.161-1.316,2.344-1.928,3.545c-0.112,0.22-0.218,0.443-0.328,0.665
	c-0.543,1.091-1.06,2.197-1.549,3.318c-0.088,0.201-0.177,0.399-0.264,0.601c-1.126,2.637-2.1,5.351-2.919,8.133
	c-0.055,0.189-0.11,0.378-0.164,0.568c-0.392,1.372-0.754,2.756-1.067,4.159c-0.001,0.007-0.004,0.014-0.005,0.021
	C42.053,325.669,42.053,325.585,42.053,325.501z M175.673,355.052h1.966c2.325,3.825,6.521,6.318,11.193,6.318
	c0.449,0,0.903-0.024,1.359-0.071c1.502-0.155,2.911-0.569,4.207-1.175c5.133,4.165,8.425,10.516,8.425,17.626
	c0,12.516-10.183,22.698-22.699,22.698H48.936c-12.516,0-22.699-10.183-22.699-22.698c0-9.302,5.629-17.306,13.656-20.809
	c0.181-0.079,0.365-0.151,0.547-0.226c0.459-0.186,0.925-0.357,1.398-0.513c0.176-0.058,0.349-0.121,0.525-0.174
	c0.621-0.188,1.25-0.353,1.89-0.487c0.147-0.031,0.295-0.051,0.442-0.08c0.527-0.1,1.06-0.182,1.599-0.245
	c0.194-0.022,0.39-0.045,0.585-0.063c0.678-0.062,1.362-0.104,2.054-0.104h4.452c7.244,0,13.119-5.873,13.119-13.119
	c0-0.758,0.022-1.513,0.058-2.263c0.013-0.265,0.033-0.527,0.05-0.792c0.03-0.48,0.066-0.958,0.109-1.434
	c0.03-0.32,0.064-0.64,0.101-0.959c0.046-0.411,0.1-0.819,0.156-1.227c0.049-0.346,0.097-0.691,0.153-1.035
	c0.06-0.373,0.13-0.741,0.198-1.11c0.068-0.361,0.13-0.723,0.206-1.081c0.068-0.325,0.15-0.645,0.224-0.968
	c0.171-0.731,0.357-1.456,0.56-2.176c0.081-0.287,0.159-0.575,0.245-0.859c0.118-0.391,0.247-0.779,0.375-1.166
	c0.098-0.298,0.198-0.596,0.302-0.889c0.13-0.369,0.266-0.736,0.405-1.102c0.123-0.321,0.251-0.642,0.379-0.96
	c0.135-0.332,0.269-0.663,0.411-0.99c0.172-0.399,0.354-0.792,0.537-1.185c0.113-0.243,0.22-0.488,0.337-0.728
	c0.316-0.649,0.643-1.291,0.987-1.923c0.024-0.045,0.051-0.088,0.075-0.133c0.336-0.615,0.685-1.221,1.047-1.82
	c0.049-0.081,0.1-0.161,0.15-0.243c0.358-0.584,0.727-1.161,1.109-1.728c0.028-0.041,0.054-0.08,0.081-0.119
	c5.149-7.592,12.414-13.635,20.939-17.282c0.278-0.119,0.56-0.227,0.84-0.341c0.457-0.185,0.913-0.373,1.376-0.543
	c0.272-0.101,0.546-0.189,0.819-0.285c0.487-0.171,0.973-0.342,1.468-0.497c0.198-0.063,0.4-0.114,0.6-0.174
	c0.572-0.171,1.145-0.341,1.726-0.492c0.071-0.018,0.143-0.033,0.214-0.05c3.773-0.956,7.722-1.468,11.788-1.468
	c0.017,0,0.035,0.001,0.052,0.001c1.063,0.001,2.119,0.05,3.171,0.119c0.294,0.02,0.588,0.042,0.88,0.067
	c0.968,0.083,1.932,0.188,2.89,0.328c0.135,0.02,0.272,0.035,0.407,0.056c0.979,0.151,1.948,0.344,2.912,0.555
	c0.34,0.075,0.678,0.154,1.015,0.235c0.836,0.202,1.665,0.425,2.487,0.673c0.341,0.102,0.678,0.21,1.017,0.32
	c0.76,0.247,1.511,0.514,2.258,0.799c0.377,0.144,0.753,0.291,1.124,0.445c0.803,0.331,1.599,0.678,2.385,1.053
	c0.362,0.173,0.718,0.357,1.074,0.539c0.631,0.32,1.257,0.655,1.875,1.004c0.352,0.199,0.704,0.397,1.051,0.605
	c0.794,0.475,1.578,0.972,2.347,1.496c12.712,8.649,21.079,23.23,21.079,39.731C162.555,349.179,168.429,355.052,175.673,355.052z
	 M369.372,273.178c-20.841-43.093-64.673-71.126-113.372-71.126c-48.691,0-92.512,28.038-113.343,71.139
	c-0.516-0.211-1.042-0.396-1.561-0.597c-0.268-0.102-0.534-0.207-0.804-0.307c-0.749-0.278-1.502-0.54-2.259-0.794
	c-0.329-0.11-0.659-0.218-0.989-0.324c-0.72-0.23-1.444-0.449-2.172-0.656c-0.383-0.109-0.769-0.213-1.154-0.316
	c-0.693-0.185-1.385-0.365-2.083-0.529c-0.439-0.104-0.882-0.198-1.325-0.294c-0.66-0.143-1.32-0.285-1.984-0.411
	c-0.5-0.094-1.006-0.174-1.51-0.258c-0.619-0.104-1.237-0.21-1.86-0.298c-0.575-0.081-1.154-0.143-1.732-0.211
	c-0.565-0.066-1.13-0.14-1.699-0.194c-0.677-0.064-1.362-0.104-2.044-0.148c-0.479-0.031-0.956-0.076-1.438-0.098
	c-0.085-0.004-0.171-0.007-0.256-0.01c23.04-55.043,77.365-92.055,138.211-92.055c60.846,0,115.173,37.011,138.213,92.055
	c-0.085,0.004-0.172,0.007-0.257,0.01c-0.476,0.022-0.948,0.066-1.423,0.097c-0.686,0.046-1.375,0.085-2.057,0.15
	c-0.564,0.052-1.126,0.127-1.688,0.193c-0.581,0.068-1.164,0.13-1.741,0.211c-0.62,0.087-1.236,0.194-1.852,0.296
	c-0.506,0.084-1.014,0.165-1.517,0.26c-0.662,0.125-1.32,0.266-1.978,0.409c-0.443,0.096-0.887,0.19-1.328,0.294
	c-0.697,0.164-1.389,0.344-2.081,0.529c-0.386,0.104-0.773,0.207-1.156,0.316c-0.727,0.207-1.451,0.426-2.171,0.656
	c-0.331,0.105-0.66,0.214-0.989,0.323c-0.758,0.253-1.511,0.517-2.26,0.794c-0.268,0.1-0.533,0.202-0.799,0.304
	C370.402,272.787,369.883,272.97,369.372,273.178z M463.064,400.449H331.874c-12.516,0-22.699-10.183-22.699-22.698
	s10.183-22.699,22.699-22.699h4.452c7.244,0,13.119-5.873,13.119-13.119c0-16.514,8.38-31.105,21.11-39.752
	c0.76-0.516,1.534-1.005,2.317-1.475c0.357-0.214,0.719-0.418,1.081-0.623c0.61-0.344,1.228-0.673,1.85-0.989
	c0.382-0.194,0.762-0.388,1.149-0.572c0.764-0.362,1.535-0.701,2.315-1.021c0.373-0.154,0.748-0.3,1.124-0.443
	c0.756-0.289,1.517-0.559,2.285-0.807c0.331-0.108,0.664-0.213,0.998-0.312c0.82-0.245,1.646-0.468,2.479-0.67
	c0.335-0.081,0.669-0.159,1.006-0.232c0.973-0.214,1.952-0.408,2.941-0.56c0.129-0.02,0.26-0.034,0.388-0.052
	c0.955-0.139,1.915-0.244,2.881-0.327c0.291-0.025,0.584-0.047,0.876-0.067c1.052-0.07,2.107-0.118,3.169-0.119
	c0.017,0,0.035-0.001,0.052-0.001c4.016,0,7.916,0.502,11.645,1.435c0.123,0.031,0.248,0.055,0.371,0.088
	c0.547,0.142,1.085,0.302,1.623,0.462c0.236,0.07,0.474,0.132,0.708,0.206c0.466,0.146,0.924,0.31,1.384,0.47
	c0.303,0.105,0.607,0.205,0.909,0.316c0.432,0.16,0.855,0.335,1.28,0.505c0.316,0.127,0.632,0.251,0.946,0.384
	c8.51,3.651,15.762,9.688,20.904,17.271c0.025,0.037,0.05,0.073,0.075,0.11c0.384,0.571,0.756,1.152,1.116,1.74
	c0.047,0.077,0.097,0.155,0.144,0.232c0.365,0.602,0.716,1.215,1.055,1.834c0.022,0.039,0.046,0.079,0.067,0.118
	c0.345,0.634,0.673,1.278,0.989,1.927c0.115,0.237,0.222,0.48,0.333,0.72c0.184,0.395,0.366,0.791,0.539,1.191
	c0.142,0.328,0.277,0.66,0.411,0.99c0.13,0.319,0.257,0.64,0.38,0.963c0.138,0.363,0.273,0.729,0.403,1.097
	c0.105,0.298,0.205,0.598,0.304,0.897c0.127,0.386,0.256,0.771,0.374,1.161c0.087,0.287,0.165,0.577,0.247,0.866
	c0.198,0.703,0.382,1.413,0.548,2.127c0.079,0.337,0.163,0.673,0.235,1.013c0.075,0.356,0.136,0.715,0.205,1.073
	c0.07,0.371,0.139,0.743,0.201,1.118c0.055,0.342,0.104,0.687,0.152,1.031c0.056,0.409,0.11,0.819,0.156,1.23
	c0.037,0.319,0.071,0.638,0.101,0.958c0.045,0.476,0.079,0.954,0.109,1.434c0.017,0.264,0.038,0.527,0.05,0.792
	c0.035,0.75,0.058,1.503,0.058,2.263c0,7.245,5.874,13.119,13.119,13.119h4.452c0.694,0,1.377,0.043,2.054,0.104
	c0.195,0.017,0.39,0.039,0.584,0.063c0.54,0.063,1.074,0.144,1.602,0.245c0.146,0.028,0.294,0.049,0.439,0.079
	c0.643,0.135,1.273,0.3,1.894,0.488c0.174,0.052,0.345,0.114,0.518,0.172c0.476,0.157,0.946,0.329,1.408,0.517
	c0.18,0.073,0.361,0.144,0.539,0.223c8.029,3.501,13.659,11.506,13.659,20.81C485.763,390.268,475.58,400.449,463.064,400.449z"/>
</svg>