<?xml version="1.0" encoding="iso-8859-1"?>
<!-- Uploaded to: SVG Repo, www.svgrepo.com, Generator: SVG Repo Mixer Tools -->
<svg height="800px" width="800px" version="1.1" id="Layer_1" xmlns="http://www.w3.org/2000/svg" xmlns:xlink="http://www.w3.org/1999/xlink" 
	 viewBox="0 0 512 512" xml:space="preserve">
<path style="fill:#FF728B;" d="M162.465,385.089c-10.172-16.623-16.042-36.152-16.042-57.028c0-60.423,49.157-109.58,109.58-109.58
	s109.58,49.157,109.58,109.58c0,20.875-5.87,40.404-16.042,57.028h130.613c4.627-18.242,7.094-37.347,7.094-57.028
	c0-127.712-103.531-231.244-231.244-231.244S24.76,200.348,24.76,328.061c0,19.681,2.467,38.785,7.094,57.028L162.465,385.089
	L162.465,385.089z"/>
<g>
	<path style="fill:#FF3F62;" d="M365.583,328.061c0-18.602-4.666-36.134-12.878-51.495c14.213-10.513,31.774-16.745,50.77-16.745
		c36.642,0,67.976,23.147,80.149,55.59c0,0,3.624,8.698,3.624,12.65c0,19.681-2.467,38.785-7.094,57.028H349.541
		C359.713,368.466,365.583,348.937,365.583,328.061z"/>
	<path style="fill:#FF3F62;" d="M146.423,328.061c0-18.602,4.666-36.134,12.878-51.495c-14.213-10.513-31.774-16.745-50.77-16.745
		c-36.642,0-67.976,23.147-80.149,55.59c0,0-3.624,8.698-3.624,12.65c0,19.681,2.467,38.785,7.094,57.028h130.613
		C152.293,368.466,146.423,348.937,146.423,328.061z"/>
</g>
<path style="fill:#FFEB99;" d="M162.465,385.089c-10.172-16.623-16.042-36.152-16.042-57.028c0-60.423,49.157-109.58,109.58-109.58
	s109.58,49.157,109.58,109.58c0,20.875-5.87,40.404-16.042,57.028h88.439c5.657-18.014,8.713-37.171,8.713-57.028
	c0-105.147-85.543-190.689-190.689-190.689s-190.69,85.543-190.69,190.689c0,19.858,3.055,39.013,8.713,57.028L162.465,385.089
	L162.465,385.089z"/>
<g>
	<path style="fill:#FFDA44;" d="M162.465,385.089c-10.172-16.623-16.042-36.152-16.042-57.028c0-18.602,4.665-36.134,12.878-51.495
		c-14.213-10.513-31.773-16.745-50.77-16.745c-11.692,0-22.838,2.365-32.999,6.63c-6.619,19.336-10.218,40.061-10.218,61.611
		c0,19.857,3.055,39.013,8.713,57.028h88.438V385.089z"/>
	<path style="fill:#FFDA44;" d="M349.541,385.089c10.172-16.623,16.042-36.152,16.042-57.028c0-18.602-4.665-36.134-12.878-51.495
		c14.213-10.513,31.774-16.745,50.77-16.745c11.692,0,22.838,2.365,32.999,6.63c6.62,19.336,10.218,40.061,10.218,61.611
		c0,19.857-3.055,39.013-8.713,57.028h-88.438V385.089z"/>
</g>
<path style="fill:#96C8EF;" d="M162.465,385.089c-10.172-16.623-16.042-36.152-16.042-57.028c0-60.423,49.157-109.58,109.58-109.58
	s109.58,49.157,109.58,109.58c0,20.875-5.87,40.404-16.042,57.028h45.335c7.251-17.593,11.262-36.849,11.262-57.028
	c0-82.784-67.351-150.135-150.135-150.135c-82.785,0-150.135,67.351-150.135,150.135c0,20.179,4.011,39.435,11.262,57.028
	L162.465,385.089L162.465,385.089z"/>
<g>
	<path style="fill:#3D9AE2;" d="M121.781,260.849c-10.173,20.234-15.913,43.064-15.913,67.212c0,20.179,4.011,39.435,11.262,57.028
		h45.335c-10.172-16.623-16.042-36.152-16.042-57.028c0-18.602,4.665-36.134,12.878-51.495
		C148.46,268.547,135.673,263.017,121.781,260.849z"/>
	<path style="fill:#3D9AE2;" d="M390.225,260.849c10.173,20.234,15.913,43.064,15.913,67.212c0,20.179-4.011,39.435-11.262,57.028
		h-45.335c10.172-16.623,16.042-36.152,16.042-57.028c0-18.602-4.665-36.134-12.878-51.495
		C363.546,268.547,376.334,263.017,390.225,260.849z"/>
</g>
<path style="fill:#D1E7F8;" d="M173.951,344.168c-3.575,0-7.023,0.533-10.278,1.517c0-0.099,0.007-0.198,0.007-0.297
	c0-30.458-24.692-55.15-55.15-55.15s-55.15,24.692-55.15,55.15c0,0.099,0.007,0.198,0.007,0.297
	c-3.253-0.982-6.703-1.517-10.278-1.517c-19.61,0-35.507,15.897-35.507,35.507S23.5,415.183,43.11,415.183h130.841
	c19.61,0,35.507-15.897,35.507-35.507C209.459,360.066,193.561,344.168,173.951,344.168z"/>
<path style="fill:#96C8EF;" d="M60.592,382.695c3.575,0,7.023,0.533,10.278,1.517c-0.001-0.099-0.007-0.198-0.007-0.297
	c0-30.458,24.692-55.151,55.15-55.151c14.547,0,27.77,5.641,37.624,14.844c-0.942-29.633-25.243-53.371-55.105-53.371
	c-30.458,0-55.15,24.692-55.15,55.151c0,0.099,0.007,0.198,0.007,0.297c-3.254-0.982-6.703-1.517-10.278-1.517
	c-19.61,0-35.507,15.897-35.507,35.507c0,13.357,7.378,24.985,18.278,31.046C29.317,394.705,43.549,382.695,60.592,382.695z"/>
<path style="fill:#97C7ED;" d="M185.832,394.722c-3.772,0-7.043-2.804-7.534-6.643c-1.438-11.274-10.372-11.605-11.402-11.605
	c-0.002,0-0.005,0-0.007,0c-4.198,0-7.602-3.401-7.604-7.599c-0.002-4.2,3.4-7.606,7.6-7.609c0.003,0,0.007,0,0.011,0
	c8.07,0,23.977,5.199,26.489,24.888c0.531,4.166-2.415,7.974-6.581,8.505C186.476,394.7,186.152,394.722,185.832,394.722z"/>
<path style="fill:#D1E7F8;" d="M468.889,344.168c-3.575,0-7.023,0.533-10.278,1.517c0-0.099,0.007-0.198,0.007-0.297
	c0-30.458-24.692-55.15-55.15-55.15c-30.458,0-55.15,24.692-55.15,55.15c0,0.099,0.007,0.198,0.007,0.297
	c-3.254-0.982-6.703-1.517-10.277-1.517c-19.61,0-35.507,15.897-35.507,35.507s15.897,35.507,35.507,35.507h130.841
	c19.61,0,35.507-15.897,35.507-35.507S488.499,344.168,468.889,344.168z"/>
<path style="fill:#96C8EF;" d="M355.53,382.695c3.575,0,7.023,0.533,10.277,1.517c-0.001-0.099-0.008-0.198-0.008-0.297
	c0-30.458,24.692-55.151,55.15-55.151c14.547,0,27.77,5.641,37.624,14.844c-0.942-29.633-25.243-53.371-55.105-53.371
	c-30.458,0-55.15,24.692-55.15,55.151c0,0.099,0.007,0.198,0.007,0.297c-3.254-0.982-6.703-1.517-10.277-1.517
	c-19.61,0-35.507,15.897-35.507,35.507c0,13.357,7.378,24.985,18.278,31.046C324.254,394.705,338.487,382.695,355.53,382.695z"/>
<path style="fill:#97C7ED;" d="M480.768,394.722c-3.771,0-7.043-2.804-7.533-6.643c-1.439-11.274-10.372-11.605-11.403-11.605
	c-0.004,0-0.006,0-0.007,0c-4.198,0-7.601-3.401-7.604-7.599c-0.003-4.2,3.4-7.606,7.599-7.609c0.004,0,0.008,0,0.012,0
	c8.07,0,23.977,5.199,26.488,24.888c0.531,4.166-2.415,7.974-6.58,8.505C481.414,394.7,481.089,394.722,480.768,394.722z"/>
<g>
	<polygon style="fill:#FFFFFF;" points="159.686,131.408 171.592,153.175 193.36,165.081 171.592,176.987 159.686,198.754 
		147.781,176.987 126.013,165.081 147.781,153.175 	"/>
	<polygon style="fill:#FFFFFF;" points="377.84,186.918 389.745,208.685 411.513,220.591 389.745,232.496 377.84,254.264 
		365.934,232.496 344.165,220.591 365.934,208.685 	"/>
</g>
<path d="M411.628,407.578h-14.701c-4.2,0-7.604,3.404-7.604,7.604s3.404,7.604,7.604,7.604h14.701c4.2,0,7.604-3.404,7.604-7.604
	S415.828,407.578,411.628,407.578z"/>
<path d="M54.202,214.807c1.232,0.747,2.592,1.103,3.936,1.103c2.57,0,5.078-1.304,6.509-3.661
	c4.527-7.463,9.548-14.741,14.922-21.63c2.583-3.311,1.993-8.09-1.317-10.672c-3.311-2.584-8.09-1.993-10.673,1.318
	c-5.739,7.356-11.101,15.127-15.935,23.097C49.466,207.952,50.611,212.628,54.202,214.807z"/>
<path d="M494.256,344.848c0.387-5.574,0.595-11.206,0.595-16.787c0-63.798-24.845-123.778-69.957-168.89
	c-45.112-45.113-105.092-69.957-168.891-69.957c-64.292,0-124.601,25.175-169.818,70.888c-2.953,2.986-2.927,7.8,0.059,10.753
	c2.987,2.953,7.801,2.926,10.753-0.059c16.338-16.518,34.789-30.158,54.738-40.699l-9.558,17.475l-19.814,10.836
	c-2.438,1.333-3.955,3.892-3.955,6.671s1.517,5.338,3.955,6.671l7.004,3.83c-39.654,33.003-65.164,80.369-70.557,131.58
	c-6.488,8.418-10.9,18.514-12.433,29.526c-1.086-0.082-8.358-1.256-13.801,1.183c-0.142-3.27-0.214-6.548-0.214-9.81
	c0-31.788,6.529-62.492,19.406-91.264c1.715-3.832-0.001-8.331-3.834-10.046c-3.833-1.716-8.332,0-10.047,3.834
	c-13.757,30.737-20.732,63.533-20.732,97.476c0,5.586,0.206,11.212,0.593,16.783C7.001,352.692,0,365.378,0,379.676
	c0,23.771,19.339,43.11,43.11,43.11c4.199,0,7.604-3.404,7.604-7.604s-3.405-7.604-7.604-7.604
	c-15.385,0-27.902-12.516-27.902-27.902s12.517-27.904,27.902-27.904c2.74,0,5.459,0.401,8.08,1.192
	c2.309,0.698,4.813,0.258,6.746-1.186c1.933-1.444,3.067-3.718,3.055-6.131c0-0.111-0.003-0.22-0.007-0.343
	c0.044-26.18,21.356-47.463,47.546-47.463c26.189,0,47.499,21.284,47.546,47.462c-0.004,0.114-0.007,0.228-0.007,0.344
	c-0.012,2.413,1.121,4.687,3.055,6.131s4.437,1.883,6.746,1.186c2.621-0.791,5.34-1.192,8.079-1.192
	c15.386,0,27.903,12.518,27.903,27.904s-12.517,27.902-27.903,27.902H83.644c-4.199,0-7.604,3.404-7.604,7.604
	s3.405,7.604,7.604,7.604h90.309c23.772,0,43.111-19.339,43.111-43.11c0-23.772-19.339-43.111-43.111-43.111
	c-1.092,0-2.181,0.042-3.267,0.124c-1.657-11.898-6.673-22.728-14.041-31.526c10.586-45.961,51.97-79.077,99.359-79.077
	c47.387,0,88.771,33.113,99.358,79.072c-7.371,8.798-12.389,19.631-14.047,31.531c-1.085-0.082-2.175-0.124-3.267-0.124
	c-23.771,0-43.11,19.339-43.11,43.111c0,23.771,19.339,43.11,43.11,43.11H468.89c23.771,0,43.11-19.339,43.11-43.11
	C512,365.38,505.001,352.695,494.256,344.848z M256.003,104.422c123.315,0,223.641,100.325,223.641,223.64
	c0,3.259-0.078,6.537-0.22,9.81c-3.373-0.851-7.666-1.68-13.803-1.183c-1.533-11.006-5.942-21.098-12.425-29.514
	c-5.079-48.284-27.761-92.949-63.926-125.827c-36.585-33.261-83.913-51.577-133.267-51.577c-27.624,0-54.339,5.606-79.449,16.633
	l-10.196-18.643c-0.778-1.421-1.978-2.517-3.389-3.195C191.776,111.377,223.337,104.422,256.003,104.422z M395.347,238.098
	l15.318-8.378c11.72,18.478,20.233,39.28,24.75,61.681c-8.386-4.981-18.022-8.062-28.318-8.652
	c-3.834-12.769-9.297-24.978-16.255-36.416L395.347,238.098z M386.096,225.824c-1.276,0.698-2.325,1.747-3.022,3.022l-5.234,9.57
	l-5.235-9.57c-0.698-1.276-1.747-2.325-3.022-3.022l-9.57-5.234l9.57-5.235c1.276-0.698,2.325-1.747,3.022-3.022l5.235-9.569
	l5.234,9.569c0.698,1.276,1.747,2.325,3.022,3.022l9.57,5.235L386.096,225.824z M151.429,159.847
	c1.275-0.698,2.325-1.747,3.022-3.022l5.235-9.569l5.234,9.569c0.698,1.276,1.747,2.325,3.022,3.022l9.57,5.234l-9.57,5.235
	c-1.275,0.698-2.325,1.747-3.022,3.022l-5.234,9.569l-5.235-9.569c-0.698-1.276-1.747-2.325-3.022-3.022l-9.57-5.235
	L151.429,159.847z M104.903,282.749c-10.277,0.589-19.896,3.659-28.272,8.624c8.654-42.144,32.169-80.353,66.374-107.269
	l10.009,18.299c0.813,1.487,2.086,2.625,3.582,3.292C132.572,225.201,114.206,251.752,104.903,282.749z M256.003,210.877
	c-51.63,0-97.076,34.203-112.022,82.767c-6.948-4.774-14.897-8.191-23.467-9.855c19.037-58.208,73.73-98.259,135.488-98.259
	c4.199,0,7.604-3.404,7.604-7.604c0-4.2-3.404-7.604-7.604-7.604c-31.39,0-61.13,9.354-86.158,25.704l7.349-13.438l19.814-10.837
	c2.438-1.333,3.955-3.892,3.955-6.671s-1.517-5.338-3.955-6.671l-4.077-2.229c20.142-7.432,41.299-11.204,63.071-11.204
	c43.142,0,82.931,14.802,114.324,39.83l-9.997,18.276l-4.852,2.654c-14.761-12.03-31.338-21.196-49.322-27.241
	c-3.973-1.335-8.292,0.804-9.631,4.785c-1.337,3.98,0.804,8.292,4.785,9.631c14.273,4.799,27.568,11.777,39.636,20.774l-0.429,0.234
	c-2.438,1.333-3.955,3.892-3.955,6.671s1.517,5.338,3.955,6.671l19.814,10.836l10.837,19.814c1.333,2.438,3.892,3.955,6.671,3.955
	c1.364,0,2.672-0.369,3.81-1.029c3.954,7.357,7.228,15.034,9.822,22.954c-8.563,1.665-16.505,5.078-23.448,9.85
	C353.077,245.079,307.633,210.877,256.003,210.877z M468.89,407.578H338.049c-15.386,0-27.902-12.517-27.902-27.902
	s12.517-27.904,27.902-27.904c2.739,0,5.459,0.401,8.08,1.192c2.314,0.699,4.825,0.254,6.761-1.197
	c1.934-1.453,3.063-3.739,3.04-6.157l-0.008-0.284c0.033-26.189,21.351-47.484,47.546-47.484c26.19,0,47.502,21.286,47.546,47.466
	c-0.004,0.125-0.007,0.25-0.007,0.377c0,2.406,1.139,4.67,3.07,6.104c1.932,1.435,4.428,1.87,6.732,1.174
	c2.621-0.791,5.339-1.192,8.079-1.192c15.386,0,27.902,12.518,27.902,27.903C496.791,395.06,484.275,407.578,468.89,407.578z"/>
</svg>