<?xml version="1.0" encoding="iso-8859-1"?>
<!-- Uploaded to: SVG Repo, www.svgrepo.com, Generator: SVG Repo Mixer Tools -->
<svg height="800px" width="800px" version="1.1" id="Layer_1" xmlns="http://www.w3.org/2000/svg" xmlns:xlink="http://www.w3.org/1999/xlink" 
	 viewBox="0 0 512 512" xml:space="preserve">
<path style="fill:#CFF09E;" d="M229.968,291.12c-13.135-8.8-22.428-23.018-24.547-39.717L142.094,0h227.811l-52.495,249.06
	c-1.434,16.955-10.28,31.63-23.187,40.942L229.968,291.12z"/>
<polygon style="fill:#CFF09E;" points="369.905,0 142.094,0 151.843,38.707 361.747,38.707 "/>
<path style="fill:#507C5C;" d="M289.978,289.489h-52.489c-10.037,0-18.173,8.136-18.173,18.173v21.269
	c0,3.309,2.682,5.991,5.991,5.991l0,0c6.018,0,10.554,5.471,9.438,11.385l-4.576,24.247c-1.99,10.546-2.992,21.254-2.992,31.987
	v91.477c0,9.93,8.05,17.982,17.982,17.982h37.15c9.93,0,17.982-8.05,17.982-17.982v-90.899c0-10.595-0.976-21.166-2.915-31.581
	l-4.703-25.252c-1.1-5.907,3.433-11.363,9.442-11.363h0.047c3.308,0,5.991-2.682,5.991-5.991v-21.269
	C308.151,297.626,300.015,289.489,289.978,289.489z"/>
<path style="opacity:0.38;fill:#507C5C;enable-background:new    ;" d="M289.978,289.489h-19.833
	c10.037,0,18.173,8.137,18.173,18.173v21.27c0,3.309-2.682,5.991-5.991,5.991h-0.047c-6.009,0-10.542,5.455-9.442,11.363
	l4.703,25.252c1.94,10.415,2.915,20.987,2.915,31.581v90.899c0,9.93-8.05,17.982-17.982,17.982h19.832
	c9.93,0,17.982-8.05,17.982-17.982V403.12c0-10.595-0.976-21.166-2.915-31.581l-4.703-25.252c-1.1-5.907,3.433-11.363,9.442-11.363
	h0.047c3.309,0,5.991-2.682,5.991-5.991v-21.27C308.151,297.626,300.015,289.489,289.978,289.489z"/>
<path style="fill:#CFF09E;" d="M305.17,38.707v84.805v25.616c0,8.053-6.589,14.642-14.642,14.642l0,0
	c-8.053,0-14.642-6.589-14.642-14.642v-25.616v-10.371V96.872c0-8.053-6.589-14.642-14.642-14.642l0,0
	c-8.053,0-14.642,6.589-14.642,14.642v16.269v10.371v67.516c0,8.053-6.589,14.642-14.642,14.642l0,0
	c-8.053,0-14.642-6.589-14.642-14.642V38.707H305.17z"/>
<path style="opacity:0.25;fill:#507C5C;enable-background:new    ;" d="M294.223,290.002c12.906-9.313,21.753-23.987,23.187-40.942
	L369.905,0h-25.744l-52.495,249.06c-1.434,16.955-10.28,31.63-23.187,40.942H294.223z"/>
</svg>