<svg xmlns="http://www.w3.org/2000/svg" xmlns:xlink="http://www.w3.org/1999/xlink" style="display:none">
  <symbol id="pen-pencil" viewBox="0 0 512 512">
    <rect x="164.145" y="80.588" style="fill:#CFF09E;" width="138.448" height="319.951"/>
<path style="fill:#507C5C;" d="M347.849,115.859h-31.369V80.581c0-7.662-6.212-13.875-13.875-13.875h-101.14V27.751h63.827v5.601
	c0,7.662,6.212,13.875,13.875,13.875c7.663,0,13.875-6.213,13.875-13.875V13.875C293.041,6.213,286.829,0,279.166,0h-91.577
	c-7.663,0-13.875,6.213-13.875,13.875v52.83h-9.564c-7.663,0-13.875,6.213-13.875,13.875v319.953c0,0.039,0.006,0.076,0.006,0.115
	c0.001,0.112,0.014,0.223,0.017,0.336c0.017,0.499,0.058,0.992,0.126,1.476c0.021,0.146,0.042,0.289,0.067,0.434
	c0.205,1.196,0.562,2.338,1.052,3.408c0.053,0.115,0.108,0.229,0.165,0.343c0.247,0.502,0.518,0.991,0.821,1.456
	c0.028,0.043,0.05,0.087,0.079,0.13c0.333,0.498,0.705,0.967,1.098,1.417c0.046,0.053,0.079,0.111,0.125,0.162l34.615,38.504
	c5.123,5.697,13.896,6.168,19.595,1.042c5.699-5.123,6.165-13.896,1.042-19.595l-13.8-15.352l76.192,0.001l-48.412,53.853
	c-0.067,0.074-0.122,0.154-0.186,0.23c-0.157,0.182-0.308,0.37-0.455,0.561c-0.136,0.175-0.271,0.35-0.397,0.53
	c-0.132,0.187-0.254,0.379-0.376,0.573c-0.122,0.194-0.244,0.387-0.355,0.586c-0.108,0.191-0.207,0.389-0.305,0.586
	c-0.104,0.208-0.21,0.415-0.302,0.627c-0.089,0.2-0.165,0.405-0.244,0.609c-0.083,0.216-0.166,0.433-0.239,0.651
	c-0.068,0.21-0.126,0.422-0.185,0.635c-0.061,0.223-0.123,0.447-0.173,0.673c-0.047,0.211-0.083,0.426-0.121,0.64
	c-0.042,0.237-0.08,0.473-0.108,0.712c-0.025,0.208-0.042,0.418-0.057,0.629c-0.018,0.251-0.033,0.502-0.037,0.753
	c-0.001,0.094-0.014,0.187-0.014,0.282v20.584c0,7.662,6.212,13.875,13.875,13.875c7.663,0,13.875-6.213,13.875-13.875v-15.263
	l65.671-73.049c0.047-0.053,0.082-0.114,0.129-0.166c0.391-0.448,0.76-0.914,1.093-1.41c0.031-0.047,0.055-0.096,0.086-0.143
	c0.301-0.462,0.569-0.945,0.813-1.442c0.057-0.117,0.115-0.232,0.169-0.351c0.49-1.068,0.845-2.208,1.05-3.402
	c0.025-0.146,0.046-0.29,0.067-0.437c0.068-0.486,0.111-0.977,0.126-1.475c0.004-0.112,0.017-0.223,0.017-0.336
	c0-0.039,0.006-0.078,0.006-0.117V143.61h17.494v126.266c0,7.662,6.212,13.875,13.875,13.875s13.875-6.213,13.875-13.875V129.734
	C361.724,122.072,355.512,115.859,347.849,115.859z M288.728,386.659H178.024V94.456h110.704v21.403h-55.352
	c-7.663,0-13.875,6.213-13.875,13.875s6.212,13.875,13.875,13.875h55.352V386.659z"/>
  </symbol>
  <symbol id="pen-tool-pen" viewBox="0 0 512.026 512.026">
    <rect x="33.297" y="89.208" transform="matrix(0.9638 -0.2666 0.2666 0.9638 -16.5745 72.327)" width="449.597" height="16"/>
<g>
	
		<rect x="7.002" y="128.068" transform="matrix(0.9638 -0.2666 0.2666 0.9638 -40.8627 15.6656)" style="fill:#507C5C;" width="60.528" height="60.528"/>
	
		<rect x="444.497" y="6.973" transform="matrix(0.9638 -0.2666 0.2666 0.9638 7.2557 127.9197)" style="fill:#507C5C;" width="60.528" height="60.528"/>
</g>
<g>
	<path style="fill:#CFF09E;" d="M255.695,106.226V445.25h-51.688c0,0,3.76-63.856-65.768-128.624L255.695,106.226z"/>
	<path style="fill:#CFF09E;" d="M255.695,106.226V445.25h51.672c0,0-3.76-63.856,65.768-128.624L255.695,106.226z"/>
</g>
<polygon style="fill:#507C5C;" points="337.079,512.026 174.311,512.026 180.759,445.25 330.639,445.25 "/>
<g>
	<ellipse style="fill:#FFFFFF;" cx="255.695" cy="330.106" rx="22.112" ry="21.912"/>
	<polygon style="fill:#FFFFFF;" points="259.703,349.65 251.703,349.65 251.703,254.57 271.391,235.05 271.391,127.226 
		279.391,127.226 279.391,238.378 259.703,257.898 	"/>
</g>
  </symbol>
  <symbol id="dropper-tools-and-utensils" viewBox="0 0 512 512">
    <polygon style="fill:#CFF09E;" points="198.89,362.27 110.21,357.24 105.18,268.56 281.104,92.637 374.815,186.348 "/>
<path style="fill:#507C5C;" d="M440.499,144.348l2.64-2.64c15.679-15.679,24.313-36.525,24.313-58.698s-8.634-43.019-24.313-58.698
	C427.46,8.633,406.613,0,384.441,0c-22.173,0-43.019,8.634-58.698,24.313l-2.64,2.64L310.24,14.09c-6.024-6.02-15.785-6.02-21.81,0
	l-42.936,42.936c-6.022,6.022-6.022,15.787,0,21.81l13.8,13.8L94.276,257.655c-3.107,3.107-4.741,7.391-4.492,11.779l4.788,84.428
	c-14.791,17.813-50.024,63.235-50.024,91.624c0,36.675,29.839,66.513,66.515,66.513c36.675,0,66.513-29.839,66.513-66.513
	c0-8.516-6.906-15.421-15.421-15.421c-8.516,0-15.421,6.906-15.421,15.421c0,19.67-16.003,35.671-35.671,35.671
	c-19.67,0-35.672-16.001-35.672-35.671c0-11.476,16.88-38.849,35.62-62.869c4.642,5.953,10.133,13.295,15.432,21.09
	c4.787,7.044,14.382,8.873,21.423,4.085c7.043-4.787,8.873-14.379,4.085-21.423c-2.79-4.105-5.609-8.065-8.34-11.79l54.405,3.086
	c0.291,0.017,0.583,0.025,0.874,0.025c4.077,0,8.002-1.618,10.903-4.517l165.023-165.017l13.801,13.801
	c3.012,3.01,6.958,4.517,10.904,4.517c3.946,0,7.893-1.507,10.904-4.517l42.936-42.936c6.022-6.022,6.022-15.787,0-21.81
	L440.499,144.348z M192.87,346.484l-68.042-3.86l-3.86-68.042l160.136-160.136l71.902,71.902L192.87,346.484z M399.521,189.242
	L278.21,67.931l21.126-21.126l62.018,62.018c6.024,6.02,15.785,6.02,21.81,0c6.022-6.022,6.022-15.787,0-21.81l-38.251-38.249
	l2.64-2.64c9.854-9.854,22.953-15.279,36.888-15.279c13.935,0,27.034,5.427,36.888,15.279c9.854,9.853,15.279,22.953,15.279,36.888
	s-5.427,27.033-15.279,36.888l-13.544,13.544c-3.012,3.012-4.517,6.958-4.517,10.904c0,3.946,1.505,7.894,4.517,10.904
	l12.864,12.864L399.521,189.242z"/>
  </symbol>
  <symbol id="pen-tool-2" viewBox="0 0 24 24">
    <path d="M12.5195 1.5H11.5195C10.6895 1.5 10.0195 2.17 10.0195 3V4C10.0195 4.83 10.6895 5.5 11.5195 5.5H12.5195C13.3495 5.5 14.0195 4.83 14.0195 4V3C14.0195 2.17 13.3495 1.5 12.5195 1.5Z" fill="#507C5C"/>
<path d="M4.26953 10.6699H3.26953C2.43953 10.6699 1.76953 11.3399 1.76953 12.1699V13.1699C1.76953 13.9999 2.43953 14.6699 3.26953 14.6699H4.26953C5.09953 14.6699 5.76953 13.9999 5.76953 13.1699V12.1699C5.76953 11.3399 5.08953 10.6699 4.26953 10.6699Z" fill="#507C5C"/>
<path d="M20.7305 10.6699H19.7305C18.9005 10.6699 18.2305 11.3399 18.2305 12.1699V13.1699C18.2305 13.9999 18.9005 14.6699 19.7305 14.6699H20.7305C21.5605 14.6699 22.2305 13.9999 22.2305 13.1699V12.1699C22.2305 11.3399 21.5605 10.6699 20.7305 10.6699Z" fill="#507C5C"/>
<path d="M3.75 11.9198C3.34 11.9198 3 11.5798 3 11.1698C3 6.89982 6.2 3.30984 10.44 2.80984C10.84 2.76984 11.22 3.05981 11.27 3.46981C11.32 3.87981 11.02 4.24983 10.61 4.29983C7.13 4.70983 4.5 7.65982 4.5 11.1698C4.5 11.5798 4.16 11.9198 3.75 11.9198Z" fill="#507C5C"/>
<path d="M20.249 11.9198C19.839 11.9198 19.499 11.5798 19.499 11.1698C19.499 7.67979 16.889 4.72981 13.429 4.30981C13.019 4.25981 12.729 3.88979 12.779 3.47979C12.829 3.06979 13.209 2.77982 13.619 2.82982C17.829 3.33982 21.009 6.9298 21.009 11.1798C20.999 11.5798 20.669 11.9198 20.249 11.9198Z" fill="#507C5C"/>
<path d="M13.2898 22.0101H10.7198C9.79983 22.0101 9.11982 21.2701 9.28982 20.4701L9.70983 18.6201H14.2998L14.7198 20.4701C14.9098 21.3201 14.2698 22.0101 13.2898 22.0101Z" fill="#507C5C"/>
<path opacity="0.4" d="M16.0698 17.0499L14.2998 18.6199H9.70981L7.93981 17.0499C6.90981 16.2099 6.90981 15.5599 7.68981 14.5699L10.8098 10.6299C11.0298 10.3599 11.2798 10.1699 11.5498 10.0799C11.8398 9.97988 12.1598 9.97988 12.4498 10.0799C12.7198 10.1799 12.9698 10.3599 13.1898 10.6299L16.3098 14.5699C17.0898 15.5599 17.0598 16.1799 16.0698 17.0499Z" fill="#507C5C"/>
  </symbol>
  <symbol id="magnet-magnet" viewBox="0 0 511.787 511.787">
    <g transform="translate(1 1)">
	<path style="fill:#FFE100;" d="M426.04,324.76c75.947-76.8,83.627-192.853,16.213-260.267S258.786,4.76,181.986,80.707l0,0
		L26.68,233.453l55.467,55.467l153.6-144.213c46.933-36.693,102.4-40.107,134.827-8.533c31.573,33.28,38.4,98.987,1.707,135.68
		l-162.133,153.6l55.467,55.467L426.04,324.76L426.04,324.76z"/>
	<path style="fill:#FFFFFF;" d="M182.84,80.707C258.786,4.76,374.84-2.92,442.253,63.64c-76.8-75.093-199.68-75.093-275.627,0l0,0
		L9.613,216.387l17.067,17.067L182.84,80.707L182.84,80.707z"/>
	<path style="fill:#FFE100;" d="M370.573,137.027L370.573,137.027l-0.853-0.853C369.72,136.173,369.72,137.027,370.573,137.027"/>
	<path style="fill:#FFA800;" d="M443.106,64.493L443.106,64.493c66.56,66.56,59.733,183.467-16.213,260.267l0,0l-161.28,156.16
		l17.067,17.067l160.427-156.16l0,0C519.053,265.027,519.053,141.293,443.106,64.493"/>
	<path style="fill:#FFE100;" d="M447.373,84.12L447.373,84.12c66.56,66.56,59.733,183.467-16.213,260.267l0,0l-161.28,156.16
		l5.12,5.12c6.827,6.827,17.067,6.827,23.893,0l149.333-144.213l0,0C523.32,284.653,523.32,160.92,447.373,84.12"/>
	<polygon style="fill:#63D3FD;" points="122.253,249.667 158.946,213.827 86.413,141.293 49.72,177.133 	"/>
	<polygon style="fill:#3DB9F9;" points="363.746,418.627 291.213,346.947 254.52,381.933 327.053,454.467 	"/>
	<polygon style="fill:#63D3FD;" points="346.68,406.68 286.946,348.653 252.813,382.787 309.986,442.52 	"/>
	<path d="M282.68,506.52c-2.56,0-4.267-0.853-5.973-2.56l-72.533-72.533c-1.707-1.707-2.56-3.413-2.56-5.973
		c0-2.56,0.853-4.267,2.56-5.973L364.6,263.32c33.28-33.28,33.28-87.04,0-120.32s-87.04-33.28-120.32,0L88.12,294.893
		c-3.413,3.413-8.533,3.413-11.947,0L3.64,222.36c-1.707-1.707-2.56-3.413-2.56-5.973c0-2.56,0.853-4.267,2.56-5.973L159.8,58.52
		c80.213-79.36,209.92-79.36,289.28,0s79.36,209.067,0.853,289.28l0,0l-161.28,156.16C286.946,505.667,284.386,506.52,282.68,506.52
		z M222.093,425.453l60.587,60.587l154.453-150.187l0,0c72.533-73.387,72.533-192-0.853-265.387
		c-72.533-72.533-191.147-72.533-264.533,0L21.56,216.387l60.587,60.587l149.333-145.92c40.107-40.107,104.96-40.107,145.067,0
		s40.107,104.96,0,145.067L222.093,425.453z M443.106,341.827L443.106,341.827L443.106,341.827z"/>
	<path d="M122.253,258.2c-2.56,0-4.267-0.853-5.973-2.56l-72.533-72.533c-1.707-1.707-2.56-3.413-2.56-5.973s0.853-4.267,2.56-5.973
		l36.693-35.84c3.413-3.413,8.533-3.413,11.947,0l72.533,72.533c1.707,1.707,2.56,3.413,2.56,5.973c0,2.56-0.853,4.267-2.56,5.973
		l-36.693,35.84C126.52,257.347,123.96,258.2,122.253,258.2z M61.666,177.133l60.587,60.587L147,213.827L86.413,153.24
		L61.666,177.133z"/>
	<path d="M327.053,463c-2.56,0-4.267-0.853-5.973-2.56l-72.533-72.533c-1.707-1.707-2.56-3.413-2.56-5.973
		c0-2.56,0.853-4.267,2.56-5.973l36.693-35.84c3.413-3.413,8.533-3.413,11.947,0l72.533,72.533c1.707,1.707,2.56,3.413,2.56,5.973
		c0,2.56-0.853,4.267-2.56,5.973l-36.693,35.84C331.32,462.147,328.76,463,327.053,463z M266.466,382.787l60.587,60.587
		L351.8,419.48l-60.587-60.587L266.466,382.787z"/>
</g>
  </symbol>
  <symbol id="paint-bucket-2" viewBox="0 0 512 512">
    <path style="fill:#CFF09E;" d="M262.083,136.266v107.885c0,19.44-15.76,35.2-35.2,35.2h-1.394
	c-17.613,0-32.205-12.936-34.792-29.826v43.576c0,19.44-15.76,35.2-35.2,35.2h-1.394c-19.44,0-35.2-15.76-35.2-35.2v-43.576
	c-2.587,16.89-17.179,29.826-34.792,29.826h-1.394c-19.44,0-35.2-15.76-35.2-35.2V136.266H47.2v329.067h417.6V136.266H262.083z"/>
<path style="fill:#507C5C;" d="M496,30.666h-80.8c-8.837,0-16,7.165-16,16s7.163,16,16,16H480v57.6H32v-57.6h271.2
	c8.837,0,16-7.165,16-16s-7.163-16-16-16H16c-8.837,0-16,7.165-16,16v84.293v5.307v5.922c0,44.301,11.315,86.003,31.2,122.384
	v200.762c0,8.835,7.163,16,16,16h417.6c8.837,0,16-7.165,16-16V264.57c19.885-36.379,31.2-78.083,31.2-122.384v-5.922v-5.307V46.666
	C512,37.83,504.837,30.666,496,30.666z M278.083,244.151v-91.885H448.8v103.83C409.749,321.943,337.949,366.188,256,366.188
	c-34.661,0-67.507-7.915-96.83-22.03c26.523-1.891,47.528-24.059,47.528-51.054v-1.382c5.859,2.346,12.211,3.632,18.792,3.632h1.394
	C255.115,295.351,278.083,272.383,278.083,244.151z M104.968,307.463c-4.459-4.078-8.746-8.339-12.864-12.762
	c3.733-0.6,7.354-1.602,10.8-2.981v1.382C102.902,298.089,103.632,302.903,104.968,307.463z M63.517,152.266h182.566v91.885
	c0,10.587-8.613,19.2-19.2,19.2h-1.394c-9.4,0-17.558-6.986-18.976-16.248c-1.267-8.267-8.686-14.171-17.03-13.53
	c-8.341,0.634-14.786,7.587-14.786,15.954v43.576c0,10.587-8.613,19.2-19.2,19.2h-1.394c-10.587,0-19.2-8.613-19.2-19.2v-43.576
	c0-8.366-6.443-15.318-14.786-15.954c-0.413-0.034-0.821-0.046-1.229-0.046c-0.048,0-0.093,0.006-0.141,0.006
	c-0.27,0.002-0.538,0.021-0.805,0.037c-0.222,0.013-0.446,0.022-0.666,0.045c-0.278,0.029-0.552,0.07-0.826,0.114
	c-0.206,0.032-0.414,0.062-0.619,0.101c-0.272,0.053-0.539,0.118-0.806,0.186c-0.203,0.051-0.406,0.101-0.606,0.16
	c-0.258,0.075-0.512,0.162-0.765,0.25c-0.205,0.07-0.408,0.142-0.608,0.222c-0.238,0.094-0.474,0.197-0.707,0.301
	c-0.208,0.094-0.413,0.19-0.616,0.293c-0.218,0.109-0.43,0.224-0.643,0.342c-0.21,0.118-0.416,0.24-0.621,0.368
	c-0.195,0.122-0.387,0.246-0.578,0.376c-0.21,0.142-0.414,0.293-0.618,0.446c-0.174,0.131-0.347,0.264-0.515,0.402
	c-0.205,0.168-0.403,0.346-0.6,0.523c-0.154,0.141-0.309,0.28-0.458,0.427c-0.197,0.194-0.386,0.395-0.573,0.598
	c-0.134,0.147-0.272,0.293-0.402,0.445c-0.186,0.218-0.36,0.445-0.534,0.672c-0.117,0.154-0.237,0.304-0.349,0.462
	c-0.171,0.242-0.328,0.491-0.486,0.742c-0.099,0.158-0.203,0.312-0.296,0.475c-0.152,0.264-0.29,0.536-0.427,0.81
	c-0.082,0.163-0.17,0.322-0.246,0.486c-0.133,0.288-0.248,0.584-0.363,0.882c-0.064,0.163-0.134,0.32-0.194,0.486
	c-0.115,0.328-0.211,0.666-0.306,1.003c-0.04,0.142-0.091,0.282-0.126,0.427c-0.122,0.486-0.224,0.982-0.302,1.488
	c-1.419,9.262-9.578,16.248-18.976,16.248h-1.394c-10.587,0-19.2-8.613-19.2-19.2v-91.885H63.517z M448.8,449.332H63.2V310.415
	c46.963,53.755,115.981,87.773,192.8,87.773s145.837-34.018,192.8-87.773V449.332z"/>
  </symbol>
  <symbol id="selection-rectangle" viewBox="0 0 64 64">
    <g>
	<g>
		<polyline fill="none" stroke="#000000" stroke-width="2" stroke-miterlimit="10" points="63,50 63,52 61,52 		"/>
		
			<line fill="none" stroke="#000000" stroke-width="2" stroke-miterlimit="10" stroke-dasharray="4,2" x1="59" y1="52" x2="4" y2="52"/>
		<polyline fill="none" stroke="#000000" stroke-width="2" stroke-miterlimit="10" points="3,52 1,52 1,50 		"/>
		
			<line fill="none" stroke="#000000" stroke-width="2" stroke-miterlimit="10" stroke-dasharray="4,2" x1="1" y1="48" x2="1" y2="15"/>
		<polyline fill="none" stroke="#000000" stroke-width="2" stroke-miterlimit="10" points="1,14 1,12 3,12 		"/>
		
			<line fill="none" stroke="#000000" stroke-width="2" stroke-miterlimit="10" stroke-dasharray="4,2" x1="5" y1="12" x2="60" y2="12"/>
		<polyline fill="none" stroke="#000000" stroke-width="2" stroke-miterlimit="10" points="61,12 63,12 63,14 		"/>
		
			<line fill="none" stroke="#000000" stroke-width="2" stroke-miterlimit="10" stroke-dasharray="4,2" x1="63" y1="16" x2="63" y2="49"/>
	</g>
</g>
  </symbol>
  <symbol id="stamp" viewBox="0 0 32 32">
    <style type="text/css">
	.isometric_acht{fill:#CFF09E;}
	.isometric_negen{fill:#507C5C;}
	.isometric_elf{fill:#CFF09E;}
	.isometric_twaalf{fill:#507C5C;}
	.st0{fill:#507C5C;}
	.st1{fill:#507C5C;}
	.st2{fill:#CFF09E;}
	.st3{fill:#507C5C;}
	.st4{fill:#507C5C;}
	.st5{fill:#CFF09E;}
	.st6{fill:#CFF09E;}
	.st7{fill:#507C5C;}
	.st8{fill:none;}
	.st9{fill:#CFF09E;}
	.st10{fill:#CFF09E;}
	.st11{fill:#507C5C;}
	.st12{fill:#507C5C;}
	.st13{fill:#507C5C;}
</style>
<g>
	<polygon class="isometric_negen" points="4,18.515 4,19.857 17.964,28 27,22.807 27,21.465 17.964,26.658 	"/>
	<polygon class="isometric_elf" points="13.421,11.968 4,16.062 17.964,24.204 27,19.011 	"/>
	<path class="isometric_twaalf" d="M27,19.011v2.454l-9.036,5.193L4,18.515v-2.454l13.964,8.143L27,19.011z M21,8.372
		c0,3.221-2.544,4.914-2.554,4.883c-0.028,0.308-0.198,0.559-0.452,0.755v3.18c0.086,1.856-4.047,1.85-3.994,0v-3.308l0,0
		c-0.204-0.203-0.323-0.452-0.313-0.749C13.632,13.095,10.946,11.804,11,8.05c0.038-2.629,2.424-4.686,5.227-4.597
		C18.83,3.535,21,5.483,21,8.372z"/>
	<path class="isometric_acht" d="M16.227,3.453C13.424,3.364,11.038,5.421,11,8.05c-0.054,3.754,2.632,5.045,2.687,5.083
		c-0.061,1.803,4.601,1.883,4.759,0.122C18.456,13.285,21,11.593,21,8.372C21,5.483,18.83,3.535,16.227,3.453z M16.077,6.357
		c-1.402,0-2.539-0.568-2.539-1.269s1.137-1.269,2.539-1.269c1.402,0,2.538,0.568,2.538,1.269S17.479,6.357,16.077,6.357z"/>
	<ellipse class="isometric_negen" cx="16.077" cy="5.088" rx="2.539" ry="1.269"/>
</g>
  </symbol>
  <symbol id="scraper" viewBox="0 0 512 512">
    <path style="fill:#CFF09E;" d="M229.968,291.12c-13.135-8.8-22.428-23.018-24.547-39.717L142.094,0h227.811l-52.495,249.06
	c-1.434,16.955-10.28,31.63-23.187,40.942L229.968,291.12z"/>
<polygon style="fill:#CFF09E;" points="369.905,0 142.094,0 151.843,38.707 361.747,38.707 "/>
<path style="fill:#507C5C;" d="M289.978,289.489h-52.489c-10.037,0-18.173,8.136-18.173,18.173v21.269
	c0,3.309,2.682,5.991,5.991,5.991l0,0c6.018,0,10.554,5.471,9.438,11.385l-4.576,24.247c-1.99,10.546-2.992,21.254-2.992,31.987
	v91.477c0,9.93,8.05,17.982,17.982,17.982h37.15c9.93,0,17.982-8.05,17.982-17.982v-90.899c0-10.595-0.976-21.166-2.915-31.581
	l-4.703-25.252c-1.1-5.907,3.433-11.363,9.442-11.363h0.047c3.308,0,5.991-2.682,5.991-5.991v-21.269
	C308.151,297.626,300.015,289.489,289.978,289.489z"/>
<path style="opacity:0.38;fill:#507C5C;enable-background:new    ;" d="M289.978,289.489h-19.833
	c10.037,0,18.173,8.137,18.173,18.173v21.27c0,3.309-2.682,5.991-5.991,5.991h-0.047c-6.009,0-10.542,5.455-9.442,11.363
	l4.703,25.252c1.94,10.415,2.915,20.987,2.915,31.581v90.899c0,9.93-8.05,17.982-17.982,17.982h19.832
	c9.93,0,17.982-8.05,17.982-17.982V403.12c0-10.595-0.976-21.166-2.915-31.581l-4.703-25.252c-1.1-5.907,3.433-11.363,9.442-11.363
	h0.047c3.309,0,5.991-2.682,5.991-5.991v-21.27C308.151,297.626,300.015,289.489,289.978,289.489z"/>
<path style="fill:#CFF09E;" d="M305.17,38.707v84.805v25.616c0,8.053-6.589,14.642-14.642,14.642l0,0
	c-8.053,0-14.642-6.589-14.642-14.642v-25.616v-10.371V96.872c0-8.053-6.589-14.642-14.642-14.642l0,0
	c-8.053,0-14.642,6.589-14.642,14.642v16.269v10.371v67.516c0,8.053-6.589,14.642-14.642,14.642l0,0
	c-8.053,0-14.642-6.589-14.642-14.642V38.707H305.17z"/>
<path style="opacity:0.25;fill:#507C5C;enable-background:new    ;" d="M294.223,290.002c12.906-9.313,21.753-23.987,23.187-40.942
	L369.905,0h-25.744l-52.495,249.06c-1.434,16.955-10.28,31.63-23.187,40.942H294.223z"/>
  </symbol>
  <symbol id="eraser-1" viewBox="0 0 512 512">
    <path style="fill:#CFF09E;" d="M437.385,244.312c17.404-17.404,17.404-45.622,0-63.025L318.858,62.76
	c-17.404-17.404-45.622-17.404-63.025,0L141.636,176.957l181.552,181.552L437.385,244.312z"/>
<g>
	<path style="fill:#507C5C;" d="M497.588,476.706h-37.455c-7.958,0-14.412-6.454-14.412-14.412s6.454-14.412,14.412-14.412h37.455
		c7.958,0,14.412,6.454,14.412,14.412S505.546,476.706,497.588,476.706z"/>
	<path style="fill:#507C5C;" d="M447.577,254.503c11.139-11.139,17.274-25.95,17.274-41.705c0-15.753-6.135-30.563-17.274-41.703
		L329.05,52.568c-11.139-11.139-25.95-17.274-41.703-17.274c-15.755,0-30.564,6.135-41.705,17.274L131.444,166.765
		c-2.702,2.704-4.221,6.369-4.221,10.191s1.519,7.487,4.221,10.191l171.361,171.361l-89.372,89.371h-71.915L37.629,343.991
		c-5.696-5.694-8.833-13.267-8.833-21.321c0-8.055,3.137-15.628,8.833-21.322l52.245-52.245c5.628-5.628,5.628-14.753,0-20.383
		c-5.629-5.626-14.752-5.626-20.383,0l-52.245,52.245c-22.995,22.995-22.995,60.411,0,83.406l108.111,108.113
		c0.091,0.091,0.19,0.167,0.282,0.255c0.248,0.235,0.494,0.47,0.758,0.687c0.114,0.094,0.236,0.174,0.353,0.264
		c0.257,0.199,0.513,0.398,0.783,0.579c0.094,0.062,0.193,0.114,0.288,0.174c0.303,0.193,0.608,0.383,0.925,0.553
		c0.066,0.036,0.137,0.063,0.203,0.098c0.35,0.182,0.706,0.355,1.074,0.507c0.045,0.019,0.091,0.032,0.134,0.049
		c0.389,0.157,0.785,0.303,1.19,0.427c0.048,0.014,0.098,0.023,0.146,0.037c0.399,0.117,0.804,0.223,1.218,0.306
		c0.114,0.023,0.231,0.033,0.346,0.053c0.347,0.061,0.696,0.121,1.052,0.157c0.476,0.048,0.956,0.072,1.438,0.072h83.858H390.95
		c7.958,0,14.412-6.454,14.412-14.412s-6.454-14.412-14.412-14.412H254.199l79.18-79.18L447.577,254.503z M266.025,72.951
		c5.694-5.696,13.267-8.833,21.322-8.833c8.053,0,15.627,3.137,21.321,8.833l118.526,118.526c5.696,5.694,8.833,13.267,8.833,21.321
		c0,8.055-3.137,15.628-8.833,21.322L323.188,338.128L162.017,176.957L266.025,72.951z"/>
	<path style="fill:#507C5C;" d="M331.714,436.542c-4.733,0-9.368-2.327-12.125-6.601c-4.315-6.69-2.389-15.608,4.298-19.923
		l40.506-26.13c6.689-4.316,15.606-2.391,19.923,4.298c4.315,6.69,2.389,15.608-4.298,19.923l-40.506,26.131
		C337.098,435.798,334.39,436.542,331.714,436.542z"/>
</g>
  </symbol>
  <symbol id="delete" viewBox="0 0 511.998 511.998">
    <polygon style="fill:#CFF09E;" points="178.652,462.067 110.276,462.067 82.918,106.177 178.652,106.177 "/>
<path style="fill:#507C5C;" d="M311.198,70.475c-8.484,0-15.365-6.88-15.365-15.365V30.73H189.232V55.11
	c0,8.484-6.88,15.365-15.365,15.365s-15.365-6.88-15.365-15.365V15.365C158.503,6.88,165.383,0,173.867,0h137.331
	c8.484,0,15.365,6.88,15.365,15.365V55.11C326.563,63.596,319.684,70.475,311.198,70.475z"/>
<path style="fill:#CFF09E;" d="M380.052,319.948l16.391-213.769H300.71v267.369C313.965,342.592,344.435,320.72,380.052,319.948z"/>
<g>
	<path style="fill:#507C5C;" d="M470.304,392.923c-8.484,0-15.365,6.88-15.365,15.365c0,40.242-32.741,72.983-72.983,72.983
		c-40.243,0-72.984-32.741-72.984-72.983c0-34.479,24.522-63.845,57.028-71.208c0.011-0.002,0.02-0.005,0.031-0.006
		c2.303-0.521,4.645-0.93,7.022-1.223c0.048-0.006,0.095-0.011,0.143-0.017c1.119-0.135,2.245-0.244,3.377-0.329
		c0.081-0.006,0.164-0.014,0.246-0.018c1.183-0.083,2.374-0.14,3.571-0.166c8.077-0.171,14.554-6.544,15.005-14.475l15.282-199.302
		h26.991c8.484,0,15.365-6.88,15.365-15.365s-6.88-15.365-15.365-15.365h-41.224h-95.735H178.652H82.918H41.695
		c-8.484,0-15.365,6.88-15.365,15.365s6.88,15.365,15.365,15.365h26.994l26.268,341.704c0.615,8.005,7.291,14.186,15.32,14.186
		h68.376h47.866c8.484,0,15.365-6.88,15.365-15.365c0-8.484-6.88-15.365-15.365-15.365h-32.501V121.542h91.327v248.965
		c-4.648,11.891-7.103,24.653-7.103,37.779c0,57.188,46.526,103.712,103.714,103.712s103.712-46.525,103.712-103.712
		C485.669,399.802,478.788,392.923,470.304,392.923z M316.075,121.542h63.782l-14.131,184.302c-0.069,0.011-0.137,0.026-0.206,0.035
		c-0.931,0.147-1.856,0.32-2.781,0.492c-0.273,0.052-0.545,0.103-0.817,0.158c-16.835,3.283-32.529,10.675-45.846,21.666V121.542
		H316.075z M163.287,446.703h-38.782L99.509,121.542h63.779v325.161H163.287z"/>
	<path style="fill:#507C5C;" d="M403.685,408.297l7.968-7.968c6-6,6-15.729,0-21.73c-6.001-5.998-15.727-5.998-21.73,0l-7.968,7.968
		l-7.968-7.968c-5.998-5.995-15.724-5.998-21.73,0c-6,6-6,15.729,0,21.73l7.968,7.968l-7.968,7.968c-6,6-6,15.729,0,21.73
		c3.001,2.999,6.933,4.5,10.864,4.5c3.932,0,7.864-1.501,10.864-4.5l7.968-7.968l7.968,7.968c3.001,2.999,6.933,4.5,10.864,4.5
		c3.932,0,7.864-1.501,10.864-4.5c6-6,6-15.729,0-21.73L403.685,408.297z"/>
</g>
  </symbol>
  <symbol id="undo-arrows" viewBox="0 0 512.002 512.002">
    <path style="fill:#5286FA;" d="M511.554,112.736c-1.837-9.235-9.055-16.452-18.288-18.29l-134.491-26.75
	c-12.604-2.5-24.862,5.681-27.373,18.288l-26.753,134.495c-1.837,9.233,2.07,18.665,9.899,23.895
	c3.914,2.615,8.423,3.923,12.933,3.923c4.508,0,9.018-1.308,12.931-3.923l46.718-31.217c4.19,49.592-13.44,99.25-49.357,135.164
	c-33.273,33.273-76.964,49.907-120.67,49.902c-43.693-0.003-87.402-16.639-120.667-49.902c-66.538-66.536-66.538-174.801,0-241.337
	c9.089-9.091,9.089-23.828,0-32.919c-9.089-9.091-23.828-9.091-32.919,0c-84.689,84.688-84.689,222.487,0,307.175
	c42.348,42.349,97.957,63.522,153.586,63.516c55.616-0.005,111.249-21.178,153.589-63.515
	c51.688-51.687,73.623-125.73,59.289-196.717l71.676-47.892C509.484,131.401,513.391,121.97,511.554,112.736z"/>
  </symbol>
  <symbol id="redo-arrows" viewBox="0 0 512 512">
    <path style="fill:#3D6DEB;" d="M415.566,74.014c-9.09,9.09-9.09,23.828,0,32.92c66.535,66.535,66.535,174.797,0,241.334
	c-32.233,32.231-75.086,49.982-120.667,49.982s-88.434-17.751-120.667-49.982c-54.706-54.707-64.422-137.619-29.165-202.356
	l16.626,83.596c2.204,11.077,11.927,18.741,22.805,18.741c1.505,0,3.032-0.147,4.564-0.452c12.61-2.508,20.797-14.762,18.29-27.371
	L180.63,86.071c-0.006-0.033-0.012-0.064-0.02-0.096l-0.008-0.042c-0.017-0.084-0.043-0.161-0.062-0.245
	c-0.14-0.669-0.301-1.333-0.5-1.989c-0.07-0.223-0.158-0.436-0.23-0.656c-0.169-0.503-0.34-1.004-0.543-1.496
	c-0.124-0.298-0.27-0.582-0.405-0.872c-0.183-0.396-0.36-0.793-0.568-1.179c-0.188-0.352-0.4-0.686-0.605-1.026
	c-0.186-0.307-0.36-0.621-0.562-0.922c-0.273-0.408-0.571-0.793-0.869-1.181c-0.164-0.217-0.317-0.441-0.49-0.652
	c-0.402-0.489-0.832-0.951-1.269-1.404c-0.093-0.096-0.171-0.2-0.267-0.295c-0.008-0.008-0.017-0.014-0.023-0.022
	c-0.548-0.543-1.117-1.061-1.713-1.547c-0.41-0.334-0.836-0.632-1.262-0.934c-0.185-0.13-0.36-0.276-0.548-0.402
	c-0.481-0.321-0.978-0.605-1.476-0.886c-0.155-0.088-0.303-0.188-0.461-0.273c-0.464-0.248-0.939-0.461-1.415-0.677
	c-0.216-0.098-0.424-0.208-0.642-0.298c-0.408-0.169-0.824-0.307-1.241-0.453c-0.306-0.107-0.608-0.227-0.919-0.321
	c-0.332-0.101-0.67-0.174-1.004-0.259c-0.407-0.104-0.809-0.216-1.22-0.298c-0.258-0.051-0.517-0.079-0.776-0.121
	c-0.489-0.081-0.981-0.164-1.477-0.214c-0.216-0.02-0.43-0.02-0.644-0.036c-0.535-0.037-1.068-0.076-1.608-0.076
	c-0.334,0-0.667,0.031-1.001,0.045c-0.416,0.019-0.83,0.019-1.249,0.061c-0.77,0.073-1.538,0.188-2.3,0.338
	c-0.008,0.002-0.016,0.002-0.022,0.003L18.741,94.393c-12.61,2.508-20.797,14.762-18.29,27.371s14.759,20.794,27.371,18.29
	l75.62-15.04c-43.984,82.191-31.37,186.931,37.872,256.172c41.025,41.025,95.568,63.618,153.585,63.618
	s112.56-22.593,153.585-63.618c84.687-84.687,84.687-222.484,0-307.171C439.394,64.923,424.655,64.923,415.566,74.014z"/>
  </symbol>
</svg>
