<?xml version="1.0" encoding="UTF-8" standalone="no"?>
<!-- Created with Inkscape (http://www.inkscape.org/) -->

<svg
   version="1.1"
   id="svg1"
   width="3040"
   height="2633.3333"
   viewBox="0 0 3040 2633.3333"
   sodipodi:docname="JEMA GER 1635-08.eps"
   xmlns:inkscape="http://www.inkscape.org/namespaces/inkscape"
   xmlns:sodipodi="http://sodipodi.sourceforge.net/DTD/sodipodi-0.dtd"
   xmlns="http://www.w3.org/2000/svg"
   xmlns:svg="http://www.w3.org/2000/svg">
  <defs
     id="defs1" />
  <sodipodi:namedview
     id="namedview1"
     pagecolor="#ffffff"
     bordercolor="#000000"
     borderopacity="0.25"
     inkscape:showpageshadow="2"
     inkscape:pageopacity="0.0"
     inkscape:pagecheckerboard="0"
     inkscape:deskcolor="#d1d1d1">
    <inkscape:page
       x="0"
       y="0"
       inkscape:label="1"
       id="page1"
       width="3040"
       height="2633.3333"
       margin="0"
       bleed="0" />
  </sodipodi:namedview>
  <g
     id="g1"
     inkscape:groupmode="layer"
     inkscape:label="1">
    <g
       id="group-R5">
      <path
         id="path2"
         d="m 19960.6,17897.2 c -559.3,126.5 -1491.6,-46.2 -1491.6,-46.2 -3856.8,-1458.3 -6303.7,-6231.3 -6680.6,-7007.5 -56.1,138.7 -102.6,242.8 -118.7,283.6 -50.8,128.7 244.8,40.8 194,590.6 -21.2,230.2 -139.5,349.2 -254.6,408.2 15.7,33 27.2,58.8 27.2,58.8 579.8,1752 988.1,2749.8 1105.5,2724 117.3,-25.8 284.5,-8 376.7,160.4 92.2,168.3 43.2,315.4 -57.4,325.7 -115.4,11.8 -288.5,-200.4 -288.5,-200.4 -379.3,-436.2 -971.6,-2214.9 -1198,-2979 -7.3,-24.4 -13.4,-45.9 -19,-65.8 -74.1,27.4 -139.9,32.1 -167.9,28.2 -30.5,4.2 -101.4,-5.5 -177.7,-38.9 -6.2,22.6 -13.4,47.8 -21.9,76.5 -226.5,764.1 -818.8,2542.8 -1198.08,2979 0,0 -173.13,212.2 -288.53,200.4 -100.55,-10.3 -149.59,-157.4 -57.38,-325.7 92.22,-168.4 259.37,-186.2 376.79,-160.4 117.4,25.8 525.6,-972 1105.4,-2724 0,0 14.5,-32.5 33.2,-71.4 -100.2,-58 -196.7,-160.6 -212.1,-332.2 -49.4,-549.9 209.1,-525.3 158.3,-654 -15.1,-38.5 -57.4,-133.4 -109.3,-260.4 -412.5,844.1 -2849.38,5540 -6669.23,6984.3 0,0 -932.31,172.7 -1491.57,46.2 -755.76,-171 -400.89,-1787.4 -213.99,-2287.5 186.91,-500.1 644.35,-2628.1 571.62,-2873.3 -307.79,-1037.8 -344.02,-2270.6 512.52,-3157.6 433.61,-449 2149.22,-482.3 3830.39,-390.3 C 6443.02,9049.3 5431.01,8878.8 5055.54,8694.3 4405.53,8374.8 3941.01,8179.9 3961.71,7202.4 c 13.54,-639 -88.55,-628.3 -145.05,-952.9 -56.5,-324.6 -304.91,-472.3 -53.73,-768.8 251.18,-296.5 467.54,-452.5 409.75,-756.9 -57.81,-304.4 -95.8,-916.9 135.94,-911 231.73,6 496.82,-506.8 561.27,-707.1 64.47,-200.3 235.81,-458.4 637.59,-690.5 401.79,-232.1 856.19,-79.2 1048.09,-256 191.91,-176.9 347.84,-374.9 931.65,-339.8 583.8,35.1 420.3,160 916.01,558.2 882.86,709.1 893.26,2413.5 1423.78,3145.9 520.39,718.6 1006.19,1497 1157.19,2128.6 3.7,15.4 6.2,30.3 9.5,45.5 169.1,-244.3 174.2,-284.4 167,-575.3 -3.9,-159.5 -108.5,-376.4 -212.9,-811.9 -104.4,-435.6 -151.7,-790.6 -60.8,-1219.6 41.5,-195.7 234.7,-939.3 500.7,-972.2 301.7,134.2 441.1,819.3 489.5,1013.7 61.5,246.9 163.2,682.3 58.8,1117.9 -104.5,435.5 -276.5,444.5 -188.9,872.1 64,312.2 56.7,327.9 90.9,433.3 174.7,-613.4 636.9,-1349.6 1131.2,-2032.1 530.5,-732.4 540.9,-2436.8 1423.8,-3145.9 495.7,-398.2 332.2,-523.1 916,-558.2 583.8,-35.1 739.7,162.9 931.6,339.8 191.9,176.8 646.3,23.9 1048.1,256 401.8,232.1 573.1,490.2 637.6,690.5 64.5,200.3 329.5,713.1 561.3,707.1 231.7,-5.9 193.7,606.6 135.9,911 -57.8,304.4 158.6,460.4 409.8,756.9 251.1,296.5 2.7,444.2 -53.8,768.8 -56.5,324.6 -158.6,313.9 -145,952.9 20.7,977.5 -443.8,1172.4 -1093.8,1491.9 -375.5,184.5 -1387.5,355 -2480.6,494.2 1681.1,-92 3396.7,-58.7 3830.3,390.3 856.6,887 820.4,2119.8 512.6,3157.6 -72.8,245.2 384.7,2373.2 571.6,2873.3 186.9,500.1 541.8,2116.5 -214,2287.5"
         style="fill:#f6b51c;fill-opacity:1;fill-rule:nonzero;stroke:none"
         transform="matrix(0.13333333,0,0,-0.13333333,0,2633.3333)" />
      <path
         id="path3"
         d="m 15319.5,9137.3 c 303.7,-187.5 810.6,-493.8 1187.7,-687.9 77.1,-39.7 151.9,-72.4 224.6,-101 -206.9,-140.8 -413.1,-282.4 -616,-429.5 -119.4,-87 -239.9,-172.1 -342.1,-279.8 -390.3,179.8 -1000.9,261.8 -1657.5,291.4 -234.8,37 -477.1,76.8 -500.4,86.9 -46.4,20 263.7,7.1 445.2,0.3 181.4,-6.9 -629.8,115.5 -1017.3,114.1 -387.6,-1.4 265.2,164.4 454.6,231.8 189.3,67.3 -284.5,0.6 -583.4,0 -298.8,-0.6 747.2,245.1 1086.9,379.2 339.6,134.2 -679.3,-202 -706.5,-113.4 -19.7,64.5 1028.4,330.9 1601.5,471.4 139.9,17.2 281,28.9 422.7,36.5 z m 2392,-1298.9 c 84.3,-191.4 93.4,-371.9 92.5,-557 -492.3,55.5 -1443.3,158.9 -1854.1,178 -50.1,59.3 -104.3,115.2 -161.2,167.4 211.6,215.9 497.7,354.1 762.1,496.6 112.6,57.6 226.6,113.1 341.3,167.2 390.3,-129.4 690.3,-159.1 819.4,-452.2 z m 126.2,-1144.1 c 90.7,-420.2 292.6,-557 183.5,-802.5 -51.9,-116.8 -154.9,-224.2 -244.7,-339.6 -260.5,268.7 -1197.5,869.3 -1512.3,1068.1 -1.2,27.5 -2.8,54.9 -2.9,82.6 -4.7,229.7 -85.7,438.5 -208.7,621.1 301.1,-36.3 1315,-167.3 1751.4,-338.3 3.2,-93.7 11.9,-190.2 33.7,-291.4 z M 14523.1,3135.6 c -6.3,40.8 -17.8,85.7 -32.2,126.4 -51.4,145.3 -176.7,496.7 -298.9,822.9 -122.3,326.2 -475.5,1358.4 -693.7,1758 -218.3,399.6 -216.6,401.9 -542.6,716.8 -326.1,315 -489.1,473.1 -488.6,495.1 0.6,22 488.6,-280.1 719.5,-345.6 105.1,-29.7 -34.5,86.7 -217.7,222.4 135.3,-74.3 272.2,-149.4 399.4,-228.8 90.4,-58.8 176.4,-123.8 259.6,-192.5 85.7,-288.9 615.5,-1632 760.3,-2010.4 127,-331.7 358.2,-1128.9 443.3,-1426.1 -138.8,-25 -207.8,-40.4 -308.4,61.8 z M 9325.15,6874.8 c -303.63,-177.3 -554.94,-415.6 -801.86,-658.2 -174.11,-174.9 -355.5,-371.6 -525.24,-550.9 -163.86,-181.6 -349.04,-309.4 -572.36,-410.6 -187.86,-84.6 -622.75,-238.1 -732.57,-5.7 -49.52,125.8 -38.44,295.8 -28.7,438.8 21.08,325.1 98.97,662.2 71.7,1021 -35.4,300.1 174.79,662.5 322.64,863 386.18,175.2 992.37,254.6 1644.03,282.9 545.83,-7.9 1348.71,-27.6 1231.53,-73.8 -175.33,-69.2 -705.17,-292.9 -555.73,-235.4 149.44,57.5 713.31,64.7 567.24,0 -146.09,-64.8 -769.3,-254.2 -647.89,-261.4 121.41,-7.2 1072.36,264.5 868.66,183 -167.27,-66.9 -500.85,-344.5 -516.06,-424.4 -108.79,-54.7 -217.34,-110.3 -325.39,-168.3 z m -1360.4,-3801 c 85.04,297.3 316.25,1094.4 443.21,1426.1 144.83,378.4 674.66,1721.6 760.28,2010.4 83.26,68.7 169.28,133.7 259.7,192.5 127.1,79.4 264,154.5 399.34,228.8 -183.22,-135.7 -322.8,-252.1 -217.74,-222.4 230.96,65.5 718.96,367.6 719.56,345.6 0.5,-22 -162.5,-180.1 -488.6,-495.1 -326.05,-314.9 -324.33,-317.2 -542.56,-716.8 -218.23,-399.6 -571.46,-1431.8 -693.73,-1758 -122.26,-326.2 -247.5,-677.6 -298.87,-822.9 -14.41,-40.7 -25.89,-85.6 -32.23,-126.4 -100.56,-102.2 -169.66,-86.8 -308.36,-61.8 z m -1251.14,711 c -149.95,-383.2 46.44,-655.8 -118.49,-772.8 -228.48,-4 -579.74,142.1 -760.72,310.2 -107.22,99.6 -153.84,193.7 -189.5,312.7 88.14,244.1 306.22,798.3 518.68,949.1 191.87,136.2 385.61,274.5 485.33,345.8 262.84,-136.1 622.84,-43.8 926.86,107.5 -197.07,-253.3 -738.7,-937 -862.16,-1252.5 z m -1538.26,1466 c 218.82,285.5 708.24,864.6 1350.05,1264.1 -25.05,-268.9 -88.42,-528.7 -116.65,-803.5 -12.86,-163.9 -29.91,-349.2 21.82,-512.3 -65.33,-124.5 -168.85,-275.6 -326.89,-397.3 -260.23,-200.4 -697.04,-439.4 -868.05,-530.5 -30.36,14.7 -59.61,29.7 -86.25,47.5 -138.64,92.7 -7.72,475.7 31.2,799.9 5.58,46.4 2.79,90.1 -5.23,132.1 z M 7622.56,3031.2 c -37.43,-24 -78.64,-56.1 -127.25,-98.6 -199.79,-174.8 -311.89,-214.8 -470.62,-103.4 -37.07,26 -67.69,50 -95.92,71.5 -34.51,175.5 -86.07,568.8 61.44,879.4 176.4,371.5 653.24,1164.3 772.08,1360.9 87.44,54.1 165.8,110.3 229.83,163.2 306.47,296 582.12,638.8 887.2,942.4 29.67,-117.8 39.57,-335.4 -102.68,-684.4 -234.45,-575 -1146.42,-2339.3 -1154.08,-2531 z M 6743.64,7324 c -134.2,-200.4 -217.77,-432.5 -209.47,-683.1 -0.28,-6.7 -0.99,-13.3 -1.33,-20.1 -313.86,-198.1 -1252.35,-799.6 -1513.2,-1068.6 -89.71,115.4 -192.75,222.8 -244.68,339.6 -109.11,245.5 92.83,382.3 183.52,802.5 21.84,101.2 30.52,197.7 33.72,291.4 436.38,171 1450.29,302.1 1751.44,338.3 z m -1658.98,514.4 c 129.25,293.4 429.77,322.9 820.7,452.6 258.82,-120.7 512.52,-252.6 756.84,-399.3 121.56,-79.3 249.22,-157.8 346.94,-263.6 -57.9,-52.2 -112.63,-108.7 -163.23,-168.7 -411,-19.1 -1361.54,-122.5 -1853.7,-178 -0.87,185.1 8.15,365.6 92.45,557 z m 2391.98,1298.9 c 141.71,-7.6 282.8,-19.3 422.75,-36.5 573.13,-140.5 1621.24,-406.9 1601.47,-471.4 -27.17,-88.6 -1046.08,247.6 -706.44,113.4 339.64,-134.1 1385.68,-379.8 1086.84,-379.2 -298.89,0.6 -772.66,67.3 -583.32,0 189.33,-67.4 842.16,-233.2 454.59,-231.8 -387.52,1.4 -1198.76,-121 -1017.3,-114.1 181.46,6.8 491.56,19.7 445.19,-0.3 -24.31,-10.5 -286.19,-53.3 -529.79,-91.5 -197.31,-9.5 -394.47,-23.2 -591.32,-43.4 -351.56,-43.5 -713.12,-86 -1035.76,-245.2 -217.12,219.8 -487.42,375.5 -735.05,558 -74.51,51.5 -149.15,102.4 -223.84,153.2 72.54,28.5 147.33,61.3 224.38,100.9 377.05,194.1 883.98,500.4 1187.6,687.9 z m 9052.06,619.84 c 13.6,60.67 -230.8,-7.24 -652,-88.74 -421.3,-81.5 -638.6,65.3 -991.9,-62.5 -353.2,-127.7 -624.9,-127.7 -978.1,-290.8 -353.2,-163 -1331.8,-539.5 -1548.8,-615.8 -76.4,-26.8 -159.4,-60.6 -238,-95.6 210.9,194 485.8,453.6 672.8,575.6 312.4,203.8 611.3,298.9 923.8,461.9 312.4,163.02 -298.9,-13.6 -557,-163.6 -258.1,-150 760.8,761.4 1059.6,1070.4 298.9,309 788,506.1 1209.2,724.7 421.1,218.7 516.2,229.7 869.4,297.6 353.3,68 475.5,163.1 972.8,244.6 497.3,81.5 114.1,-68 17.2,-217.4 -96.9,-149.4 -446.5,-326 -759,-502.6 -312.5,-176.7 964.6,108.6 1361.2,177.8 396.6,69.2 -233.6,-232.2 -362,-329.3 -128.4,-97.2 400.1,178.6 602.3,205.8 202.3,27.2 -351.6,-244.5 -388,-404.1 -25.2,-110.6 291.6,27.3 488.6,122.3 -57.8,-50.7 -126.2,-148.4 -100.6,-319.4 42.3,-281.9 151.8,-360.4 -66,-511.3 -217.7,-150.97 -258.5,-109.75 -693.2,-279.8 -434.7,-170 -923.8,-102.1 -1154.8,-142.9 -230.9,-40.7 298.9,82.5 312.5,143.14 z m -245.2,5651.56 c 0.8,0.4 1.6,0.6 2.4,0.9 43.8,-164.5 127.5,-424.9 134.4,-716.5 4,-168.4 -26.8,-391.4 -68.2,-609.3 -76.1,-136.4 -120.5,-397.5 -128.3,-564.2 -33.9,-130.3 -58.4,-214.5 -58.4,-214.5 v 0 c -46.6,-64.8 -92.7,-131.5 -137.6,-198.9 -199.7,-246.6 -485.4,-602.7 -613.1,-802.2 -217.4,-339.7 -1426.5,-1222.7 -1956.3,-1671.1 -529.9,-448.3 -1114.1,-1032.5 -1345,-1222.7 -31.3,-25.8 -55.1,-43.5 -73.3,-55 8.6,44.1 16.5,89.3 22.9,136 41.4,71.4 98,163.1 159.1,265.7 190.2,319.5 285.3,373.4 597.7,678.7 312.5,305.4 366.8,428.3 665.7,618.5 298.9,190.2 -529.8,-163 -326,155.3 203.8,318.3 638.5,591.9 1018.9,1015.6 380.4,423.8 -652.1,-518.8 -1059.7,-858.4 -407.5,-339.7 312.5,557 760.8,1154.7 448.3,597.8 624.9,625 964.6,1046.1 339.6,421.2 -720,-584.2 -855.9,-597.7 -135.9,-13.6 679.3,828.7 1098.6,1426.4 406.2,579 1150.2,987.5 1196.7,1012.6 z m 285.9,-1163.5 c -72.4,-87.6 181.2,449.8 271.8,667.2 90.5,217.4 -126.8,-154 -174.7,-217.4 -47.8,-63.4 56.9,498.2 319.6,728.4 258.1,226.3 945.8,8 969.6,0.4 51.7,-37 80.5,-75.9 81.2,-112 0.4,-18.9 -6.7,-42.1 -19,-68.4 48.7,232 -815,-739.1 -1040.9,-937.8 -226.4,-199.3 126.8,181.1 165.3,353.2 38.4,172.1 -473.2,-679.3 -627.2,-742.7 -154,-63.4 163,335.1 271.7,581.2 108.7,246 -144.9,-164.6 -217.4,-252.1 z m 1965.3,-1411.4 c -154.1,-95.1 -185.6,-40.8 -404.5,-40.8 -218.9,0 -338.1,-54.3 -602.3,-122.2 -137.7,-35.4 -306.6,-67 -422.1,-90.2 -43.3,-26 -82.4,-40.8 -115.2,-38.8 -52.1,3.2 9,17.4 115.2,38.8 100.1,60 223.3,180.1 346.3,294 176.2,163 -678.9,-217.4 -923.4,-217.4 -244.6,0 217.4,176.6 304.3,271.7 87,95.1 -467.3,-149.5 -791.2,-326.1 -323.8,-176.6 -29.4,54.4 174.4,380.4 203.8,326.1 638.5,625.5 1054.3,875.1 415.8,249.6 588.3,428.9 793.7,510.7 205.5,81.7 -353.6,-502.7 -536.3,-736.3 -182.8,-233.5 495.2,260.8 760.9,342.3 265.7,81.5 -279.3,-271.7 -455.3,-489.1 -176,-217.4 366.2,244.5 672.6,244.5 306.3,0 89.9,-244.5 89.9,-244.5 0,0 -124.6,-95.1 -135.7,-244.5 -11.1,-149.5 228.5,-312.5 74.4,-407.6 z M 4731.96,10036.7 c -217.76,150.9 -108.3,229.4 -66,511.3 25.66,171 -42.76,268.7 -100.58,319.4 197.02,-95 513.86,-232.9 488.65,-122.3 -36.39,159.6 -590.31,431.3 -388.07,404.1 202.24,-27.2 730.78,-303 602.37,-205.8 -128.42,97.1 -758.63,398.5 -362.01,329.3 396.62,-69.2 1673.65,-354.5 1361.19,-177.8 -312.47,176.6 -662.13,353.2 -759.01,502.6 -96.88,149.4 -480.07,298.9 17.19,217.4 497.28,-81.5 619.55,-176.6 972.78,-244.6 353.21,-67.9 448.32,-78.9 869.47,-297.6 421.15,-218.6 910.22,-415.7 1209.11,-724.7 298.88,-309 1317.8,-1220.4 1059.67,-1070.4 -258.13,150 -869.48,326.62 -557.01,163.6 312.47,-163 611.35,-258.1 923.79,-461.9 187,-122 461.9,-381.6 672.8,-575.6 -78.6,35 -161.6,68.8 -238,95.6 -217.1,76.3 -1195.56,452.8 -1548.79,615.8 -353.22,163.1 -624.93,163.1 -978.15,290.8 -353.23,127.8 -570.6,-19 -991.84,62.5 -421.24,81.5 -665.6,149.41 -652.01,88.74 13.58,-60.64 543.42,-183.84 312.46,-143.14 -230.95,40.8 -720.03,-27.1 -1154.77,142.9 -434.74,170.05 -475.49,128.83 -693.24,279.8 z m 3220.15,3530.7 c 339.64,-421.1 516.26,-448.3 964.58,-1046.1 448.32,-597.7 1168.31,-1494.4 760.78,-1154.7 -407.57,339.6 -1440.06,1282.2 -1059.67,858.4 380.4,-423.7 815.13,-697.3 1018.92,-1015.6 203.78,-318.3 -624.93,34.9 -326.06,-155.3 298.88,-190.2 353.23,-313.1 665.7,-618.5 312.44,-305.3 407.54,-359.2 597.74,-678.7 48.1,-80.8 93.6,-155 131,-217.8 5.4,-56.4 12.9,-110.9 21.6,-163.4 -12.9,9.6 -27.1,20.7 -43.9,34.5 -230.9,190.2 -815.13,774.4 -1344.96,1222.7 -529.84,448.4 -1738.95,1331.4 -1956.32,1671.1 -127.71,199.5 -413.48,555.6 -613.15,802.2 -44.91,67.4 -90.96,134.1 -137.55,198.9 v 0 c 0,0 -24.56,84.2 -58.39,214.5 -7.85,166.7 -52.23,427.8 -128.34,564.2 -41.4,217.9 -72.19,440.9 -68.19,609.3 6.94,291.6 90.58,552 134.37,716.5 0.82,-0.3 1.62,-0.5 2.44,-0.9 46.46,-25.1 790.54,-433.6 1196.67,-1012.6 419.35,-597.7 1234.47,-1440 1098.62,-1426.4 -135.85,13.5 -1195.53,1018.9 -855.89,597.7 z m -2141.98,1856 c 262.65,-230.2 367.35,-791.8 319.53,-728.4 -47.83,63.4 -265.19,434.8 -174.62,217.4 90.57,-217.4 344.17,-754.8 271.71,-667.2 -72.45,87.5 -326.05,498.1 -217.37,252.1 108.69,-246.1 425.68,-644.6 271.71,-581.2 -153.96,63.4 -665.61,914.8 -627.16,742.7 38.46,-172.1 391.68,-552.5 165.26,-353.2 -225.86,198.7 -1089.68,1169.9 -1040.92,937.7 -12.3,26.4 -19.4,49.6 -19.02,68.5 0.75,36.1 29.57,75 81.2,112 23.54,7.5 711.53,225.9 969.68,-0.4 z M 4200.2,13485.9 c 0,0 -216.41,244.5 89.94,244.5 306.35,0 848.58,-461.9 672.56,-244.5 -176.02,217.4 -721.02,570.6 -455.32,489.1 265.72,-81.5 943.7,-575.8 760.95,-342.3 -182.76,233.6 -741.85,818 -536.37,736.3 205.47,-81.8 377.97,-261.1 793.73,-510.7 415.77,-249.6 850.5,-549 1054.28,-875.1 203.79,-326 498.25,-557 174.41,-380.4 -323.85,176.6 -878.2,421.2 -791.22,326.1 86.98,-95.1 548.89,-271.7 304.35,-271.7 -244.54,0 -1099.61,380.4 -923.41,217.4 123.02,-113.9 246.15,-234 346.31,-294 106.23,-21.4 167.27,-35.6 115.19,-38.8 -32.81,-2 -71.88,12.8 -115.19,38.8 -115.47,23.2 -284.44,54.8 -422.08,90.2 -264.28,67.9 -383.46,122.2 -602.37,122.2 -218.92,0 -250.41,-54.3 -404.47,40.8 -154.08,95.1 85.52,258.1 74.4,407.6 -11.12,149.4 -135.69,244.5 -135.69,244.5 z M 16632.6,4584 c 212.5,-150.8 430.6,-705 518.7,-949.1 -35.7,-119 -82.3,-213.1 -189.5,-312.7 -181,-168.1 -532.3,-314.2 -760.7,-310.2 -165,117 31.4,389.6 -118.5,772.8 -123.5,315.6 -665.2,999.4 -862.2,1252.6 304.1,-151.2 664.6,-243.8 927,-107.7 99.8,-71.3 293.4,-209.6 485.2,-345.7 z m -2613,978.2 c -142.3,348.9 -132.4,566.6 -102.7,684.3 305.1,-303.5 580.8,-646.4 887.2,-942.3 63.9,-52.9 142.2,-109.1 229.8,-163.2 118.9,-196.7 595.7,-989.5 772.1,-1360.9 147.5,-310.6 95.9,-703.9 61.4,-879.4 -28.2,-21.5 -58.8,-45.5 -95.9,-71.5 -158.7,-111.4 -270.8,-71.4 -470.6,103.4 -48.6,42.5 -89.8,74.6 -127.3,98.6 v 0 c -7.6,191.7 -919.6,1956 -1154,2531 z m 3596,-443.5 c 38.9,-324.2 169.8,-707.2 31.2,-799.9 -26.6,-17.8 -55.9,-32.8 -86.2,-47.5 -171,91.1 -607.9,330.1 -868.1,530.5 -158,121.7 -261.5,272.8 -326.9,397.3 51.8,163.1 34.8,348.4 21.8,512.3 -27.6,274.2 -91.7,534.9 -116,803 641.5,-399.4 1130.7,-978.2 1349.4,-1263.6 -8,-42 -10.8,-85.7 -5.2,-132.1 z m -1483.8,569.5 c 9.6,-143 20.7,-312.7 -28.7,-438.8 -110.9,-232 -542.6,-79.7 -732.6,5.7 -223.2,101.1 -408.6,229 -572.4,410.6 -169.5,178.8 -351.4,376.3 -525.2,550.9 -246.9,242.6 -498.2,480.9 -801.9,658.3 -108,57.9 -216.6,113.5 -325.4,168.2 -15.2,79.9 -348.7,357.5 -516,424.4 -203.7,81.5 747.2,-190.2 868.7,-183 121.4,7.2 -501.9,196.6 -647.9,261.4 -146.1,64.7 417.8,57.5 567.2,0 149.4,-57.5 -380.4,166.2 -555.7,235.4 -113.1,44.6 631,64.5 1173.7,72.9 231.5,-9.2 462.8,-23.9 693.2,-47.6 341.5,-40.1 696.8,-87.4 1008.6,-234.5 148.2,-199.8 357.9,-563.2 322.7,-862.9 -27.3,-358.8 50.6,-695.9 71.7,-1021 z m 3828.8,12209 c -559.3,126.5 -1491.6,-46.2 -1491.6,-46.2 -3856.8,-1458.3 -6303.7,-6231.3 -6680.6,-7007.5 -56.1,138.7 -102.6,242.8 -118.7,283.6 -50.8,128.7 244.8,40.8 194,590.6 -21.2,230.2 -139.5,349.2 -254.6,408.2 15.7,33 27.2,58.8 27.2,58.8 579.8,1752 988.1,2749.8 1105.5,2724 117.3,-25.8 284.5,-8 376.7,160.4 92.2,168.3 43.2,315.4 -57.4,325.7 -115.4,11.8 -288.5,-200.4 -288.5,-200.4 -379.3,-436.2 -971.6,-2214.9 -1198,-2979 -7.3,-24.4 -13.4,-45.9 -19,-65.8 -74.1,27.4 -139.9,32.1 -167.9,28.2 -30.5,4.2 -101.4,-5.5 -177.7,-38.9 -6.2,22.6 -13.4,47.8 -21.9,76.5 -226.5,764.1 -818.8,2542.8 -1198.08,2979 0,0 -173.13,212.2 -288.53,200.4 -100.55,-10.3 -149.59,-157.4 -57.38,-325.7 92.22,-168.4 259.37,-186.2 376.79,-160.4 117.4,25.8 525.6,-972 1105.4,-2724 0,0 14.5,-32.5 33.2,-71.4 -100.2,-58 -196.7,-160.6 -212.1,-332.2 -49.4,-549.9 209.1,-525.3 158.3,-654 -15.1,-38.5 -57.4,-133.4 -109.3,-260.4 -412.5,844.1 -2849.38,5540 -6669.23,6984.3 0,0 -932.31,172.7 -1491.57,46.2 -755.76,-171 -400.89,-1787.4 -213.99,-2287.5 186.91,-500.1 644.35,-2628.1 571.62,-2873.3 -307.79,-1037.8 -344.02,-2270.6 512.52,-3157.6 433.61,-449 2149.22,-482.3 3830.39,-390.3 C 6443.02,9049.3 5431.01,8878.8 5055.54,8694.3 4405.53,8374.8 3941.01,8179.9 3961.71,7202.4 c 13.54,-639 -88.55,-628.3 -145.05,-952.9 -56.5,-324.6 -304.91,-472.3 -53.73,-768.8 251.18,-296.5 467.54,-452.5 409.75,-756.9 -57.81,-304.4 -95.8,-916.9 135.94,-911 231.73,6 496.82,-506.8 561.27,-707.1 64.47,-200.3 235.81,-458.4 637.59,-690.5 401.79,-232.1 856.19,-79.2 1048.09,-256 191.91,-176.9 347.84,-374.9 931.65,-339.8 583.8,35.1 420.3,160 916.01,558.2 882.86,709.1 893.26,2413.5 1423.78,3145.9 520.39,718.6 1006.19,1497 1157.19,2128.6 3.7,15.4 6.2,30.3 9.5,45.5 169.1,-244.3 174.2,-284.4 167,-575.3 -3.9,-159.5 -108.5,-376.4 -212.9,-811.9 -104.4,-435.6 -151.7,-790.6 -60.8,-1219.6 41.5,-195.7 234.7,-939.3 500.7,-972.2 301.7,134.2 441.1,819.3 489.5,1013.7 61.5,246.9 163.2,682.3 58.8,1117.9 -104.5,435.5 -276.5,444.5 -188.9,872.1 64,312.2 56.7,327.9 90.9,433.3 174.7,-613.4 636.9,-1349.6 1131.2,-2032.1 530.5,-732.4 540.9,-2436.8 1423.8,-3145.9 495.7,-398.2 332.2,-523.1 916,-558.2 583.8,-35.1 739.7,162.9 931.6,339.8 191.9,176.8 646.3,23.9 1048.1,256 401.8,232.1 573.1,490.2 637.6,690.5 64.5,200.3 329.5,713.1 561.3,707.1 231.7,-5.9 193.7,606.6 135.9,911 -57.8,304.4 158.6,460.4 409.8,756.9 251.1,296.5 2.7,444.2 -53.8,768.8 -56.5,324.6 -158.6,313.9 -145,952.9 20.7,977.5 -443.8,1172.4 -1093.8,1491.9 -375.5,184.5 -1387.5,355 -2480.6,494.2 1681.1,-92 3396.7,-58.7 3830.3,390.3 856.6,887 820.4,2119.8 512.6,3157.6 -72.8,245.2 384.7,2373.2 571.6,2873.3 186.9,500.1 541.8,2116.5 -214,2287.5"
         style="fill:#e97a24;fill-opacity:1;fill-rule:nonzero;stroke:none"
         transform="matrix(0.13333333,0,0,-0.13333333,0,2633.3333)" />
      <path
         id="path4"
         d="m 16712.7,9438 c -273.3,11.2 -903.1,-22.9 -1655,-137.2 v 0 c -980.5,-149 -2168.4,-434.4 -3044.5,-933.2 -6.2,82.1 -22.8,163 -53.2,242.1 -7.5,19.4 -12.9,39.4 -17.2,59.6 954.4,944.1 3228.6,3170.3 3580.8,3298.9 447.6,163.6 2187.6,266.3 2625.3,-83.9 437.7,-350.2 177.9,-473.8 152.5,-970.7 -25.5,-496.9 277.9,-863.8 56.7,-1069.27 C 18136.9,9638.9 17413.7,9409.2 16712.7,9438 Z m -1393.2,-300.7 c 303.7,-187.5 810.6,-493.8 1187.7,-687.9 77.1,-39.7 151.9,-72.4 224.6,-101 -206.9,-140.8 -413.1,-282.4 -616,-429.5 -119.4,-87 -239.9,-172.1 -342.1,-279.8 -390.3,179.8 -1000.9,261.8 -1657.5,291.4 -747.6,33.6 -1554.2,-0.6 -2163.9,-36.8 21.3,73.8 38.2,146.8 49.3,219 464,270.9 1302.5,675.1 2499.4,923.7 130.5,27.2 262.7,48 395.8,64.4 139.9,17.2 281,28.9 422.7,36.5 z m 2392,-1298.9 c 84.3,-191.4 93.4,-371.9 92.5,-557 -492.3,55.5 -1443.3,158.9 -1854.1,178 -50.1,59.3 -104.3,115.2 -161.2,167.4 211.6,215.9 497.7,354.1 762.1,496.6 112.6,57.6 226.6,113.1 341.3,167.2 390.3,-129.4 690.3,-159.1 819.4,-452.2 z m 126.2,-1144.1 c 90.7,-420.2 292.6,-557 183.5,-802.5 -51.9,-116.8 -154.9,-224.2 -244.7,-339.6 -260.5,268.7 -1197.5,869.3 -1512.3,1068.1 -1.2,27.5 -2.8,54.9 -2.9,82.6 -4.7,229.7 -85.7,438.5 -208.7,621.1 301.1,-36.3 1315,-167.3 1751.4,-338.3 3.2,-93.7 11.9,-190.2 33.7,-291.4 z M 14523.1,3135.6 c -38.5,39.1 -81.4,94.8 -134.8,174.5 -193.4,288.9 -889,2489.6 -1358.3,2954.6 -313,310 -855.5,903.1 -1182.4,1264 354.2,-186.7 862,-455.4 1086.3,-577.9 11.6,-6.3 23.3,-12.8 35,-19.2 135.3,-74.3 272.2,-149.4 399.4,-228.8 90.4,-58.8 176.4,-123.8 259.6,-192.5 85.7,-288.9 615.5,-1632 760.3,-2010.4 127,-331.7 358.2,-1128.9 443.3,-1426.1 -138.8,-25 -207.8,-40.4 -308.4,61.8 z M 10170.7,7928 c -506.46,16.1 -1013.84,22.2 -1520.07,-2.1 -197.31,-9.5 -394.47,-23.2 -591.32,-43.4 -351.56,-43.5 -713.12,-86 -1035.76,-245.2 -217.12,219.8 -487.42,375.5 -735.05,558 -74.51,51.5 -149.15,102.4 -223.84,153.2 72.54,28.5 147.33,61.3 224.38,100.9 377.05,194.1 883.98,500.4 1187.6,687.9 141.71,-7.6 282.8,-19.3 422.75,-36.5 133.11,-16.4 265.26,-37.2 395.81,-64.4 1239.72,-257.5 2094.6,-681.8 2547.4,-952.1 15.8,-69.9 34.7,-135.2 54.5,-191.8 -242,15.2 -484.1,26.9 -726.4,35.5 z M 6845.91,7459.4 c -411,-19.1 -1361.54,-122.5 -1853.7,-178 -0.87,185.1 8.15,365.6 92.45,557 129.25,293.4 429.77,322.9 820.7,452.6 258.82,-120.7 512.52,-252.6 756.84,-399.3 121.56,-79.3 249.22,-157.8 346.94,-263.6 -57.9,-52.2 -112.63,-108.7 -163.23,-168.7 z m -311.74,-818.5 c -0.28,-6.7 -0.99,-13.3 -1.33,-20.1 -313.86,-198.1 -1252.35,-799.6 -1513.2,-1068.6 -89.71,115.4 -192.75,222.8 -244.68,339.6 -109.11,245.5 92.83,382.3 183.52,802.5 21.84,101.2 30.52,197.7 33.72,291.4 436.38,171 1450.29,302.1 1751.44,338.3 -134.2,-200.4 -217.77,-432.5 -209.47,-683.1 z M 7575.77,5037.3 C 7378.7,4784 6837.07,4100.3 6713.61,3784.8 6563.66,3401.6 6760.05,3129 6595.12,3012 c -228.48,-4 -579.74,142.1 -760.72,310.2 -107.22,99.6 -153.84,193.7 -189.5,312.7 88.14,244.1 306.22,798.3 518.68,949.1 191.87,136.2 385.61,274.5 485.33,345.8 262.84,-136.1 622.84,-43.8 926.86,107.5 z m 416.35,266.9 c 306.47,296 582.12,638.8 887.2,942.4 29.67,-117.8 39.57,-335.4 -102.68,-684.4 -234.45,-575 -1146.42,-2339.3 -1154.08,-2531 v 0 c -37.43,-24 -78.64,-56.1 -127.25,-98.6 -199.79,-174.8 -311.89,-214.8 -470.62,-103.4 -37.07,26 -67.69,50 -95.92,71.5 -34.51,175.5 -86.07,568.8 61.44,879.4 176.4,371.5 653.24,1164.3 772.08,1360.9 87.44,54.1 165.8,110.3 229.83,163.2 z m 1435.82,1398.6 c 127.1,79.4 264,154.5 399.34,228.8 11.65,6.4 23.36,12.8 34.98,19.2 225.74,123.5 731.24,390.6 1086.24,577.7 C 10621.6,7167.6 10079.2,6574.7 9766.22,6264.7 9296.89,5799.7 8601.28,3599 8407.9,3310.1 c -53.4,-79.7 -96.33,-135.4 -134.79,-174.5 -100.56,-102.2 -169.66,-86.8 -308.36,-61.8 85.04,297.3 316.25,1094.4 443.21,1426.1 144.83,378.4 674.66,1721.6 760.28,2010.4 83.26,68.7 169.28,133.7 259.7,192.5 z m -4252.59,-1452 c 218.82,285.5 708.24,864.6 1350.05,1264.1 -25.05,-268.9 -88.42,-528.7 -116.65,-803.5 -12.86,-163.9 -29.91,-349.2 21.82,-512.3 -65.33,-124.5 -168.85,-275.6 -326.89,-397.3 -260.23,-200.4 -697.04,-439.4 -868.05,-530.5 -30.36,14.7 -59.61,29.7 -86.25,47.5 -138.64,92.7 -7.72,475.7 31.2,799.9 5.58,46.4 2.79,90.1 -5.23,132.1 z M 6083.47,9438 c -700.98,-28.8 -1424.15,200.9 -1645.35,406.33 -221.2,205.47 82.13,572.37 56.7,1069.27 -25.43,496.9 -285.23,620.5 152.45,970.7 437.68,350.2 2177.74,247.5 2625.35,83.9 349.57,-127.7 2593.72,-2322.8 3560.08,-3278.4 -2.2,-27.2 -5.6,-54 -11.9,-80.1 -18.3,-76.1 -22.6,-163.6 -17.6,-253.6 -878,505.9 -2076.65,794.5 -3064.66,944.7 h -0.01 C 6986.61,9415.1 6356.78,9449.2 6083.47,9438 Z m -1889.31,3047.3 c -434.69,-64.7 -734.19,177.5 -612.69,389 121.5,211.4 269.53,290.1 378.19,729.8 108.67,439.6 154.28,529 159.92,656.1 5.63,127 102.83,923 432.61,667.4 0,0 1248.97,-960.2 1736.68,-1396.9 487.72,-436.8 774.02,-1223.5 774.02,-1223.5 0,0 -2434.04,242.8 -2868.73,178.1 z m 646.29,2938.5 c 195.11,139.9 726.02,251.7 1388.94,75.8 19.04,-241.1 52.92,-692.9 46.03,-773.6 -8,-93.6 139.95,-938 186.4,-1199.7 -34.63,42.3 -69.13,82.6 -103.21,119.8 -412.64,449.8 -1431.33,1278.3 -1580.34,1597.2 -12.3,26.4 -19.4,49.6 -19.02,68.5 0.75,36.1 29.57,75 81.2,112 z m 6051.45,-4828.1 c -98.4,-272 -193.2,-595.5 -196.2,-849.5 -0.9,-72.1 3,-140.8 9.4,-207.1 5.4,-56.4 12.9,-110.9 21.6,-163.4 23,-137.4 53.7,-262.1 76.8,-376.8 -1040.59,1039.2 -3482.81,3177 -3482.81,3177 0,0 -249.84,476.4 -552.32,930.3 -44.91,67.4 -90.96,134.1 -137.55,198.9 v 0 c 0,0 -24.56,84.2 -58.39,214.5 -38.23,147.2 -88.22,353.2 -128.34,564.2 -41.4,217.9 -72.19,440.9 -68.19,609.3 6.94,291.6 90.58,552 134.37,716.5 0.82,-0.3 1.62,-0.5 2.44,-0.9 287.18,-107.8 591.73,-270.3 899.65,-507.2 1117.96,-860 2893.24,-3432.9 3479.54,-4305.8 z M 16632.6,4584 c 212.5,-150.8 430.6,-705 518.7,-949.1 -35.7,-119 -82.3,-213.1 -189.5,-312.7 -181,-168.1 -532.3,-314.2 -760.7,-310.2 -165,117 31.4,389.6 -118.5,772.8 -123.5,315.6 -665.2,999.4 -862.2,1252.6 304.1,-151.2 664.6,-243.8 927,-107.7 99.8,-71.3 293.4,-209.6 485.2,-345.7 z m -2613,978.2 c -142.3,348.9 -132.4,566.6 -102.7,684.3 305.1,-303.5 580.8,-646.4 887.2,-942.3 63.9,-52.9 142.2,-109.1 229.8,-163.2 118.9,-196.7 595.7,-989.5 772.1,-1360.9 147.5,-310.6 95.9,-703.9 61.4,-879.4 -28.2,-21.5 -58.8,-45.5 -95.9,-71.5 -158.7,-111.4 -270.8,-71.4 -470.6,103.4 -48.6,42.5 -89.8,74.6 -127.3,98.6 v 0 c -7.6,191.7 -919.6,1956 -1154,2531 z m 3596,-443.5 c 38.9,-324.2 169.8,-707.2 31.2,-799.9 -26.6,-17.8 -55.9,-32.8 -86.2,-47.5 -171,91.1 -607.9,330.1 -868.1,530.5 -158,121.7 -261.5,272.8 -326.9,397.3 51.8,163.1 34.8,348.4 21.8,512.3 -27.6,274.2 -91.7,534.9 -116,803 641.5,-399.4 1130.7,-978.2 1349.4,-1263.6 -8,-42 -10.8,-85.7 -5.2,-132.1 z m -1483.8,569.5 c 9.6,-143 20.7,-312.7 -28.7,-438.8 -110.9,-232 -542.6,-79.7 -732.6,5.7 -223.2,101.1 -408.6,229 -572.4,410.6 -169.5,178.8 -351.4,376.3 -525.2,550.9 -246.9,242.6 -498.2,480.9 -801.9,658.3 -108,57.9 -216.6,113.5 -325.4,168.2 -421.7,211.8 -848.9,401.4 -1282.1,587 9.6,27.1 21,59.1 35.1,98.4 10.7,29.9 20.7,59.7 30.3,89.4 232.9,14.4 466.1,25.6 699.3,33.9 468.4,14.9 938.7,21 1407.4,2.4 231.5,-9.2 462.8,-23.9 693.2,-47.6 341.5,-40.1 696.8,-87.4 1008.6,-234.5 148.2,-199.8 357.9,-563.2 322.7,-862.9 -27.3,-358.8 50.6,-695.9 71.7,-1021 z m -748,9213.3 c 308,236.9 612.5,399.4 899.7,507.2 0.8,0.4 1.6,0.6 2.4,0.9 43.8,-164.5 127.5,-424.9 134.4,-716.5 4,-168.4 -26.8,-391.4 -68.2,-609.3 -40.1,-211 -90.1,-417 -128.3,-564.2 -33.9,-130.3 -58.4,-214.5 -58.4,-214.5 v 0 c -46.6,-64.8 -92.7,-131.5 -137.6,-198.9 -302.5,-453.9 -552.3,-930.3 -552.3,-930.3 0,0 -2507.1,-2194.6 -3523.3,-3217.6 22.6,119.5 59.5,251.4 87.9,396.9 8.6,44.1 16.5,89.3 22.9,136 11,81 17.8,165.8 16.8,255 -3,247.75 -93.3,561.7 -189,829.4 572,852.7 2366.3,3459.2 3493,4325.9 z m 1123.5,-1370.8 c 487.7,436.7 1736.7,1396.9 1736.7,1396.9 329.8,255.6 427,-540.4 432.6,-667.4 5.6,-127.1 51.3,-216.5 159.9,-656.1 108.7,-439.7 256.7,-518.4 378.2,-729.8 121.5,-211.5 -178,-453.7 -612.7,-389 -434.7,64.7 -2868.7,-178.1 -2868.7,-178.1 0,0 286.3,786.7 774,1223.5 z m 13.5,1195.3 c -6.9,80.7 27,532.5 46,773.6 662.9,175.9 1193.8,64.1 1388.9,-75.8 51.7,-37 80.5,-75.9 81.2,-112 0.4,-18.9 -6.7,-42.1 -19,-68.4 -148.9,-318.9 -1167.7,-1147.5 -1580.3,-1597.3 -34.1,-37.2 -68.6,-77.5 -103.2,-119.8 46.4,261.7 194.4,1106.1 186.4,1199.7 z m 3439.8,3171.2 c -559.3,126.5 -1491.6,-46.2 -1491.6,-46.2 -3856.8,-1458.3 -6303.7,-6231.3 -6680.6,-7007.5 -56.1,138.7 -102.6,242.8 -118.7,283.6 -50.8,128.7 244.8,40.8 194,590.6 -21.2,230.2 -139.5,349.2 -254.6,408.2 15.7,33 27.2,58.8 27.2,58.8 579.8,1752 988.1,2749.8 1105.5,2724 117.3,-25.8 284.5,-8 376.7,160.4 92.2,168.3 43.2,315.4 -57.4,325.7 -115.4,11.8 -288.5,-200.4 -288.5,-200.4 -379.3,-436.2 -971.6,-2214.9 -1198,-2979 -7.3,-24.4 -13.4,-45.9 -19,-65.8 -74.1,27.4 -139.9,32.1 -167.9,28.2 -30.5,4.2 -101.4,-5.5 -177.7,-38.9 -6.2,22.6 -13.4,47.8 -21.9,76.5 -226.5,764.1 -818.8,2542.8 -1198.08,2979 0,0 -173.13,212.2 -288.53,200.4 -100.55,-10.3 -149.59,-157.4 -57.38,-325.7 92.22,-168.4 259.37,-186.2 376.79,-160.4 117.4,25.8 525.6,-972 1105.4,-2724 0,0 14.5,-32.5 33.2,-71.4 -100.2,-58 -196.7,-160.6 -212.1,-332.2 -49.4,-549.9 209.1,-525.3 158.3,-654 -15.1,-38.5 -57.4,-133.4 -109.3,-260.4 -412.5,844.1 -2849.38,5540 -6669.23,6984.3 0,0 -932.31,172.7 -1491.57,46.2 -755.76,-171 -400.89,-1787.4 -213.99,-2287.5 186.91,-500.1 644.35,-2628.1 571.62,-2873.3 -307.79,-1037.8 -344.02,-2270.6 512.52,-3157.6 433.61,-449 2149.22,-482.3 3830.39,-390.3 C 6443.02,9049.3 5431.01,8878.8 5055.54,8694.3 4405.53,8374.8 3941.01,8179.9 3961.71,7202.4 c 13.54,-639 -88.55,-628.3 -145.05,-952.9 -56.5,-324.6 -304.91,-472.3 -53.73,-768.8 251.18,-296.5 467.54,-452.5 409.75,-756.9 -57.81,-304.4 -95.8,-916.9 135.94,-911 231.73,6 496.82,-506.8 561.27,-707.1 64.47,-200.3 235.81,-458.4 637.59,-690.5 401.79,-232.1 856.19,-79.2 1048.09,-256 191.91,-176.9 347.84,-374.9 931.65,-339.8 583.8,35.1 420.3,160 916.01,558.2 882.86,709.1 893.26,2413.5 1423.78,3145.9 520.39,718.6 1006.19,1497 1157.19,2128.6 -450.7,-192.7 -895.2,-388.8 -1333.66,-609 -108.79,-54.7 -217.34,-110.3 -325.39,-168.3 -303.63,-177.3 -554.94,-415.6 -801.86,-658.2 -174.11,-174.9 -355.5,-371.6 -525.24,-550.9 -163.86,-181.6 -349.04,-309.4 -572.36,-410.6 -187.86,-84.6 -622.75,-238.1 -732.57,-5.7 -49.52,125.8 -38.44,295.8 -28.7,438.8 21.08,325.1 98.97,662.2 71.7,1021 -35.4,300.1 174.79,662.5 322.64,863 386.18,175.2 992.37,254.6 1644.03,282.9 775.3,33.6 1614.41,-5.3 2225.51,-42.9 15.3,-35 30.3,-64.2 44,-83.7 7.6,-10.9 14.4,-20.8 21.4,-30.9 169.1,-244.3 174.2,-284.4 167,-575.3 -3.9,-159.5 -108.5,-376.4 -212.9,-811.9 -104.4,-435.6 -151.7,-790.6 -60.8,-1219.6 41.5,-195.7 234.7,-939.3 500.7,-972.2 301.7,134.2 441.1,819.3 489.5,1013.7 61.5,246.9 163.2,682.3 58.8,1117.9 -104.5,435.5 -276.5,444.5 -188.9,872.1 64,312.2 56.7,327.9 90.9,433.3 174.7,-613.4 636.9,-1349.6 1131.2,-2032.1 530.5,-732.4 540.9,-2436.8 1423.8,-3145.9 495.7,-398.2 332.2,-523.1 916,-558.2 583.8,-35.1 739.7,162.9 931.6,339.8 191.9,176.8 646.3,23.9 1048.1,256 401.8,232.1 573.1,490.2 637.6,690.5 64.5,200.3 329.5,713.1 561.3,707.1 231.7,-5.9 193.7,606.6 135.9,911 -57.8,304.4 158.6,460.4 409.8,756.9 251.1,296.5 2.7,444.2 -53.8,768.8 -56.5,324.6 -158.6,313.9 -145,952.9 20.7,977.5 -443.8,1172.4 -1093.8,1491.9 -375.5,184.5 -1387.5,355 -2480.6,494.2 1681.1,-92 3396.7,-58.7 3830.3,390.3 856.6,887 820.4,2119.8 512.6,3157.6 -72.8,245.2 384.7,2373.2 571.6,2873.3 186.9,500.1 541.8,2116.5 -214,2287.5"
         style="fill:#13100e;fill-opacity:1;fill-rule:nonzero;stroke:none"
         transform="matrix(0.13333333,0,0,-0.13333333,0,2633.3333)" />
      <path
         id="path5"
         d="m 15143,15102.6 c 190.2,135.8 475.5,448.3 760.8,611.3 285.2,163 502.6,244.6 692.8,461.9 190.2,217.4 -67.9,380.4 -67.9,380.4 0,0 -13.6,68 -258.1,-149.4 -244.6,-217.4 -625,-529.9 -801.6,-774.4 -176.6,-244.5 -516.2,-665.7 -326,-529.8"
         style="fill:#eee5d2;fill-opacity:1;fill-rule:nonzero;stroke:none"
         transform="matrix(0.13333333,0,0,-0.13333333,0,2633.3333)" />
      <path
         id="path6"
         d="m 16460.8,15821.2 c 135.8,-12.2 289.1,286.7 592.9,463.3 303.7,176.6 548.2,217.4 711.3,461.9 163,244.6 -2.4,557.9 -108.7,448.4 0,0 -1331.4,-1361.3 -1195.5,-1373.6"
         style="fill:#eee5d2;fill-opacity:1;fill-rule:nonzero;stroke:none"
         transform="matrix(0.13333333,0,0,-0.13333333,0,2633.3333)" />
      <path
         id="path7"
         d="m 17142.3,15985.6 c 65.7,-27.1 242.3,163.1 459.6,285.3 217.4,122.3 448.4,285.3 611.4,421.2 163,135.8 244.5,122.3 298.9,258.1 54.3,135.9 -76.1,388.4 -135.9,326.1 -33.9,-35.4 -1299.7,-1263.5 -1234,-1290.7"
         style="fill:#eee5d2;fill-opacity:1;fill-rule:nonzero;stroke:none"
         transform="matrix(0.13333333,0,0,-0.13333333,0,2633.3333)" />
      <path
         id="path8"
         d="m 17615.5,15904.1 c 135.9,27.2 298.9,176.6 543.4,271.7 244.6,95.1 611.4,122.3 801.6,244.6 190.2,122.3 271.7,95.1 366.8,285.3 95.1,190.2 -60.3,401.5 -122.3,366.8 0,0 -937.4,-516.3 -1263.4,-842.3 -326.1,-326.1 -461.9,-353.3 -326.1,-326.1"
         style="fill:#eee5d2;fill-opacity:1;fill-rule:nonzero;stroke:none"
         transform="matrix(0.13333333,0,0,-0.13333333,0,2633.3333)" />
      <path
         id="path9"
         d="m 18158.9,15700.3 c 163.1,-13.5 339.7,147.1 570.6,195.9 231,48.7 440.6,35.1 627.9,143.8 187.3,108.7 173.7,26.3 282.4,183 108.7,156.6 271.7,577.8 54.3,523.4 0,0 -502.7,-339.6 -815.1,-529.8 -312.5,-190.2 -883.1,-502.7 -720.1,-516.3"
         style="fill:#eee5d2;fill-opacity:1;fill-rule:nonzero;stroke:none"
         transform="matrix(0.13333333,0,0,-0.13333333,0,2633.3333)" />
      <path
         id="path10"
         d="m 18389.9,15319.9 c 135.9,-40.7 336.6,40.8 575.8,68 239.3,27.1 388.8,54.3 579,122.2 190.2,68 190.2,97.5 298.9,164.3 108.6,66.7 181.9,412.7 67.9,365.6 0,0 -1657.5,-679.3 -1521.6,-720.1"
         style="fill:#eee5d2;fill-opacity:1;fill-rule:nonzero;stroke:none"
         transform="matrix(0.13333333,0,0,-0.13333333,0,2633.3333)" />
      <path
         id="path11"
         d="m 19801.3,15387.9 c 0,0 -1275.5,-475.5 -1071.8,-475.5 203.8,0 597.8,67.9 815.2,108.7 217.3,40.7 513.1,244.5 256.6,366.8"
         style="fill:#eee5d2;fill-opacity:1;fill-rule:nonzero;stroke:none"
         transform="matrix(0.13333333,0,0,-0.13333333,0,2633.3333)" />
      <path
         id="path12"
         d="m 19503.9,14749.4 c 0,0 -720,-54.4 -679.3,-217.4 40.8,-163 92.1,-271.7 141.1,-285.3 49.1,-13.6 402.4,67.9 538.2,67.9 135.9,0 217.4,107.2 176.6,182.7 -40.7,75.4 -176.6,252.1 -176.6,252.1"
         style="fill:#eee5d2;fill-opacity:1;fill-rule:nonzero;stroke:none"
         transform="matrix(0.13333333,0,0,-0.13333333,0,2633.3333)" />
      <path
         id="path13"
         d="m 19422.4,13662.5 c 95.1,81.5 119.4,431.5 0,421.2 -42.8,-3.7 -424.2,0 -456.7,-135.9 -32.4,-135.9 -76.2,-203.8 0,-230.9 76.3,-27.2 361.6,-135.9 456.7,-54.4"
         style="fill:#eee5d2;fill-opacity:1;fill-rule:nonzero;stroke:none"
         transform="matrix(0.13333333,0,0,-0.13333333,0,2633.3333)" />
      <path
         id="path14"
         d="m 18713.8,11692.6 c 192.3,0 341.8,-135.8 396.1,54.3 54.4,190.3 -220.4,473.9 -286.9,475.5 -52.7,1.3 -242.9,27.2 -215.7,-135.8 27.1,-163 -85.9,-394 106.5,-394"
         style="fill:#eee5d2;fill-opacity:1;fill-rule:nonzero;stroke:none"
         transform="matrix(0.13333333,0,0,-0.13333333,0,2633.3333)" />
      <path
         id="path15"
         d="m 19175.4,11026.9 c -11.1,95.1 -94.6,456.3 -209.7,448.3 -35,-2.4 -321.5,13.6 -367.1,-108.6 -45.7,-122.3 -117.4,-176.7 0,-271.7 117.4,-95.1 192.7,-108.7 324.8,-135.9 132.2,-27.2 263.2,-27.2 252,67.9"
         style="fill:#eee5d2;fill-opacity:1;fill-rule:nonzero;stroke:none"
         transform="matrix(0.13333333,0,0,-0.13333333,0,2633.3333)" />
      <path
         id="path16"
         d="m 18716.3,10171 c 135.5,-13.6 271.4,-108.6 325.7,54.4 54.3,163 -61.7,498.4 -118.6,502.6 0,0 -311.8,27.2 -388.7,0 -76.9,-27.1 41.6,-217.3 63.9,-326 22.3,-108.7 -17.9,-217.4 117.7,-231"
         style="fill:#eee5d2;fill-opacity:1;fill-rule:nonzero;stroke:none"
         transform="matrix(0.13333333,0,0,-0.13333333,0,2633.3333)" />
      <path
         id="path17"
         d="m 18598.6,9994.42 c -45.7,-95.1 -81.5,-217.37 -138.3,-298.92 -56.8,-81.5 -303.6,-135.8 -78.3,-163 225.3,-27.2 221.9,-108.7 325.5,0 103.6,108.7 115.5,461.92 115.5,461.92 0,0 -178.8,95.08 -224.4,0"
         style="fill:#eee5d2;fill-opacity:1;fill-rule:nonzero;stroke:none"
         transform="matrix(0.13333333,0,0,-0.13333333,0,2633.3333)" />
      <path
         id="path18"
         d="m 19357.4,12224.7 c 0,0 -237.4,11.3 -181.3,-97.3 56.1,-108.7 -87.2,-312.5 86.3,-353.3 173.6,-40.7 295.9,-122.2 336.6,0 40.8,122.3 -153.9,454.6 -241.6,450.6"
         style="fill:#eee5d2;fill-opacity:1;fill-rule:nonzero;stroke:none"
         transform="matrix(0.13333333,0,0,-0.13333333,0,2633.3333)" />
      <path
         id="path19"
         d="m 19386,11475.4 c 0,0 -172.1,-27.3 -129,-149.6 43.1,-122.3 -5.4,-271.7 100.4,-271.7 105.8,0 239.1,79.6 247.2,155.3 8,75.7 -87.3,350.6 -218.6,266"
         style="fill:#eee5d2;fill-opacity:1;fill-rule:nonzero;stroke:none"
         transform="matrix(0.13333333,0,0,-0.13333333,0,2633.3333)" />
      <path
         id="path20"
         d="m 19357.4,10740.1 c -59,4.6 -210.2,28.7 -181.3,-93.6 28.9,-122.2 -104,-258.1 37.2,-285.3 141.2,-27.1 275.4,-0.6 289.8,74.4 14.4,75.1 -42.3,296.4 -145.7,304.5"
         style="fill:#eee5d2;fill-opacity:1;fill-rule:nonzero;stroke:none"
         transform="matrix(0.13333333,0,0,-0.13333333,0,2633.3333)" />
      <path
         id="path21"
         d="m 19176.1,10131.2 c 0,0 -205.1,-41.7 -210.4,-150.36 -5.2,-108.69 -201.6,-230.04 -42.3,-223.7 159.4,6.33 429.4,349.96 252.7,374.06"
         style="fill:#eee5d2;fill-opacity:1;fill-rule:nonzero;stroke:none"
         transform="matrix(0.13333333,0,0,-0.13333333,0,2633.3333)" />
      <path
         id="path22"
         d="m 18104.6,8038.1 c 122.3,81.5 286.9,47.3 184.2,186.7 -102.7,139.4 -374.4,207.3 -374.4,207.3 0,0 -149.4,-27.2 -95.1,-163 54.4,-135.9 163,-312.5 285.3,-231"
         style="fill:#eee5d2;fill-opacity:1;fill-rule:nonzero;stroke:none"
         transform="matrix(0.13333333,0,0,-0.13333333,0,2633.3333)" />
      <path
         id="path23"
         d="m 18199.7,7820.7 c 40.8,-190.2 -6.4,-298.8 153,-271.7 159.5,27.2 223.6,40.8 245.9,149.5 22.3,108.7 -2.1,327.4 -89.5,318.9 0,0 -350.2,-6.5 -309.4,-196.7"
         style="fill:#eee5d2;fill-opacity:1;fill-rule:nonzero;stroke:none"
         transform="matrix(0.13333333,0,0,-0.13333333,0,2633.3333)" />
      <path
         id="path24"
         d="m 18321.1,7250.1 c 28,-190.2 3,-326 137.8,-339.6 134.8,-13.6 202.7,27.2 229.9,149.4 27.2,122.3 -90.2,339.7 -90.2,339.7 0,0 -305.6,40.7 -277.5,-149.5"
         style="fill:#eee5d2;fill-opacity:1;fill-rule:nonzero;stroke:none"
         transform="matrix(0.13333333,0,0,-0.13333333,0,2633.3333)" />
      <path
         id="path25"
         d="m 18401.4,6570.9 c 2.1,-203.8 6.4,-312.5 133.3,-326.1 126.9,-13.6 219.5,40.8 247.9,95.1 28.5,54.4 -22.7,340.7 -89.7,353.2 0,0 -293.6,81.6 -291.5,-122.2"
         style="fill:#eee5d2;fill-opacity:1;fill-rule:nonzero;stroke:none"
         transform="matrix(0.13333333,0,0,-0.13333333,0,2633.3333)" />
      <path
         id="path26"
         d="m 18506.1,5959.5 c -61.9,-149.4 -98.3,-298.9 28.6,-312.4 126.9,-13.6 295.2,-81.6 326.5,81.5 31.4,163 -12.4,317 -78.6,326 0,0 -214.7,54.4 -276.5,-95.1"
         style="fill:#eee5d2;fill-opacity:1;fill-rule:nonzero;stroke:none"
         transform="matrix(0.13333333,0,0,-0.13333333,0,2633.3333)" />
      <path
         id="path27"
         d="m 18288.8,5375.3 c -102.7,-122.2 -319.3,-271.7 -224.6,-339.6 94.7,-67.9 267.1,-149.4 337.2,-81.5 70,67.9 154.5,353.2 154.5,353.2 0,0 -164.4,190.2 -267.1,67.9"
         style="fill:#eee5d2;fill-opacity:1;fill-rule:nonzero;stroke:none"
         transform="matrix(0.13333333,0,0,-0.13333333,0,2633.3333)" />
      <path
         id="path28"
         d="m 18401.4,4696.1 c 0,0 -154,135.8 -205,0 -51,-135.9 -71.2,-271.7 0,-339.7 71.2,-67.9 231.4,-95.1 253.2,0 21.8,95.1 16.6,296.8 -48.2,339.7"
         style="fill:#eee5d2;fill-opacity:1;fill-rule:nonzero;stroke:none"
         transform="matrix(0.13333333,0,0,-0.13333333,0,2633.3333)" />
      <path
         id="path29"
         d="m 18040.8,4139.1 c -126.4,-135.9 -340.4,-339.7 -233.4,-394 107,-54.4 189.3,-54.4 256.8,0 67.6,54.3 256.9,339.6 256.9,339.6 0,0 -153.8,190.2 -280.3,54.4"
         style="fill:#eee5d2;fill-opacity:1;fill-rule:nonzero;stroke:none"
         transform="matrix(0.13333333,0,0,-0.13333333,0,2633.3333)" />
      <path
         id="path30"
         d="m 17588.4,3473.4 c -122.3,-176.6 -380.4,-407.6 -231,-448.4 149.4,-40.7 231,-95.1 298.9,0 67.9,95.1 151.1,448.4 151.1,448.4 0,0 -96.8,176.6 -219,0"
         style="fill:#eee5d2;fill-opacity:1;fill-rule:nonzero;stroke:none"
         transform="matrix(0.13333333,0,0,-0.13333333,0,2633.3333)" />
      <path
         id="path31"
         d="m 17004.2,2739.8 c -149.5,-54.4 -421.2,-244.6 -271.7,-258.2 149.4,-13.6 629.5,40.8 579.6,258.2 -10.1,44.1 -158.5,54.3 -307.9,0"
         style="fill:#eee5d2;fill-opacity:1;fill-rule:nonzero;stroke:none"
         transform="matrix(0.13333333,0,0,-0.13333333,0,2633.3333)" />
      <path
         id="path32"
         d="m 15958.1,2479.7 c -27.2,-137.8 -40.8,-242.6 0,-324.1 40.8,-81.5 149.4,95.1 339.6,191.6 190.2,96.5 0,281 0,281 0,0 -312.4,-10.7 -339.6,-148.5"
         style="fill:#eee5d2;fill-opacity:1;fill-rule:nonzero;stroke:none"
         transform="matrix(0.13333333,0,0,-0.13333333,0,2633.3333)" />
      <path
         id="path33"
         d="m 15197.3,2347.2 c -108.7,-80.1 -40.8,-205.2 -54.3,-327.5 -13.6,-122.3 285.3,-40.7 461.9,0 176.6,40.8 54.3,327.5 54.3,327.5 0,0 -353.2,80.1 -461.9,0"
         style="fill:#eee5d2;fill-opacity:1;fill-rule:nonzero;stroke:none"
         transform="matrix(0.13333333,0,0,-0.13333333,0,2633.3333)" />
      <path
         id="path34"
         d="m 15932.4,2712.6 c -160.9,116.6 -380.5,-24.1 -368.3,-84.4 5.6,-27.3 14.5,-245.6 136.3,-148.5 121.8,97 392.8,116.3 232,232.9"
         style="fill:#eee5d2;fill-opacity:1;fill-rule:nonzero;stroke:none"
         transform="matrix(0.13333333,0,0,-0.13333333,0,2633.3333)" />
      <path
         id="path35"
         d="m 16800.4,2834.9 c 13.6,135.8 -139.9,138.8 -219.4,137.3 -79.5,-1.5 -198.7,-69.4 -198.7,-69.4 -30.2,-40.8 -43.8,-318.2 78.5,-274.6 122.2,43.6 326,70.8 339.6,206.7"
         style="fill:#eee5d2;fill-opacity:1;fill-rule:nonzero;stroke:none"
         transform="matrix(0.13333333,0,0,-0.13333333,0,2633.3333)" />
      <path
         id="path36"
         d="m 17306.7,3704.3 c -53.2,-86.5 14.1,-237 93.5,-152.4 79.5,84.5 201.7,115.8 215.3,215.6 13.6,99.8 -121.7,240.6 -121.7,240.6 0,0 -133.8,-217.3 -187.1,-303.8"
         style="fill:#eee5d2;fill-opacity:1;fill-rule:nonzero;stroke:none"
         transform="matrix(0.13333333,0,0,-0.13333333,0,2633.3333)" />
      <path
         id="path37"
         d="m 17002.4,3106.6 c 15.4,-95.1 26.3,-227.6 88.7,-134.2 62.5,93.4 243.7,351.5 221,392.3 -22.6,40.7 -131.3,0 -131.3,0 0,0 -193.8,-163 -178.4,-258.1"
         style="fill:#eee5d2;fill-opacity:1;fill-rule:nonzero;stroke:none"
         transform="matrix(0.13333333,0,0,-0.13333333,0,2633.3333)" />
      <path
         id="path38"
         d="m 17778.4,4294.9 c 95.3,-33.6 266.6,-74.3 262.4,61.5 -4.1,135.9 -12,454.9 -99.2,400 0,0 -132.5,-46.7 -134.2,-155.4 -1.7,-108.7 -124.3,-272.6 -29,-306.1"
         style="fill:#eee5d2;fill-opacity:1;fill-rule:nonzero;stroke:none"
         transform="matrix(0.13333333,0,0,-0.13333333,0,2633.3333)" />
      <path
         id="path39"
         d="m 18288.8,5621.5 c 19.6,134.2 82.8,351.4 -92.4,310.8 0,0 -178.6,-135.8 -155.6,-244.5 23.1,-108.7 228.4,-200.6 248,-66.3"
         style="fill:#eee5d2;fill-opacity:1;fill-rule:nonzero;stroke:none"
         transform="matrix(0.13333333,0,0,-0.13333333,0,2633.3333)" />
      <path
         id="path40"
         d="m 18196.4,6801.8 c -91.8,-40.7 -132.2,-163 -132.2,-163 0,0 -4.2,-339.6 86,-326.1 90.3,13.6 159.8,108.7 138.6,217.4 -21.2,108.7 -0.6,312.5 -92.4,271.7"
         style="fill:#eee5d2;fill-opacity:1;fill-rule:nonzero;stroke:none"
         transform="matrix(0.13333333,0,0,-0.13333333,0,2633.3333)" />
      <path
         id="path41"
         d="m 17955.2,7059.9 c 81.5,-40.7 213.5,-65.6 195,24.6 -18.4,90.1 -44.8,483.4 -86,460.4 -41.1,-23 -174.3,-88.8 -172.7,-213.2 0,0 -17.8,-231 63.7,-271.8"
         style="fill:#eee5d2;fill-opacity:1;fill-rule:nonzero;stroke:none"
         transform="matrix(0.13333333,0,0,-0.13333333,0,2633.3333)" />
      <path
         id="path42"
         d="m 17157.8,8432.1 c 131.7,-54.4 294.3,-122.3 294.3,0 0,122.3 0,122.3 0,122.3 0,0 -252.8,248.1 -294.3,95.1 -41.5,-153.1 -131.7,-163.1 0,-217.4"
         style="fill:#eee5d2;fill-opacity:1;fill-rule:nonzero;stroke:none"
         transform="matrix(0.13333333,0,0,-0.13333333,0,2633.3333)" />
      <path
         id="path43"
         d="m 17778.4,8017.4 c 95.3,139.9 -161.9,278.8 -161.9,278.8 0,0 -153.2,-40.7 -56.7,-135.8 96.5,-95.1 123.3,-282.8 218.6,-143"
         style="fill:#eee5d2;fill-opacity:1;fill-rule:nonzero;stroke:none"
         transform="matrix(0.13333333,0,0,-0.13333333,0,2633.3333)" />
      <path
         id="path44"
         d="m 16689,8635.9 c 97.8,40.7 196.3,172.6 112.2,190.2 0,0 -272.5,67.9 -272.5,0 0,-68 62.4,-231 160.3,-190.2"
         style="fill:#eee5d2;fill-opacity:1;fill-rule:nonzero;stroke:none"
         transform="matrix(0.13333333,0,0,-0.13333333,0,2633.3333)" />
      <path
         id="path45"
         d="m 6892.44,15713.9 c 285.29,-163 570.59,-475.5 760.79,-611.3 190.19,-135.9 -149.44,285.3 -326.05,529.8 -176.61,244.5 -557.01,557 -801.55,774.4 -244.54,217.4 -258.12,149.4 -258.12,149.4 0,0 -258.13,-163 -67.93,-380.4 190.2,-217.3 407.57,-298.9 692.86,-461.9"
         style="fill:#eee5d2;fill-opacity:1;fill-rule:nonzero;stroke:none"
         transform="matrix(0.13333333,0,0,-0.13333333,0,2633.3333)" />
      <path
         id="path46"
         d="m 5742.54,16284.5 c 303.75,-176.6 457.04,-475.5 592.9,-463.3 135.85,12.3 -1195.53,1373.6 -1195.53,1373.6 -106.36,109.5 -271.71,-203.8 -108.69,-448.4 163.03,-244.5 407.57,-285.3 711.32,-461.9"
         style="fill:#eee5d2;fill-opacity:1;fill-rule:nonzero;stroke:none"
         transform="matrix(0.13333333,0,0,-0.13333333,0,2633.3333)" />
      <path
         id="path47"
         d="m 4582.9,16692.1 c 163.03,-135.9 393.98,-298.9 611.35,-421.2 217.37,-122.2 393.98,-312.4 459.68,-285.3 65.71,27.2 -1200.13,1255.3 -1234.05,1290.7 -59.79,62.3 -190.2,-190.2 -135.86,-326.1 54.34,-135.8 135.86,-122.3 298.88,-258.1"
         style="fill:#eee5d2;fill-opacity:1;fill-rule:nonzero;stroke:none"
         transform="matrix(0.13333333,0,0,-0.13333333,0,2633.3333)" />
      <path
         id="path48"
         d="m 3835.7,16420.4 c 190.2,-122.3 557.01,-149.5 801.55,-244.6 244.53,-95.1 407.56,-244.5 543.42,-271.7 135.85,-27.2 0,0 -326.05,326.1 -326.06,326 -1263.46,842.3 -1263.46,842.3 -61.96,34.7 -217.37,-176.6 -122.27,-366.8 95.09,-190.2 176.62,-163 366.81,-285.3"
         style="fill:#eee5d2;fill-opacity:1;fill-rule:nonzero;stroke:none"
         transform="matrix(0.13333333,0,0,-0.13333333,0,2633.3333)" />
      <path
         id="path49"
         d="m 3438.83,16040 c 187.3,-108.7 396.87,-95.1 627.82,-143.8 230.96,-48.8 407.57,-209.4 570.6,-195.9 163.02,13.6 -407.57,326.1 -720.04,516.3 -312.47,190.2 -815.13,529.8 -815.13,529.8 -217.37,54.4 -54.34,-366.8 54.34,-523.4 108.68,-156.7 95.1,-74.3 282.41,-183"
         style="fill:#eee5d2;fill-opacity:1;fill-rule:nonzero;stroke:none"
         transform="matrix(0.13333333,0,0,-0.13333333,0,2633.3333)" />
      <path
         id="path50"
         d="m 2952.64,15674.4 c 108.68,-66.8 108.68,-96.3 298.88,-164.3 190.2,-67.9 339.64,-95.1 578.92,-122.2 239.3,-27.2 440,-108.7 575.85,-68 135.85,40.8 -1521.58,720.1 -1521.58,720.1 -113.98,47.1 -40.75,-298.9 67.93,-365.6"
         style="fill:#eee5d2;fill-opacity:1;fill-rule:nonzero;stroke:none"
         transform="matrix(0.13333333,0,0,-0.13333333,0,2633.3333)" />
      <path
         id="path51"
         d="m 4066.65,14912.4 c 203.79,0 -1071.71,475.5 -1071.71,475.5 -256.59,-122.3 39.21,-326.1 256.58,-366.8 217.37,-40.8 611.35,-108.7 815.13,-108.7"
         style="fill:#eee5d2;fill-opacity:1;fill-rule:nonzero;stroke:none"
         transform="matrix(0.13333333,0,0,-0.13333333,0,2633.3333)" />
      <path
         id="path52"
         d="m 3830.44,14246.7 c 49.1,13.6 100.36,122.3 141.12,285.3 40.75,163 -679.28,217.4 -679.28,217.4 0,0 -135.86,-176.7 -176.62,-252.1 -40.75,-75.5 40.76,-182.7 176.62,-182.7 135.85,0 489.07,-81.5 538.16,-67.9"
         style="fill:#eee5d2;fill-opacity:1;fill-rule:nonzero;stroke:none"
         transform="matrix(0.13333333,0,0,-0.13333333,0,2633.3333)" />
      <path
         id="path53"
         d="m 3830.44,13947.8 c -32.42,135.9 -413.85,132.2 -456.65,135.9 -119.36,10.3 -95.1,-339.7 0,-421.2 95.1,-81.5 380.4,27.2 456.65,54.4 76.27,27.1 32.43,95 0,230.9"
         style="fill:#eee5d2;fill-opacity:1;fill-rule:nonzero;stroke:none"
         transform="matrix(0.13333333,0,0,-0.13333333,0,2633.3333)" />
      <path
         id="path54"
         d="m 3973.22,12222.4 c -66.52,-1.6 -341.3,-285.2 -286.96,-475.5 54.34,-190.1 203.78,-54.3 396.13,-54.3 192.35,0 79.36,231 106.54,394 27.16,163 -163.05,137.1 -215.71,135.8"
         style="fill:#eee5d2;fill-opacity:1;fill-rule:nonzero;stroke:none"
         transform="matrix(0.13333333,0,0,-0.13333333,0,2633.3333)" />
      <path
         id="path55"
         d="m 3872.75,10959 c 132.14,27.2 207.49,40.8 324.87,135.9 117.39,95 45.64,149.4 0,271.7 -45.64,122.2 -332.1,106.2 -367.18,108.6 -115.05,8 -198.52,-353.2 -209.68,-448.3 -11.16,-95.1 119.84,-95.1 251.99,-67.9"
         style="fill:#eee5d2;fill-opacity:1;fill-rule:nonzero;stroke:none"
         transform="matrix(0.13333333,0,0,-0.13333333,0,2633.3333)" />
      <path
         id="path56"
         d="m 4079.93,10171 c 135.55,13.6 95.41,122.3 117.69,231 22.29,108.7 140.74,298.9 63.87,326 -76.89,27.2 -388.74,0 -388.74,0 -56.84,-4.2 -172.91,-339.6 -118.56,-502.6 54.34,-163 190.19,-68 325.74,-54.4"
         style="fill:#eee5d2;fill-opacity:1;fill-rule:nonzero;stroke:none"
         transform="matrix(0.13333333,0,0,-0.13333333,0,2633.3333)" />
      <path
         id="path57"
         d="m 4335.89,9695.5 c -56.81,81.55 -92.63,203.82 -138.27,298.92 -45.64,95.08 -224.4,0 -224.4,0 0,0 11.92,-353.22 115.49,-461.92 103.57,-108.7 100.22,-27.2 325.5,0 225.28,27.2 -21.5,81.5 -78.32,163"
         style="fill:#eee5d2;fill-opacity:1;fill-rule:nonzero;stroke:none"
         transform="matrix(0.13333333,0,0,-0.13333333,0,2633.3333)" />
      <path
         id="path58"
         d="m 3533.75,11774.1 c 173.54,40.8 30.23,244.6 86.34,353.3 56.11,108.6 -181.26,97.3 -181.26,97.3 -87.74,4 -282.41,-328.3 -241.65,-450.6 40.75,-122.2 163.02,-40.7 336.57,0"
         style="fill:#eee5d2;fill-opacity:1;fill-rule:nonzero;stroke:none"
         transform="matrix(0.13333333,0,0,-0.13333333,0,2633.3333)" />
      <path
         id="path59"
         d="m 3539.18,11325.8 c 43.12,122.3 -129.02,149.6 -129.02,149.6 -131.24,84.6 -226.57,-190.3 -218.51,-266 8.04,-75.7 141.38,-155.3 247.18,-155.3 105.78,0 57.23,149.4 100.35,271.7"
         style="fill:#eee5d2;fill-opacity:1;fill-rule:nonzero;stroke:none"
         transform="matrix(0.13333333,0,0,-0.13333333,0,2633.3333)" />
      <path
         id="path60"
         d="m 3620.09,10646.5 c 28.93,122.3 -122.25,98.2 -181.26,93.6 -103.39,-8.1 -160.14,-229.4 -145.72,-304.5 14.42,-75 148.61,-101.5 289.81,-74.4 141.21,27.2 8.24,163.1 37.17,285.3"
         style="fill:#eee5d2;fill-opacity:1;fill-rule:nonzero;stroke:none"
         transform="matrix(0.13333333,0,0,-0.13333333,0,2633.3333)" />
      <path
         id="path61"
         d="m 3620.09,10131.2 c -176.75,-24.1 93.34,-367.73 252.66,-374.06 159.32,-6.34 -37.05,115.01 -42.31,223.7 -5.25,108.66 -210.35,150.36 -210.35,150.36"
         style="fill:#eee5d2;fill-opacity:1;fill-rule:nonzero;stroke:none"
         transform="matrix(0.13333333,0,0,-0.13333333,0,2633.3333)" />
      <path
         id="path62"
         d="m 4691.59,8038.1 c 122.27,-81.5 230.95,95.1 285.29,231 54.34,135.8 -95.1,163 -95.1,163 0,0 -271.71,-67.9 -374.4,-207.3 -102.68,-139.4 61.94,-105.2 184.21,-186.7"
         style="fill:#eee5d2;fill-opacity:1;fill-rule:nonzero;stroke:none"
         transform="matrix(0.13333333,0,0,-0.13333333,0,2633.3333)" />
      <path
         id="path63"
         d="m 4443.45,7549 c 159.43,-27.1 112.28,81.5 153.04,271.7 40.76,190.2 -309.38,196.7 -309.38,196.7 -87.47,8.5 -111.77,-210.2 -89.49,-318.9 22.29,-108.7 86.4,-122.3 245.83,-149.5"
         style="fill:#eee5d2;fill-opacity:1;fill-rule:nonzero;stroke:none"
         transform="matrix(0.13333333,0,0,-0.13333333,0,2633.3333)" />
      <path
         id="path64"
         d="m 4337.29,6910.5 c 134.78,13.6 109.75,149.4 137.84,339.6 28.09,190.2 -277.51,149.5 -277.51,149.5 0,0 -117.38,-217.4 -90.21,-339.7 27.17,-122.2 95.1,-163 229.88,-149.4"
         style="fill:#eee5d2;fill-opacity:1;fill-rule:nonzero;stroke:none"
         transform="matrix(0.13333333,0,0,-0.13333333,0,2633.3333)" />
      <path
         id="path65"
         d="m 4261.49,6244.8 c 126.89,13.6 131.22,122.3 133.32,326.1 2.12,203.8 -291.48,122.2 -291.48,122.2 -67.02,-12.5 -118.19,-298.8 -89.74,-353.2 28.45,-54.3 120.99,-108.7 247.9,-95.1"
         style="fill:#eee5d2;fill-opacity:1;fill-rule:nonzero;stroke:none"
         transform="matrix(0.13333333,0,0,-0.13333333,0,2633.3333)" />
      <path
         id="path66"
         d="m 4290.14,5959.5 c -61.8,149.5 -276.55,95.1 -276.55,95.1 -66.17,-9 -109.97,-163 -78.64,-326 31.33,-163.1 199.63,-95.1 326.54,-81.5 126.89,13.5 90.46,163 28.65,312.4"
         style="fill:#eee5d2;fill-opacity:1;fill-rule:nonzero;stroke:none"
         transform="matrix(0.13333333,0,0,-0.13333333,0,2633.3333)" />
      <path
         id="path67"
         d="m 4731.96,5035.7 c 94.71,67.9 -121.89,217.4 -224.58,339.6 -102.68,122.3 -267.08,-67.9 -267.08,-67.9 0,0 84.47,-285.3 154.52,-353.2 70.06,-67.9 242.43,13.6 337.14,81.5"
         style="fill:#eee5d2;fill-opacity:1;fill-rule:nonzero;stroke:none"
         transform="matrix(0.13333333,0,0,-0.13333333,0,2633.3333)" />
      <path
         id="path68"
         d="m 4599.78,4696.1 c -51.03,135.8 -204.97,0 -204.97,0 -64.78,-42.9 -70.04,-244.6 -48.2,-339.7 21.82,-95.1 181.95,-67.9 253.17,0 71.24,68 51.05,203.8 0,339.7"
         style="fill:#eee5d2;fill-opacity:1;fill-rule:nonzero;stroke:none"
         transform="matrix(0.13333333,0,0,-0.13333333,0,2633.3333)" />
      <path
         id="path69"
         d="m 4755.36,4139.1 c -126.43,135.8 -280.23,-54.4 -280.23,-54.4 0,0 189.28,-285.3 256.83,-339.6 67.54,-54.4 149.82,-54.4 256.82,0 106.99,54.3 -107,258.1 -233.42,394"
         style="fill:#eee5d2;fill-opacity:1;fill-rule:nonzero;stroke:none"
         transform="matrix(0.13333333,0,0,-0.13333333,0,2633.3333)" />
      <path
         id="path70"
         d="m 5207.83,3473.4 c -122.26,176.6 -219.05,0 -219.05,0 0,0 83.21,-353.3 151.13,-448.4 67.92,-95.1 149.44,-40.7 298.88,0 149.44,40.8 -108.69,271.8 -230.96,448.4"
         style="fill:#eee5d2;fill-opacity:1;fill-rule:nonzero;stroke:none"
         transform="matrix(0.13333333,0,0,-0.13333333,0,2633.3333)" />
      <path
         id="path71"
         d="m 5792.02,2739.8 c -149.45,54.3 -297.84,44.1 -307.96,0 -49.83,-217.4 430.22,-271.8 579.67,-258.2 149.43,13.6 -122.27,203.8 -271.71,258.2"
         style="fill:#eee5d2;fill-opacity:1;fill-rule:nonzero;stroke:none"
         transform="matrix(0.13333333,0,0,-0.13333333,0,2633.3333)" />
      <path
         id="path72"
         d="m 6498.47,2628.2 c 0,0 -190.21,-184.5 0,-281 190.19,-96.5 298.87,-273.1 339.63,-191.6 40.76,81.5 27.17,186.3 0,324.1 -27.17,137.8 -339.63,148.5 -339.63,148.5"
         style="fill:#eee5d2;fill-opacity:1;fill-rule:nonzero;stroke:none"
         transform="matrix(0.13333333,0,0,-0.13333333,0,2633.3333)" />
      <path
         id="path73"
         d="m 7598.89,2347.2 c -108.68,80.1 -461.91,0 -461.91,0 0,0 -122.27,-286.7 54.34,-327.5 176.62,-40.7 475.5,-122.3 461.91,0 -13.59,122.3 54.35,247.4 -54.34,327.5"
         style="fill:#eee5d2;fill-opacity:1;fill-rule:nonzero;stroke:none"
         transform="matrix(0.13333333,0,0,-0.13333333,0,2633.3333)" />
      <path
         id="path74"
         d="m 7232.08,2628.2 c 12.26,60.3 -207.39,201 -368.26,84.4 -160.86,-116.6 110.13,-135.9 231.94,-232.9 121.8,-97.1 130.76,121.2 136.32,148.5"
         style="fill:#eee5d2;fill-opacity:1;fill-rule:nonzero;stroke:none"
         transform="matrix(0.13333333,0,0,-0.13333333,0,2633.3333)" />
      <path
         id="path75"
         d="m 6413.93,2902.8 c 0,0 -119.26,67.9 -198.72,69.4 -79.48,1.5 -233,-1.5 -219.41,-137.3 13.58,-135.9 217.36,-163.1 339.64,-206.7 122.26,-43.6 108.68,233.8 78.49,274.6"
         style="fill:#eee5d2;fill-opacity:1;fill-rule:nonzero;stroke:none"
         transform="matrix(0.13333333,0,0,-0.13333333,0,2633.3333)" />
      <path
         id="path76"
         d="m 5395.95,3551.9 c 79.44,-84.6 146.78,65.9 93.52,152.4 -53.26,86.5 -187.04,303.8 -187.04,303.8 0,0 -135.35,-140.8 -121.76,-240.6 13.58,-99.8 135.85,-131.1 215.28,-215.6"
         style="fill:#eee5d2;fill-opacity:1;fill-rule:nonzero;stroke:none"
         transform="matrix(0.13333333,0,0,-0.13333333,0,2633.3333)" />
      <path
         id="path77"
         d="m 5793.83,3106.6 c 15.41,95.1 -178.42,258.1 -178.42,258.1 0,0 -108.69,40.7 -131.35,0 -22.65,-40.8 158.51,-298.9 221,-392.3 62.48,-93.4 73.37,39.1 88.77,134.2"
         style="fill:#eee5d2;fill-opacity:1;fill-rule:nonzero;stroke:none"
         transform="matrix(0.13333333,0,0,-0.13333333,0,2633.3333)" />
      <path
         id="path78"
         d="m 5017.81,4294.9 c 95.26,33.5 -27.35,197.4 -29.03,306.1 -1.69,108.7 -134.16,155.4 -134.16,155.4 -87.22,54.9 -95.11,-264.1 -99.26,-400 -4.15,-135.8 167.18,-95.1 262.45,-61.5"
         style="fill:#eee5d2;fill-opacity:1;fill-rule:nonzero;stroke:none"
         transform="matrix(0.13333333,0,0,-0.13333333,0,2633.3333)" />
      <path
         id="path79"
         d="m 4507.38,5621.5 c 19.59,-134.3 224.97,-42.4 247.98,66.3 23.02,108.7 -155.58,244.5 -155.58,244.5 -175.16,40.6 -111.98,-176.6 -92.4,-310.8"
         style="fill:#eee5d2;fill-opacity:1;fill-rule:nonzero;stroke:none"
         transform="matrix(0.13333333,0,0,-0.13333333,0,2633.3333)" />
      <path
         id="path80"
         d="m 4507.38,6530.1 c -21.17,-108.7 48.35,-203.8 138.57,-217.4 90.22,-13.5 86.01,326.1 86.01,326.1 0,0 -40.37,122.3 -132.18,163 -91.79,40.8 -71.22,-163 -92.4,-271.7"
         style="fill:#eee5d2;fill-opacity:1;fill-rule:nonzero;stroke:none"
         transform="matrix(0.13333333,0,0,-0.13333333,0,2633.3333)" />
      <path
         id="path81"
         d="m 4841.03,7059.9 c 81.51,40.8 63.63,271.8 63.63,271.8 1.63,124.4 -131.56,190.2 -172.7,213.2 -41.15,23 -67.55,-370.3 -86.01,-460.4 -18.47,-90.2 113.56,-65.3 195.08,-24.6"
         style="fill:#eee5d2;fill-opacity:1;fill-rule:nonzero;stroke:none"
         transform="matrix(0.13333333,0,0,-0.13333333,0,2633.3333)" />
      <path
         id="path82"
         d="m 5638.41,8432.1 c 131.69,54.3 41.48,64.3 0,217.4 -41.47,153 -294.31,-95.1 -294.31,-95.1 0,0 0,0 0,-122.3 0,-122.3 162.62,-54.4 294.31,0"
         style="fill:#eee5d2;fill-opacity:1;fill-rule:nonzero;stroke:none"
         transform="matrix(0.13333333,0,0,-0.13333333,0,2633.3333)" />
      <path
         id="path83"
         d="m 5236.42,8160.4 c 96.51,95.1 -56.72,135.8 -56.72,135.8 0,0 -257.16,-138.9 -161.89,-278.8 95.26,-139.8 122.1,47.9 218.61,143"
         style="fill:#eee5d2;fill-opacity:1;fill-rule:nonzero;stroke:none"
         transform="matrix(0.13333333,0,0,-0.13333333,0,2633.3333)" />
      <path
         id="path84"
         d="m 6107.21,8635.9 c 97.84,-40.8 160.3,122.2 160.3,190.2 0,67.9 -272.56,0 -272.56,0 -84.09,-17.6 14.43,-149.5 112.26,-190.2"
         style="fill:#eee5d2;fill-opacity:1;fill-rule:nonzero;stroke:none"
         transform="matrix(0.13333333,0,0,-0.13333333,0,2633.3333)" />
      <path
         id="path85"
         d="m 11387.7,6493.5 c 148.3,-65.3 420,-214.7 426.8,-153.6 6.8,61.1 -203.8,190.2 -244.5,258.1 -40.8,68 -310.3,242.8 -353.3,197 0,0 -135.2,-115.4 -81.1,-217.3 54,-101.9 103.8,-18.8 252.1,-84.2"
         style="fill:#3c2f18;fill-opacity:1;fill-rule:nonzero;stroke:none"
         transform="matrix(0.13333333,0,0,-0.13333333,0,2633.3333)" />
      <path
         id="path86"
         d="m 11909.6,5842.9 c -67.9,-19.2 -516.2,-100.7 -624.9,-66.8 -108.7,34 -237.8,54.4 -88.3,101.9 149.4,47.6 351.1,67.9 464.2,101.9 113.2,34 140.3,101.9 38.4,88.3 -101.9,-13.6 -441.5,0 -482.3,6.8 -40.7,6.8 13.6,47.5 129.1,67.9 115.5,20.4 482.3,-47.5 360,34 -122.2,81.5 -672.5,108.7 -672.5,108.7 -13.5,-27.2 -54.3,-197 -67.9,-319.3 -13.6,-122.3 -156.2,-346.4 -67.9,-414.3 88.3,-68 244.5,-74.8 332.8,-101.9 88.3,-27.2 434.8,-81.6 332.9,-122.3 -101.9,-40.8 -210.6,-47.6 -305.7,-74.7 -95.1,-27.2 -237.7,-47.6 -278.5,-101.9 -40.8,-54.4 0,-115.5 34,-217.4 33.9,-101.9 49.9,-210.6 109.8,-210.6 60,0 297.7,40.8 202.6,0 -95.1,-40.7 -228.6,-61.1 -202.6,-115.4 26,-54.4 29.5,-156.3 102.5,-237.8 73,-81.5 263.2,117.5 202,41.8 -61.1,-75.7 -149.4,-88.2 -108.7,-149.9 40.8,-61.7 61.2,-88.9 108.7,-27.7 47.6,61.1 101.9,163 122.3,210.5 20.4,47.6 54.3,60.4 6.8,67.6 -47.6,7.2 -203.8,6.4 -251.3,0 -47.6,-6.4 -74.8,20.7 -27.2,47.9 47.5,27.2 298.9,88.3 339.6,129.1 40.8,40.7 113.4,129 43.1,108.7 -70.3,-20.4 -264.2,40.7 -381.2,47.5 -117,6.8 -259,67.9 -143.8,61.1 115.1,-6.8 420.8,40.8 488.7,47.6 67.9,6.8 81.5,-27.2 101.9,54.3 20.4,81.6 115.5,203.8 0,135.9 -115.5,-67.9 -461.9,-115.5 -489.1,-95.1 -27.1,20.4 -60.8,61.1 88.5,88.3 149.3,27.2 305.5,108.7 393.8,142.6 88.3,34 95.1,-20.3 135.9,135.9 40.7,156.2 122.2,446 54.3,426.8"
         style="fill:#2c1912;fill-opacity:1;fill-rule:nonzero;stroke:none"
         transform="matrix(0.13333333,0,0,-0.13333333,0,2633.3333)" />
      <path
         id="path87"
         d="m 11277.9,7460.7 c 101.9,-13.6 482.3,20.4 339.6,-40.7 -142.6,-61.2 -332.8,-54.4 -319.2,-115.5 13.5,-61.1 -47.6,-81.5 61.1,-108.7 108.7,-27.2 183.4,-115.5 244.5,-81.5 61.2,34 56.9,152.6 99.8,246.1 42.9,93.5 158.4,209 70.1,215.8 -88.4,6.8 -366.9,13.6 -231,67.9 135.9,54.4 203.8,-6.8 237.7,61.2 34,67.9 47.6,203.7 101.9,298.8 54.4,95.1 79.4,243 53.3,318.5 -26.1,75.5 41.8,258.9 -80.4,272.5 -122.3,13.6 -376.3,-148.8 -631.8,-190.2 -255.4,-41.3 -407.5,-101.9 -292,-115.5 115.4,-13.5 692.8,47.6 570.5,-27.1 -122.2,-74.8 -380.4,-135.9 -339.6,-169.9 40.8,-33.9 343.9,34 239.9,-33.9 -104,-67.9 -172,-74.6 -233.1,-122.2 -61.1,-47.6 6.8,-322.1 6.8,-322.1 13.6,-31.2 0,-139.9 101.9,-153.5"
         style="fill:#3c2f18;fill-opacity:1;fill-rule:nonzero;stroke:none"
         transform="matrix(0.13333333,0,0,-0.13333333,0,2633.3333)" />
      <path
         id="path88"
         d="m 10992.6,8544.9 c 74.7,-24.5 137.4,58.6 248.7,51 111.3,-7.6 448.2,16.4 408.8,41.8 -39.4,25.3 -610,128.6 -657.5,97.3 -26.7,-17.5 -74.7,-165.6 0,-190.1"
         style="fill:#3c2f18;fill-opacity:1;fill-rule:nonzero;stroke:none"
         transform="matrix(0.13333333,0,0,-0.13333333,0,2633.3333)" />
      <path
         id="path89"
         d="m 11162.4,10887 c -67.9,-24.4 -27.2,-63.9 47.6,-70.7 74.7,-6.7 326,47.6 450.6,70.7 124.7,23.2 -77,201.1 -77,201.1 -34.7,33.3 -353.3,-176.7 -421.2,-201.1"
         style="fill:#3c2f18;fill-opacity:1;fill-rule:nonzero;stroke:none"
         transform="matrix(0.13333333,0,0,-0.13333333,0,2633.3333)" />
      <path
         id="path90"
         d="m 11447.7,10660.1 c 108.7,-13.6 187.9,-95.1 253.6,-47.5 65.7,47.5 0,149.4 0,149.4 -49.8,-6.8 -362.3,-88.3 -253.6,-101.9"
         style="fill:#3c2f18;fill-opacity:1;fill-rule:nonzero;stroke:none"
         transform="matrix(0.13333333,0,0,-0.13333333,0,2633.3333)" />
      <path
         id="path91"
         d="m 11387.7,10422.4 c 87.2,-54.4 358.9,-97.9 321.5,-120.3 -37.3,-22.4 -232.5,-63.1 -131.5,-76.7 101,-13.6 150.3,-6.8 152.8,-74.7 2.5,-68 -38.3,-81.6 -187.7,-135.9 -149.4,-54.34 -345.7,-66.98 -325.7,-135.38 20,-68.4 402.2,-88.78 513.4,-115.95 111.2,-27.17 165.5,-129.07 213.1,27.17 47.5,156.23 -135.9,631.76 -135.9,631.76 -20.4,0 -507.2,54.3 -420,0"
         style="fill:#3c2f18;fill-opacity:1;fill-rule:nonzero;stroke:none"
         transform="matrix(0.13333333,0,0,-0.13333333,0,2633.3333)" />
      <path
         id="path92"
         d="m 11241.3,11237.5 c 51.7,-54.3 220,6.8 342.3,54.3 122.2,47.6 135.8,156.3 146.9,265 11,108.6 -24.4,423.6 -29.2,400.7 -18.7,-89.1 -219.6,-244.5 -261.2,-319.2 -41.6,-74.7 123.1,13.6 143.5,-6.8 20.3,-20.4 -13.6,-74.7 -143.5,-135.9 -129.9,-61.1 -189.4,-61.1 -264.1,-101.9 -74.7,-40.7 13.6,-101.9 65.3,-156.2"
         style="fill:#3c2f18;fill-opacity:1;fill-rule:nonzero;stroke:none"
         transform="matrix(0.13333333,0,0,-0.13333333,0,2633.3333)" />
      <path
         id="path93"
         d="m 14939.2,12127.4 c 271.7,230.9 271.7,312.4 421.1,414.2 149.5,101.8 217.4,360.1 394,604.7 176.6,244.5 258.1,489 380.4,801.5 122.3,312.5 0,611.4 0,611.4 27.2,353.2 -461.9,265.9 -679.3,-182.5 -217.3,-448.3 -801.5,-1434.2 -828.7,-1630.4 -27.2,-196.2 353.2,169 217.4,0 -135.9,-169 -679.3,-877.1 -883.1,-1036.7 -203.8,-159.7 176.6,91.7 326.1,146 149.4,54.4 -570.6,-787.9 -665.7,-912.2 -95.1,-124.4 1046.1,953 1317.8,1184"
         style="fill:#f0cf1d;fill-opacity:1;fill-rule:nonzero;stroke:none"
         transform="matrix(0.13333333,0,0,-0.13333333,0,2633.3333)" />
      <path
         id="path94"
         d="m 17139.8,9944.03 c 475.2,-23.23 312.7,36.81 423.4,187.17 110.8,150.3 147.4,202.9 100.5,416.8 -46.9,213.9 -253.4,141.7 -279.1,192.1 -40.8,80 -298.9,178.1 -625,137.4 -326,-40.8 -1181.9,-285.3 -1548.7,-441.9 -366.8,-156.5 -896.7,-414 -1222.7,-556.18 -326.1,-142.22 298.9,87.83 557,64.61 258.1,-23.23 -788,-465.83 -1005.3,-588.13 -217.4,-122.3 461.9,258.1 991.7,401 529.8,142.87 679.3,115.25 1440.1,187.13 760.8,71.87 692.8,23.22 1168.1,0"
         style="fill:#f0cf1d;fill-opacity:1;fill-rule:nonzero;stroke:none"
         transform="matrix(0.13333333,0,0,-0.13333333,0,2633.3333)" />
      <path
         id="path95"
         d="m 13615.8,8224.8 c 117.5,-138.8 630.5,-91.6 807.1,-93 176.6,-1.4 461.9,-134.4 828.7,-164.4 366.9,-30 326.1,-51.6 521.2,0 195.1,51.5 429.8,179.4 588.8,328.8 158.9,149.5 -267.6,163.1 -661.2,333.2 -393.5,170.2 -285.7,88 -720.5,69.9 -434.7,-18 -1249.8,-267.2 -1249.8,-267.2 0,0 -231.8,-68.5 -114.3,-207.3"
         style="fill:#f0cf1d;fill-opacity:1;fill-rule:nonzero;stroke:none"
         transform="matrix(0.13333333,0,0,-0.13333333,0,2633.3333)" />
      <path
         id="path96"
         d="m 14151.2,6807.1 c 135.9,-212 -489.1,293.6 -652.9,247.7 -163.9,-45.9 136.7,-22 394.8,-247.7 258.1,-225.6 529.8,-304.2 747.2,-564.4 217.4,-260.2 597.8,-663.6 777.1,-758.7 179.3,-95.1 201.1,-135.8 355.4,-95.9 154.4,39.9 144.5,354.1 124.8,676.2 -19.7,322.1 -143.3,330 -334,495.4 -190.7,165.5 -597.2,391.6 -661.2,463.4 -63.9,71.8 675.3,-289.2 798,-313.9 122.8,-24.6 -408,310 -711.3,446.4 -303.3,136.5 -335.2,108.1 -810.7,311.9 -475.5,203.8 -680.1,135.9 -680.1,135.9 164.1,18.1 517.1,-584.2 652.9,-796.3"
         style="fill:#f0cf1d;fill-opacity:1;fill-rule:nonzero;stroke:none"
         transform="matrix(0.13333333,0,0,-0.13333333,0,2633.3333)" />
      <path
         id="path97"
         d="m 14902.4,4084.9 c 186.2,-475.7 267.7,-786.6 403.6,-923.2 135.8,-136.7 176,-245.3 285,-136.7 109,108.7 54,394 0,584.2 -54.1,190.2 -94.8,145.7 -230.7,398.9 -135.8,253.2 -489,1174.7 -1263.4,1834.8 0,0 25.1,-37.8 223.1,-470 198,-432.3 396.2,-812.4 582.4,-1288"
         style="fill:#f0cf1d;fill-opacity:1;fill-rule:nonzero;stroke:none"
         transform="matrix(0.13333333,0,0,-0.13333333,0,2633.3333)" />
      <path
         id="path98"
         d="m 8509.12,11855.6 c 149.44,-54.3 529.83,-305.7 326.05,-146 -203.78,159.6 -747.2,867.7 -883.06,1036.7 -135.85,169 244.54,-196.2 217.37,0 -27.17,196.2 -611.35,1182.1 -828.72,1630.4 -217.36,448.4 -706.45,535.7 -679.27,182.5 0,0 -122.27,-298.9 0,-611.4 122.27,-312.5 203.78,-557 380.4,-801.5 176.61,-244.6 244.53,-502.9 393.97,-604.7 149.45,-101.8 149.45,-183.3 421.15,-414.2 271.72,-231 1412.89,-1308.4 1317.8,-1184 -95.1,124.3 -815.13,966.6 -665.69,912.2"
         style="fill:#f0cf1d;fill-opacity:1;fill-rule:nonzero;stroke:none"
         transform="matrix(0.13333333,0,0,-0.13333333,0,2633.3333)" />
      <path
         id="path99"
         d="m 8250.99,9944.03 c 258.13,23.22 883.07,-206.83 557.01,-64.61 -326.05,142.18 -855.89,399.68 -1222.69,556.18 -366.81,156.6 -1222.7,401.1 -1548.76,441.9 -326.05,40.7 -584.17,-57.4 -624.93,-137.4 -25.69,-50.4 -232.22,21.8 -279.14,-192.1 -46.91,-213.9 -10.25,-266.5 100.48,-416.8 110.73,-150.36 -51.8,-210.4 423.44,-187.17 475.25,23.22 407.33,71.87 1168.12,0 760.79,-71.88 910.22,-44.26 1440.06,-187.13 529.84,-142.9 1209.11,-523.3 991.74,-401 -217.37,122.3 -1263.45,564.9 -1005.33,588.13"
         style="fill:#f0cf1d;fill-opacity:1;fill-rule:nonzero;stroke:none"
         transform="matrix(0.13333333,0,0,-0.13333333,0,2633.3333)" />
      <path
         id="path100"
         d="m 9066.12,8432.1 c 0,0 -815.13,249.2 -1249.86,267.2 -434.74,18.1 -326.99,100.3 -720.5,-69.9 -393.51,-170.1 -820.1,-183.7 -661.15,-333.2 158.95,-149.4 393.64,-277.3 588.76,-328.8 195.13,-51.6 154.36,-30 521.18,0 366.81,30 652.1,163 828.72,164.4 176.61,1.4 689.64,-45.8 807.15,93 117.52,138.8 -114.3,207.3 -114.3,207.3"
         style="fill:#f0cf1d;fill-opacity:1;fill-rule:nonzero;stroke:none"
         transform="matrix(0.13333333,0,0,-0.13333333,0,2633.3333)" />
      <path
         id="path101"
         d="m 7095.76,6709.2 c 122.74,24.7 861.96,385.7 798.03,313.9 -63.95,-71.8 -470.53,-297.9 -661.22,-463.4 -190.68,-165.4 -314.31,-173.3 -334.01,-495.4 -19.7,-322.1 -29.55,-636.3 124.81,-676.2 154.36,-39.9 176.15,0.8 355.46,95.9 179.3,95.1 559.7,498.5 777.06,758.7 217.38,260.2 489.09,338.8 747.21,564.4 258.12,225.7 558.72,201.8 394.84,247.7 -163.88,45.9 -788.82,-459.7 -652.96,-247.7 135.85,212.1 488.83,814.4 652.96,796.3 0,0 -204.64,67.9 -680.14,-135.9 -475.49,-203.8 -507.42,-175.4 -810.72,-311.9 -303.29,-136.4 -834.06,-471 -711.32,-446.4"
         style="fill:#f0cf1d;fill-opacity:1;fill-rule:nonzero;stroke:none"
         transform="matrix(0.13333333,0,0,-0.13333333,0,2633.3333)" />
      <path
         id="path102"
         d="m 7205.23,3609.2 c -54.03,-190.2 -109.01,-475.5 0,-584.2 109,-108.6 149.12,0 284.98,136.7 135.85,136.6 217.37,447.5 403.58,923.2 186.2,475.6 384.37,855.7 582.39,1288 198.03,432.2 223.14,470 223.14,470 C 7924.95,5182.8 7571.72,4261.3 7435.86,4008.1 7300,3754.9 7259.25,3799.4 7205.23,3609.2"
         style="fill:#f0cf1d;fill-opacity:1;fill-rule:nonzero;stroke:none"
         transform="matrix(0.13333333,0,0,-0.13333333,0,2633.3333)" />
    </g>
  </g>
</svg>
