<?xml version="1.0" encoding="iso-8859-1"?>
<!-- Uploaded to: SVG Repo, www.svgrepo.com, Generator: SVG Repo Mixer Tools -->
<svg height="800px" width="800px" version="1.1" id="Layer_1" xmlns="http://www.w3.org/2000/svg" xmlns:xlink="http://www.w3.org/1999/xlink" 
	 viewBox="0 0 512 512" xml:space="preserve">
<polygon style="fill:#FFF476;" points="392.964,497.583 119.036,497.583 90.201,337.551 421.799,337.551 "/>
<g>
	<path style="fill:#EB87BF;" d="M284.506,68.156c33.76-33.76,95.79-26.466,95.79-26.466s7.294,62.029-26.466,95.79
		s-95.79,26.466-95.79,26.466S250.746,101.916,284.506,68.156z"/>
	<path style="fill:#EB87BF;" d="M284.506,263.813c-33.76-33.76-26.466-95.79-26.466-95.79s62.029-7.294,95.79,26.466
		s26.466,95.79,26.466,95.79S318.265,297.573,284.506,263.813z"/>
</g>
<path style="fill:#FFF476;" d="M367.339,118.974c-3.542,6.662-7.97,12.965-13.51,18.505c-11.555,11.557-26.424,18.3-40.984,22.175
	c-0.275,2.072-0.433,4.182-0.433,6.331s0.156,4.257,0.433,6.331c14.559,3.875,29.427,10.618,40.984,22.175
	c5.539,5.539,9.968,11.842,13.51,18.505c22.787-3.534,40.229-23.233,40.229-47.01S390.126,122.508,367.339,118.974z"/>
<path style="fill:#EB87BF;" d="M158.173,137.479c-33.761-33.76-26.467-95.789-26.467-95.789s62.029-7.294,95.79,26.466
	s26.466,95.79,26.466,95.79S191.932,171.24,158.173,137.479z"/>
<path style="fill:#FFF476;" d="M256,14.417c-23.777,0-43.477,17.442-47.01,40.229c6.662,3.542,12.965,7.971,18.505,13.51
	c11.555,11.557,18.3,26.424,22.175,40.984c2.072,0.275,4.182,0.433,6.331,0.433s4.257-0.156,6.331-0.433
	c3.875-14.559,10.618-29.427,22.175-40.984c5.539-5.539,11.842-9.968,18.505-13.51C299.478,31.859,279.777,14.417,256,14.417z"/>
<path style="fill:#EB87BF;" d="M158.173,194.489c33.76-33.76,95.79-26.466,95.79-26.466s7.294,62.029-26.466,95.79
	s-95.79,26.466-95.79,26.466S124.412,228.25,158.173,194.489z"/>
<g>
	<path style="fill:#FFF476;" d="M158.173,194.489c11.555-11.555,26.424-18.3,40.984-22.175c0.275-2.072,0.433-4.182,0.433-6.331
		c0-2.148-0.156-4.257-0.433-6.331c-14.559-3.875-29.427-10.618-40.984-22.175c-5.539-5.539-9.968-11.842-13.51-18.505
		c-22.787,3.534-40.229,23.233-40.229,47.01s17.442,43.477,40.229,47.01C148.205,206.332,152.632,200.03,158.173,194.489z"/>
	<path style="fill:#FFF476;" d="M284.506,263.813c-11.555-11.555-18.3-26.424-22.175-40.984c-2.072-0.275-4.182-0.433-6.331-0.433
		c-2.148,0-4.257,0.156-6.331,0.433c-3.875,14.559-10.618,29.427-22.175,40.984c-5.539,5.539-11.842,9.968-18.505,13.51
		c3.534,22.787,23.233,40.229,47.01,40.229s43.477-17.442,47.01-40.229C296.348,273.78,290.045,269.353,284.506,263.813z"/>
</g>
<path style="fill:#7BD36A;" d="M379.183,251.047c3.185,21.588,1.112,39.232,1.112,39.232s-43.343,5.091-77.287-12.958
	c0.001,0,0.001,0.001,0.003,0.001c-3.534,22.787-23.233,40.229-47.01,40.229c-23.777,0-43.477-17.442-47.01-40.229
	c0.004-0.001,0.007-0.004,0.012-0.006c-33.946,18.053-77.295,12.963-77.295,12.963s-2.073-17.644,1.112-39.232H50.554v86.504
	h410.893v-86.504H379.183z"/>
<path d="M328.086,411.073c-3.792,0-7.511-1.528-10.193-4.21c-0.663-0.678-1.269-1.413-1.788-2.191
	c-0.519-0.793-0.966-1.629-1.326-2.494c-0.36-0.865-0.649-1.773-0.822-2.696c-0.187-0.937-0.288-1.874-0.288-2.811
	c0-0.952,0.101-1.889,0.288-2.826c0.173-0.923,0.461-1.831,0.822-2.696c0.36-0.865,0.807-1.701,1.326-2.494
	c0.519-0.779,1.125-1.528,1.788-2.191c3.345-3.345,8.333-4.873,13.004-3.936c0.923,0.187,1.831,0.461,2.696,0.822
	c0.879,0.36,1.716,0.807,2.494,1.326c0.793,0.519,1.528,1.125,2.191,1.788s1.269,1.413,1.788,2.191
	c0.519,0.793,0.966,1.629,1.326,2.494c0.36,0.865,0.649,1.773,0.822,2.696c0.187,0.937,0.288,1.874,0.288,2.826
	c0,0.937-0.101,1.874-0.288,2.811c-0.173,0.923-0.461,1.831-0.822,2.696s-0.807,1.701-1.326,2.494
	c-0.519,0.779-1.125,1.514-1.788,2.191c-0.663,0.663-1.398,1.269-2.191,1.788c-0.779,0.519-1.615,0.966-2.494,1.326
	c-0.865,0.36-1.773,0.634-2.696,0.822C329.977,410.985,329.024,411.073,328.086,411.073z"/>
<path d="M461.446,236.63h-70.322c-1.117-4.861-2.516-9.807-4.246-14.729c21.08-10.036,35.105-31.373,35.105-55.916
	s-14.025-45.88-35.105-55.916c11.776-33.516,7.97-68.051,7.733-70.062c-0.78-6.629-6.006-11.857-12.635-12.635
	c-2.013-0.236-36.548-4.043-70.064,7.733C301.88,14.025,280.543,0,256,0s-45.88,14.025-55.916,35.105
	c-33.516-11.776-68.053-7.97-70.064-7.733c-6.629,0.78-11.855,6.008-12.635,12.635c-0.236,2.011-4.041,36.546,7.733,70.062
	c-21.08,10.036-35.105,31.373-35.105,55.916s14.025,45.88,35.105,55.916c-1.73,4.924-3.127,9.869-4.246,14.729H50.554
	c-7.963,0-14.417,6.455-14.417,14.417v86.504c0,7.963,6.455,14.417,14.417,14.417H78.15l26.698,148.171
	c1.237,6.866,7.212,11.861,14.188,11.861h273.929c6.977,0,12.951-4.994,14.188-11.861l26.698-148.171h27.596
	c7.963,0,14.417-6.455,14.417-14.417v-86.504C475.864,243.084,469.409,236.63,461.446,236.63z M163.44,210.33
	c0.43-0.562,0.874-1.113,1.322-1.659c0.104-0.125,0.205-0.254,0.309-0.376c0.399-0.477,0.812-0.944,1.227-1.409
	c0.137-0.153,0.27-0.31,0.408-0.46c0.541-0.591,1.093-1.172,1.661-1.74c0.959-0.959,1.971-1.881,3.015-2.783
	c0.154-0.134,0.307-0.27,0.463-0.402c1.042-0.882,2.125-1.737,3.248-2.562c0.115-0.085,0.232-0.169,0.347-0.252
	c7.444-5.391,16.625-9.564,27.425-12.439c0.03-0.009,0.059-0.023,0.089-0.03c13.94-3.681,27.792-4.445,37.24-4.425
	c0.04,9.43-0.721,23.21-4.37,37.089c-0.023,0.082-0.062,0.159-0.084,0.241c-2.879,10.814-7.059,20.007-12.459,27.455
	c-0.071,0.098-0.141,0.196-0.213,0.293c-0.832,1.133-1.694,2.225-2.584,3.276c-0.13,0.153-0.264,0.303-0.395,0.454
	c-0.903,1.045-1.827,2.059-2.787,3.019c-0.575,0.575-1.165,1.133-1.763,1.681c-0.28,0.257-0.57,0.506-0.856,0.758
	c-0.304,0.268-0.607,0.535-0.915,0.796c-0.402,0.339-0.813,0.675-1.228,1.005c-0.176,0.141-0.352,0.281-0.529,0.42
	c-0.52,0.407-1.048,0.809-1.589,1.202c-0.036,0.026-0.072,0.052-0.108,0.078c-2.499,1.814-5.195,3.493-8.074,5.026
	c-0.003,0.001-0.004,0.001-0.007,0.003c-19.324,10.278-42.86,11.961-56.762,11.922c-0.023-5.438,0.223-12.325,1.142-19.847
	c0.058-0.453,0.117-0.905,0.18-1.361c0.029-0.222,0.061-0.444,0.091-0.668c2.122-15.031,6.874-31.581,16.485-44.205
	C163.391,210.396,163.415,210.363,163.44,210.33z M309.138,186.247c10.843,2.886,20.057,7.079,27.517,12.501
	c0.062,0.045,0.123,0.089,0.185,0.134c1.158,0.848,2.271,1.729,3.342,2.637c0.137,0.117,0.272,0.236,0.408,0.355
	c1.054,0.91,2.076,1.843,3.045,2.81c0.036,0.036,0.069,0.074,0.105,0.11c0.533,0.536,1.054,1.084,1.564,1.639
	c0.272,0.297,0.538,0.604,0.806,0.91c0.251,0.285,0.503,0.572,0.75,0.862c0.347,0.411,0.689,0.83,1.028,1.256
	c0.134,0.169,0.268,0.336,0.401,0.506c0.407,0.522,0.81,1.051,1.205,1.592c0.03,0.04,0.059,0.082,0.089,0.123
	c1.815,2.5,3.496,5.199,5.029,8.082c0.039,0.074,0.091,0.138,0.131,0.21c5.564,10.52,8.587,22.292,10.17,33.082
	c0.004,0.032,0.004,0.063,0.009,0.094c0.313,2.119,0.567,4.198,0.776,6.224c0.019,0.187,0.039,0.376,0.058,0.564
	c0.082,0.826,0.156,1.641,0.223,2.445c0.035,0.417,0.066,0.828,0.097,1.238c0.04,0.528,0.078,1.051,0.111,1.569
	c0.035,0.536,0.066,1.065,0.095,1.589c0.012,0.213,0.023,0.424,0.033,0.636c0.169,3.32,0.226,6.39,0.215,9.093
	c-13.946,0.03-37.433-1.646-56.748-11.916c-0.003-0.001-0.007-0.003-0.01-0.004c-2.894-1.54-5.603-3.227-8.11-5.05
	c-0.017-0.013-0.036-0.026-0.053-0.039c-0.555-0.404-1.096-0.817-1.631-1.234c-0.164-0.13-0.329-0.259-0.493-0.391
	c-0.425-0.339-0.845-0.681-1.256-1.028c-0.301-0.255-0.598-0.518-0.895-0.779c-0.291-0.257-0.585-0.51-0.871-0.771
	c-0.595-0.546-1.184-1.103-1.759-1.678c-0.96-0.96-1.884-1.974-2.787-3.019c-0.131-0.151-0.265-0.301-0.395-0.454
	c-0.89-1.051-1.752-2.141-2.584-3.274c-0.072-0.098-0.143-0.196-0.213-0.294c-5.402-7.448-9.58-16.64-12.459-27.455
	c-0.022-0.084-0.061-0.159-0.084-0.241c-3.649-13.881-4.41-27.662-4.371-37.089c9.387-0.069,23.058,0.686,36.848,4.286
	C308.819,186.129,308.971,186.202,309.138,186.247z M277.007,276.583c0.161,0.147,0.33,0.288,0.492,0.434
	c0.77,0.693,1.546,1.377,2.333,2.037c0.205,0.172,0.417,0.336,0.624,0.506c0.763,0.629,1.531,1.247,2.31,1.845
	c0.252,0.195,0.513,0.382,0.768,0.575c0.741,0.557,1.485,1.106,2.239,1.636c0.11,0.076,0.213,0.159,0.323,0.236
	c-0.359,0.77-0.744,1.527-1.159,2.264c-0.104,0.185-0.222,0.362-0.329,0.545c-0.347,0.588-0.708,1.166-1.089,1.73
	c-0.167,0.248-0.342,0.489-0.516,0.731c-0.355,0.496-0.722,0.98-1.103,1.455c-0.187,0.234-0.375,0.469-0.568,0.696
	c-0.431,0.509-0.879,1.001-1.339,1.482c-0.154,0.161-0.3,0.33-0.457,0.487c-0.624,0.629-1.272,1.234-1.943,1.812
	c-0.128,0.11-0.264,0.209-0.394,0.317c-0.551,0.46-1.114,0.904-1.694,1.328c-0.235,0.172-0.477,0.336-0.717,0.502
	c-0.499,0.346-1.008,0.679-1.525,0.998c-0.261,0.16-0.522,0.32-0.787,0.473c-0.554,0.32-1.119,0.62-1.69,0.908
	c-0.228,0.114-0.451,0.238-0.68,0.347c-0.803,0.382-1.621,0.738-2.455,1.055c-0.102,0.039-0.208,0.068-0.31,0.107
	c-0.735,0.271-1.481,0.518-2.236,0.737c-0.28,0.081-0.564,0.15-0.846,0.223c-0.598,0.156-1.201,0.298-1.809,0.421
	c-0.313,0.063-0.627,0.123-0.943,0.177c-0.623,0.107-1.251,0.19-1.883,0.262c-0.285,0.032-0.568,0.072-0.855,0.097
	c-0.914,0.078-1.834,0.128-2.764,0.128c-0.921,0-1.835-0.049-2.741-0.125c-0.288-0.025-0.571-0.065-0.858-0.097
	c-0.621-0.069-1.238-0.15-1.851-0.254c-0.322-0.055-0.642-0.117-0.96-0.18c-0.585-0.117-1.165-0.252-1.74-0.401
	c-0.301-0.078-0.603-0.151-0.901-0.238c-0.655-0.189-1.3-0.404-1.939-0.631c-0.198-0.071-0.399-0.13-0.595-0.203
	c-0.822-0.311-1.629-0.655-2.422-1.029c-0.215-0.101-0.42-0.216-0.631-0.322c-0.578-0.288-1.149-0.587-1.708-0.907
	c-0.277-0.159-0.546-0.326-0.819-0.492c-0.489-0.298-0.97-0.608-1.443-0.931c-0.268-0.183-0.536-0.368-0.8-0.559
	c-0.486-0.353-0.957-0.722-1.423-1.099c-0.219-0.177-0.443-0.347-0.657-0.531c-0.66-0.564-1.303-1.146-1.919-1.759
	c-0.079-0.079-0.151-0.166-0.231-0.245c-0.536-0.544-1.054-1.106-1.551-1.685c-0.196-0.228-0.381-0.466-0.571-0.699
	c-0.368-0.453-0.728-0.913-1.073-1.385c-0.195-0.267-0.384-0.536-0.571-0.809c-0.327-0.477-0.639-0.965-0.941-1.46
	c-0.161-0.265-0.327-0.529-0.483-0.799c-0.347-0.607-0.672-1.23-0.982-1.86c-0.082-0.166-0.173-0.326-0.252-0.495
	c-0.013-0.027-0.023-0.058-0.036-0.085c0.115-0.081,0.225-0.167,0.342-0.249c0.734-0.518,1.46-1.052,2.183-1.595
	c0.274-0.206,0.552-0.407,0.823-0.616c0.761-0.585,1.511-1.189,2.256-1.802c0.222-0.183,0.451-0.359,0.67-0.544
	c0.774-0.649,1.535-1.321,2.292-2.001c0.174-0.157,0.356-0.309,0.529-0.466c0.911-0.835,1.811-1.691,2.693-2.574
	c0.823-0.823,1.618-1.665,2.4-2.514c0.186-0.202,0.372-0.404,0.555-0.607c0.761-0.843,1.508-1.695,2.23-2.561
	c0.125-0.15,0.245-0.304,0.369-0.454c0.626-0.76,1.236-1.53,1.832-2.305c0.189-0.247,0.381-0.49,0.567-0.738
	c0.64-0.849,1.262-1.708,1.867-2.575c0.229-0.327,0.453-0.659,0.679-0.989c0.467-0.688,0.926-1.38,1.373-2.076
	c0.329-0.512,0.653-1.028,0.973-1.548c0.365-0.593,0.724-1.188,1.076-1.786c0.285-0.486,0.569-0.97,0.849-1.463
	c0.424-0.75,0.835-1.504,1.237-2.261c0.319-0.598,0.631-1.204,0.94-1.812c0.159-0.313,0.311-0.626,0.466-0.94
	c0.297-0.601,0.606-1.189,0.894-1.801c0.288,0.611,0.597,1.2,0.894,1.801c0.154,0.313,0.309,0.627,0.466,0.94
	c0.309,0.608,0.621,1.214,0.94,1.812c0.402,0.757,0.815,1.511,1.237,2.261c0.278,0.493,0.564,0.977,0.849,1.463
	c0.352,0.598,0.711,1.192,1.076,1.786c0.322,0.52,0.644,1.038,0.973,1.548c0.447,0.696,0.905,1.388,1.373,2.076
	c0.225,0.33,0.45,0.662,0.679,0.989c0.606,0.866,1.228,1.726,1.867,2.575c0.187,0.248,0.378,0.492,0.567,0.738
	c0.597,0.776,1.207,1.546,1.832,2.305c0.124,0.15,0.245,0.304,0.369,0.454c0.722,0.865,1.469,1.719,2.23,2.561
	c0.185,0.203,0.369,0.405,0.555,0.607c0.781,0.849,1.577,1.69,2.4,2.514C275.194,274.89,276.095,275.748,277.007,276.583z
	 M373.876,135.882c11.426,5.329,19.276,17.027,19.276,30.103s-7.849,24.775-19.276,30.103c-0.012-0.017-0.025-0.032-0.036-0.049
	c-0.695-0.993-1.414-1.975-2.154-2.947c-0.088-0.115-0.176-0.229-0.264-0.343c-1.43-1.861-2.944-3.679-4.546-5.445
	c-0.161-0.179-0.324-0.356-0.487-0.532c-0.771-0.836-1.554-1.665-2.366-2.475c-0.825-0.825-1.665-1.619-2.514-2.402
	c-0.202-0.186-0.402-0.371-0.607-0.555c-0.842-0.761-1.694-1.507-2.558-2.229c-0.154-0.128-0.313-0.252-0.467-0.381
	c-0.754-0.621-1.518-1.227-2.288-1.818c-0.249-0.192-0.497-0.386-0.75-0.575c-0.846-0.637-1.701-1.256-2.563-1.858
	c-0.334-0.234-0.673-0.464-1.012-0.693c-0.678-0.46-1.358-0.911-2.044-1.352c-0.522-0.336-1.051-0.668-1.582-0.995
	c-0.585-0.36-1.174-0.715-1.763-1.063c-0.489-0.287-0.977-0.574-1.473-0.854c-0.751-0.424-1.505-0.836-2.264-1.238
	c-0.593-0.316-1.192-0.624-1.795-0.93c-0.336-0.17-0.675-0.336-1.012-0.502c-0.581-0.287-1.152-0.585-1.742-0.865
	c3.159-1.492,6.169-3.121,9.06-4.857c0.359-0.215,0.718-0.427,1.074-0.646c0.64-0.395,1.269-0.799,1.894-1.207
	c0.445-0.29,0.888-0.582,1.329-0.879c0.568-0.383,1.132-0.77,1.687-1.163c0.493-0.349,0.982-0.706,1.469-1.065
	c0.503-0.371,1.008-0.742,1.501-1.122c0.538-0.414,1.067-0.842,1.596-1.269c0.435-0.352,0.877-0.699,1.303-1.058
	c0.598-0.502,1.185-1.024,1.773-1.544c0.345-0.306,0.699-0.604,1.039-0.915c0.846-0.774,1.68-1.573,2.501-2.389
	c0.066-0.066,0.138-0.128,0.205-0.195c0.014-0.014,0.029-0.03,0.043-0.046c0.79-0.792,1.554-1.599,2.307-2.413
	c0.173-0.187,0.345-0.375,0.516-0.564c1.593-1.757,3.098-3.565,4.521-5.418c0.094-0.123,0.189-0.244,0.281-0.366
	c0.735-0.966,1.45-1.941,2.141-2.928C373.847,135.919,373.861,135.9,373.876,135.882z M366.614,55.459
	c0.066,18.185-3.255,46.741-17.975,66.08c-0.026,0.033-0.052,0.068-0.078,0.102c-0.43,0.562-0.874,1.114-1.323,1.661
	c-0.102,0.124-0.202,0.251-0.304,0.372c-0.402,0.482-0.817,0.952-1.236,1.419c-0.134,0.148-0.264,0.303-0.398,0.45
	c-0.542,0.593-1.094,1.174-1.662,1.742c-0.965,0.965-1.984,1.893-3.033,2.801c-0.141,0.121-0.28,0.247-0.421,0.366
	c-1.055,0.894-2.152,1.76-3.291,2.597c-0.094,0.069-0.189,0.137-0.283,0.206c-7.451,5.406-16.648,9.589-27.469,12.468
	c-0.075,0.02-0.144,0.055-0.219,0.076c-13.554,3.565-27.014,4.38-36.42,4.38c-0.262,0-0.522,0-0.779-0.001
	c-0.062-16.935,2.814-42.866,15.101-61.968c0.512-0.79,1.032-1.569,1.569-2.323c0.307-0.434,0.623-0.861,0.941-1.287
	c0.699-0.931,1.41-1.848,2.148-2.723c0.172-0.203,0.35-0.401,0.525-0.603c0.875-1.008,1.768-1.991,2.696-2.92
	c0.575-0.575,1.165-1.133,1.762-1.681c0.278-0.255,0.567-0.503,0.851-0.754c0.306-0.27,0.613-0.539,0.923-0.802
	c0.401-0.337,0.809-0.67,1.221-0.999c0.179-0.143,0.356-0.285,0.536-0.425c0.518-0.404,1.042-0.803,1.579-1.195
	c0.04-0.03,0.082-0.059,0.123-0.089c2.501-1.815,5.2-3.496,8.082-5.029c0.131-0.069,0.252-0.148,0.381-0.222
	C329.377,57.048,352.74,55.381,366.614,55.459z M225.898,48.111c5.329-11.427,17.027-19.276,30.103-19.276
	c13.078,0,24.776,7.847,30.103,19.276c-0.016,0.012-0.03,0.023-0.046,0.033c-0.998,0.698-1.984,1.422-2.96,2.164
	c-0.108,0.082-0.216,0.166-0.324,0.249c-1.868,1.436-3.692,2.954-5.466,4.563c-0.172,0.156-0.342,0.311-0.51,0.467
	c-0.839,0.774-1.672,1.561-2.487,2.376l0,0c-0.823,0.823-1.618,1.665-2.4,2.513c-0.186,0.202-0.372,0.405-0.557,0.608
	c-0.761,0.842-1.507,1.694-2.229,2.559c-0.127,0.153-0.251,0.31-0.376,0.463c-0.623,0.757-1.23,1.521-1.822,2.292
	c-0.192,0.249-0.385,0.496-0.574,0.748c-0.637,0.846-1.256,1.701-1.86,2.563c-0.234,0.334-0.463,0.673-0.693,1.011
	c-0.458,0.673-0.907,1.352-1.345,2.034c-0.342,0.531-0.678,1.067-1.011,1.608c-0.355,0.577-0.705,1.156-1.047,1.739
	c-0.29,0.493-0.58,0.988-0.864,1.489c-0.418,0.742-0.826,1.488-1.224,2.238c-0.323,0.607-0.64,1.223-0.954,1.84
	c-0.147,0.291-0.291,0.584-0.435,0.877c-0.306,0.616-0.621,1.221-0.918,1.848c-0.294-0.623-0.608-1.224-0.913-1.837
	c-0.147-0.297-0.291-0.594-0.441-0.89c-0.314-0.618-0.63-1.233-0.954-1.84c-0.398-0.747-0.804-1.491-1.221-2.23
	c-0.285-0.505-0.577-1.003-0.869-1.501c-0.337-0.575-0.683-1.146-1.034-1.716c-0.34-0.552-0.683-1.1-1.032-1.642
	c-0.433-0.673-0.875-1.341-1.326-2.005c-0.235-0.345-0.469-0.691-0.708-1.031c-0.6-0.856-1.215-1.707-1.847-2.548
	c-0.195-0.258-0.394-0.513-0.591-0.768c-0.585-0.763-1.185-1.517-1.799-2.264c-0.133-0.16-0.261-0.324-0.394-0.484
	c-0.719-0.861-1.462-1.708-2.22-2.548c-0.187-0.208-0.376-0.412-0.565-0.618c-0.78-0.848-1.574-1.687-2.396-2.509
	c-0.812-0.812-1.641-1.596-2.477-2.367c-0.176-0.161-0.352-0.323-0.531-0.484c-1.766-1.602-3.584-3.116-5.445-4.546
	c-0.114-0.088-0.228-0.176-0.343-0.264c-0.972-0.74-1.954-1.459-2.947-2.154C225.93,48.135,225.914,48.122,225.898,48.111z
	 M201.847,67.157c0.125,0.072,0.247,0.15,0.375,0.219c2.896,1.54,5.61,3.229,8.121,5.056c0.017,0.013,0.035,0.025,0.05,0.037
	c0.559,0.408,1.106,0.823,1.645,1.244c0.154,0.121,0.307,0.242,0.46,0.365c0.437,0.347,0.868,0.699,1.29,1.055
	c0.281,0.238,0.558,0.482,0.835,0.725c0.311,0.274,0.627,0.546,0.931,0.825c0.552,0.507,1.096,1.024,1.631,1.556
	c0.037,0.037,0.078,0.074,0.115,0.111c0.963,0.963,1.89,1.979,2.796,3.028c0.127,0.147,0.257,0.291,0.382,0.44
	c0.892,1.054,1.757,2.148,2.592,3.286c0.069,0.094,0.136,0.187,0.205,0.281c5.404,7.449,9.585,16.645,12.464,27.462
	c0.023,0.084,0.061,0.16,0.085,0.242c3.649,13.88,4.41,27.66,4.371,37.086c-9.409,0.056-23.134-0.704-36.969-4.328
	c-0.124-0.036-0.236-0.092-0.362-0.125c-10.826-2.882-20.027-7.066-27.481-12.477c-0.084-0.061-0.166-0.12-0.249-0.18
	c-1.143-0.839-2.243-1.708-3.303-2.605c-0.146-0.124-0.29-0.252-0.435-0.378c-1.05-0.905-2.066-1.834-3.031-2.797
	c-0.035-0.035-0.068-0.072-0.102-0.107c-0.536-0.539-1.058-1.089-1.57-1.646c-0.265-0.29-0.525-0.59-0.784-0.887
	c-0.26-0.294-0.519-0.59-0.773-0.89c-0.342-0.405-0.678-0.817-1.009-1.234c-0.141-0.176-0.281-0.352-0.42-0.529
	c-0.402-0.516-0.8-1.038-1.189-1.571c-0.036-0.048-0.071-0.097-0.105-0.146c-1.812-2.497-3.49-5.193-5.02-8.071
	c-0.062-0.117-0.134-0.225-0.199-0.34c-10.101-19.187-11.777-42.519-11.72-56.406C159.37,55.39,182.674,57.072,201.847,67.157z
	 M138.126,196.088c-11.427-5.329-19.276-17.027-19.276-30.103c0-13.078,7.847-24.776,19.276-30.103
	c0.013,0.019,0.029,0.037,0.042,0.058c0.692,0.989,1.407,1.965,2.142,2.931c0.092,0.121,0.185,0.241,0.278,0.362
	c1.426,1.856,2.935,3.668,4.531,5.428c0.166,0.183,0.333,0.365,0.499,0.546c0.768,0.833,1.55,1.659,2.359,2.468l0,0
	c0.89,0.89,1.795,1.75,2.713,2.591c0.32,0.293,0.653,0.572,0.978,0.861c0.608,0.539,1.215,1.078,1.834,1.597
	c0.418,0.35,0.848,0.689,1.273,1.032c0.539,0.435,1.078,0.871,1.626,1.292c0.486,0.373,0.982,0.738,1.478,1.104
	c0.497,0.366,0.995,0.731,1.498,1.086c0.548,0.388,1.103,0.768,1.661,1.146c0.451,0.304,0.905,0.604,1.361,0.9
	c0.617,0.401,1.237,0.799,1.867,1.188c0.371,0.228,0.744,0.448,1.116,0.672c2.882,1.729,5.882,3.352,9.028,4.838
	c-0.567,0.267-1.112,0.554-1.67,0.829c-0.369,0.182-0.738,0.362-1.104,0.548c-0.591,0.3-1.178,0.603-1.759,0.911
	c-0.768,0.408-1.533,0.826-2.294,1.256c-0.486,0.275-0.965,0.555-1.443,0.836c-0.603,0.355-1.204,0.717-1.801,1.084
	c-0.518,0.319-1.031,0.64-1.54,0.967c-0.696,0.447-1.388,0.905-2.076,1.373c-0.333,0.226-0.666,0.453-0.996,0.683
	c-0.865,0.606-1.721,1.225-2.571,1.864c-0.249,0.187-0.495,0.379-0.741,0.569c-0.776,0.595-1.543,1.205-2.302,1.831
	c-0.151,0.124-0.306,0.245-0.454,0.371c-0.866,0.722-1.719,1.471-2.562,2.232c-0.203,0.183-0.404,0.368-0.604,0.552
	c-0.849,0.783-1.691,1.577-2.516,2.402c-0.014,0.014-0.029,0.03-0.043,0.046c-0.792,0.792-1.556,1.6-2.308,2.415
	c-0.172,0.186-0.343,0.373-0.513,0.562c-1.593,1.757-3.098,3.565-4.521,5.417c-0.095,0.123-0.189,0.245-0.284,0.369
	c-0.734,0.966-1.449,1.941-2.14,2.928C138.154,196.051,138.14,196.068,138.126,196.088z M64.971,265.464h51.928
	c-0.812,14.807,0.359,25.41,0.487,26.498c0.78,6.629,6.006,11.857,12.635,12.635c0.812,0.095,6.922,0.773,16.127,0.773
	c8.587,0,19.867-0.593,32.045-2.796c0.089-0.016,0.179-0.035,0.268-0.05c0.897-0.164,1.798-0.333,2.703-0.516
	c0.415-0.084,0.835-0.176,1.251-0.262c0.585-0.123,1.168-0.241,1.756-0.372c0.688-0.151,1.38-0.316,2.07-0.48
	c0.32-0.075,0.64-0.146,0.96-0.225c0.897-0.218,1.796-0.45,2.699-0.688c0.121-0.032,0.242-0.061,0.363-0.094
	c3.26-0.869,6.54-1.864,9.81-3.012c0.059,0.125,0.131,0.242,0.192,0.368c0.582,1.201,1.194,2.385,1.848,3.538
	c0.082,0.146,0.17,0.285,0.254,0.43c0.637,1.101,1.306,2.18,2.007,3.235c0.097,0.146,0.187,0.294,0.285,0.438
	c0.741,1.096,1.521,2.16,2.327,3.201c0.159,0.205,0.317,0.407,0.479,0.61c0.822,1.034,1.668,2.043,2.552,3.019
	c0.105,0.115,0.215,0.226,0.322,0.342c0.852,0.927,1.733,1.825,2.64,2.696c0.128,0.123,0.252,0.249,0.381,0.372
	c0.95,0.898,1.933,1.759,2.938,2.594c0.202,0.167,0.405,0.334,0.61,0.499c1.018,0.823,2.056,1.621,3.126,2.379
	c0.134,0.095,0.271,0.183,0.405,0.277c1.022,0.712,2.067,1.393,3.133,2.043c0.111,0.068,0.216,0.146,0.327,0.213H90.201h-25.23
	V265.464z M380.913,483.165H131.089L118.1,411.079h166.736c7.963,0,14.417-6.455,14.417-14.417c0-7.963-6.455-14.417-14.417-14.417
	H112.904l-5.455-30.276h297.103L380.913,483.165z M447.029,323.133h-25.23H288.097c0.112-0.068,0.216-0.146,0.327-0.213
	c1.065-0.65,2.111-1.331,3.133-2.043c0.134-0.094,0.272-0.182,0.405-0.277c1.07-0.757,2.108-1.556,3.126-2.379
	c0.205-0.166,0.408-0.332,0.61-0.499c1.006-0.835,1.988-1.697,2.94-2.595c0.128-0.121,0.251-0.247,0.378-0.369
	c0.91-0.874,1.792-1.775,2.647-2.705c0.104-0.112,0.21-0.221,0.313-0.333c0.887-0.979,1.737-1.992,2.561-3.031
	c0.156-0.196,0.311-0.394,0.466-0.593c0.812-1.048,1.596-2.118,2.341-3.221c0.089-0.133,0.173-0.268,0.262-0.401
	c0.717-1.077,1.4-2.178,2.049-3.304c0.072-0.124,0.147-0.245,0.218-0.369c0.665-1.172,1.287-2.373,1.877-3.594
	c0.055-0.112,0.118-0.218,0.173-0.33c2.226,0.781,4.458,1.489,6.685,2.14c0.115,0.033,0.229,0.063,0.343,0.097
	c0.913,0.264,1.825,0.52,2.735,0.764c0.281,0.075,0.561,0.143,0.842,0.216c0.738,0.192,1.478,0.385,2.213,0.564
	c0.505,0.123,1.006,0.235,1.509,0.353c0.507,0.118,1.018,0.241,1.524,0.353c0.8,0.177,1.596,0.343,2.39,0.506
	c0.202,0.042,0.405,0.087,0.607,0.127c13.332,2.68,25.784,3.374,35.079,3.374c9.201,0,15.315-0.678,16.127-0.773
	c6.629-0.78,11.855-6.008,12.635-12.635c0.128-1.087,1.299-11.691,0.487-26.498h51.928v57.668H447.029z"/>
</svg>